<?xml version="1.0" encoding="UTF-8"?>
<svg width="64px" height="64px" viewBox="0 0 64 64" version="1.1" xmlns="http://www.w3.org/2000/svg" xmlns:xlink="http://www.w3.org/1999/xlink">
    <g id="Page-1" stroke="none" stroke-width="1" fill="none" fill-rule="evenodd">
        <g id="0004.-Landing--Integration-Desktop-#01" transform="translate(-1357.000000, -2456.000000)">
            <g id="Block/integrations" transform="translate(-1.000000, 1960.000000)">
                <g id="Block/tracker-dropdiwn" transform="translate(1338.000000, 476.000000)">
                    <g id="Logo/tracker/bitbucket" transform="translate(20.000000, 20.000000)">
                        <g id="bitbucket-seeklogo.com" transform="translate(0.000000, 4.000000)">
                            <polygon id="Path" points="25.318022 38.3054299 38.680178 38.3054299 41.9055262 19.3940263 21.7650196 19.3940263"></polygon>
                            <path d="M2.07703267,0.00017161427 C1.47125744,-0.00767521954 0.893031658,0.253908606 0.49746411,0.714753361 C0.101896562,1.17559812 -0.0705215002,1.78853061 0.0264609803,2.38913201 L8.7311378,55.4611231 C8.95500905,56.8017162 10.1049864,57.7873363 11.4583981,57.7985971 L53.2182905,57.7985971 C54.234129,57.8117282 55.1063988,57.0758496 55.2688623,56.0686603 L63.973539,2.39942926 C64.0705215,1.79882785 63.8981035,1.18589536 63.502536,0.725050603 C63.1069683,0.264205848 62.5287425,0.00262202355 61.9229673,0.0104688574 L2.07703267,0.00017161427 Z M38.7310015,38.3574021 L25.4022855,38.3574021 L21.7932794,19.4207721 L41.960652,19.4207721 L38.7310015,38.3574021 Z" id="Shape" fill="#2684FF" fill-rule="nonzero"></path>
                            <path d="M61.152706,19.3940263 L41.923444,19.3940263 L38.69637,38.3155487 L25.3782877,38.3155487 L9.65270588,57.0621578 C10.1511374,57.4950199 10.7866152,57.7357234 11.4455247,57.7412336 L53.1823458,57.7412336 C54.1973737,57.7543542 55.0689477,57.0190628 55.2312815,56.012677 L61.152706,19.3940263 Z" id="Path" fill="url(#linearGradient-1)" fill-rule="nonzero"></path>
                        </g>
                    </g>
                </g>
            </g>
        </g>
    </g>
</svg>