<?xml version="1.0" encoding="UTF-8"?>
<svg width="64px" height="64px" viewBox="0 0 64 64" version="1.1" xmlns="http://www.w3.org/2000/svg" xmlns:xlink="http://www.w3.org/1999/xlink">
    <g id="Page-1" stroke="none" stroke-width="1" fill="none" fill-rule="evenodd">
        <g id="0004.-Landing--Integration-Desktop-#01" transform="translate(-629.000000, -2668.000000)" fill="#546062">
            <g id="Block/integrations" transform="translate(-1.000000, 1960.000000)">
                <g id="Block/tracker-dropdiwn" transform="translate(610.000000, 688.000000)">
                    <g id="Logo/tracker/Ca-technologies" transform="translate(20.000000, 20.000000)">
                        <g id="CA-Technologies-01" transform="translate(0.000000, 12.000000)">
                            <g id="Group-18">
                                <path d="M38.6592508,12.2336 C39.5446857,9.8808 41.9346286,8.864 45.1809524,8.864 C49.814146,8.864 51.1420952,12.0594 51.2010159,14.7026 L51.2304762,15.981 C38.4231619,16.5908 26.3830349,18.944 26.6191238,30.4764 C26.7962921,38.552 34.2032254,41.8634 39.3085968,41.8346 C45.239873,41.8346 48.5453206,40.2658 51.8206984,36.286 C51.8798222,37.971 52.0862476,39.743 52.3814603,41.0502 L63.8606222,41.0502 C63.2116825,39.075 63.0641778,37.0996 63.0641778,35.037 L63.0641778,14.0928 C63.0641778,9.0092 62.0901587,6.1624 59.3162159,3.6932 C56.689981,1.3402 52.3814603,0.033 46.5678222,0.033 C41.2562286,0.033 36.6821587,1.224 33.3179937,3.49 C36.0919365,5.6396 37.921727,8.6316 38.6592508,12.2336 Z M49.637181,30.912 C48.2793651,32.9746 46.0958476,34.2526 43.6760381,34.2526 C40.3707937,34.2526 37.6263111,32.7712 37.6263111,29.2562 C37.6263111,24.0566 45.3284571,22.2266 51.2304762,21.8778 L51.2304762,23.4174 C51.2601397,26.7872 51.2010159,28.5882 49.637181,30.912 L49.637181,30.912 Z" id="Fill-16"></path>
                                <path d="M25.969981,30.0406 C25.969981,30.273 25.969981,30.5056 25.969981,30.767 C25.969981,30.8832 25.969981,30.9992 25.969981,31.0864 C26.146946,35.2114 28.1831619,37.7678 30.071873,39.3072 C26.884673,41.1084 23.107454,41.8634 19.7138286,41.8634 C7.31956825,41.8634 0.00101587302,33.2358 0.00101587302,21.355 C0.00101587302,8.9802 7.55545397,0.033 20.4515556,0.033 C29.8063238,0.033 37.4790095,4.9134 38.3051175,14.4704 L27.0616381,14.4704 C27.0616381,10.8394 24.4648635,8.893 20.8351492,8.893 C15.0217143,8.893 13.2215873,12.9308 13.2215873,20.3672 C13.2215873,27.92 14.9036698,32.3354 20.8646095,32.3354 C23.0777905,32.3644 24.907581,31.6094 25.969981,30.0406" id="Fill-17"></path>
                            </g>
                        </g>
                    </g>
                </g>
            </g>
        </g>
    </g>
</svg>