<?xml version="1.0" encoding="UTF-8"?>
<svg width="64px" height="64px" viewBox="0 0 64 64" version="1.1" xmlns="http://www.w3.org/2000/svg" xmlns:xlink="http://www.w3.org/1999/xlink">
    <g id="Page-1" stroke="none" stroke-width="1" fill="none" fill-rule="evenodd">
        <g id="timetracker-integrations" transform="translate(-265.000000, -709.000000)">
            <g id="Block/integrations" transform="translate(-1.000000, 1.000000)">
                <g id="Block/tracker-dropdiwn" transform="translate(246.000000, 688.000000)">
                    <g id="Group-20" transform="translate(20.000000, 20.000000)">
                        <rect id="Rectangle" fill="#7B68EE" x="0" y="0" width="64" height="64" rx="7.31428571"></rect>
                        <path d="M32.2053376,52 C40.4780213,52 47.5954246,47.4712042 50.8098279,40.9601011 C51.0365028,40.3950172 51.1898418,39.8046579 51.2669875,39.204369 C51.1974611,35.6974183 49.1450051,33.9434916 48.3278323,33.3838238 L47.9963916,33.2177288 C47.9735336,41.2191731 40.898989,47.722152 32.2053376,47.722152 L32.1605741,47.722152 C23.4669226,47.722152 16.392378,41.2191731 16.36952,33.2177288 L16.0380793,33.3838238 C15.2209066,33.9434916 13.1684505,35.6974183 13.0998766,39.204369 C13.1760699,39.8055606 13.3303612,40.3950172 13.5570362,40.9601011 C16.7704871,47.4712042 23.8888428,52 32.1605741,52 L32.2053376,52 Z M32.0148544,18.0101101 L51.9917759,30.7831739 C52.0546353,29.900343 51.9060585,26.1794548 45.972508,21.3970031 L34.1768383,12.6752121 C33.5496848,12.2564115 32.8064625,12.0216054 32.0396172,12 L31.9596143,12 C31.193096,12.0217811 30.4502307,12.2565791 29.8233457,12.6752121 L18.0267235,21.3970031 C12.0941255,26.1794548 11.9445962,29.900343 12.0084081,30.7822712 L31.9834247,18.0101101 L32.0158069,18.0101101 L32.0148544,18.0101101 Z" id="Shape" fill="#FFFFFF"></path>
                    </g>
                </g>
            </g>
        </g>
    </g>
</svg>