<?xml version="1.0" encoding="UTF-8"?>
<svg width="64px" height="64px" viewBox="0 0 64 64" version="1.1" xmlns="http://www.w3.org/2000/svg" xmlns:xlink="http://www.w3.org/1999/xlink">
    <g id="Page-1" stroke="none" stroke-width="1" fill="none" fill-rule="evenodd">
        <g id="0004.-Landing--Integration-Desktop-#01" transform="translate(-265.000000, -2880.000000)" fill-rule="nonzero">
            <g id="Block/integrations" transform="translate(-1.000000, 1960.000000)">
                <g id="Block/tracker-dropdiwn" transform="translate(246.000000, 900.000000)">
                    <g id="Logo/tracker/google-calendar" transform="translate(20.000000, 20.000000)">
                        <g id="Google-calendar" transform="translate(4.000000, 4.000000)">
                            <path d="M37.6627125,32.0319563 C38.6659,32.0273625 39.6693063,32.0264875 40.6718375,32.0319563 C40.6593688,36.01955 40.66965,40.0078 40.6672438,43.995175 C39.667775,43.995175 38.6683063,43.99605 37.6681813,43.9945187 C37.665775,40.006925 37.6767125,36.01955 37.6627125,32.0319563" id="Path" fill="#FFFFFF"></path>
                            <path d="M5.13736562,0.305528125 C5.76999063,0.028371875 6.46955312,-0.013846875 7.15117812,0.003434375 C21.2060844,0.004965625 35.2609906,0.003434375 49.3158969,0.002559375 C50.8493344,-0.023034375 52.3431781,0.924809375 52.9631156,2.32918438 C53.2245219,2.88284063 53.3354281,3.49730938 53.3244906,4.10784062 C53.3183656,5.47437187 53.3384906,6.84068437 53.3166156,8.20634062 C52.8631469,8.03374688 52.3742406,7.98780937 51.8925531,7.98452812 C35.9894281,7.98780937 20.0865219,7.98605937 4.18339687,7.98693437 C3.67983437,8.00027812 3.16445937,8.02193437 2.68889687,8.20721562 C2.66855312,6.78752812 2.67949062,5.36827812 2.67489687,3.94946563 C2.66549062,2.38474688 3.68442812,0.882590625 5.13736562,0.305528125" id="Shape" fill="#C7C7C7"></path>
                            <path d="M39.9722969,20.0625688 C40.1971719,19.9696 40.4421719,19.9744125 40.6803906,19.9930063 C40.6663906,23.9939438 40.6821406,27.9953188 40.6727344,31.9960375 L40.6718594,32.0319125 C39.6693281,32.0264437 38.6659219,32.0273187 37.6627344,32.0319125 L37.6627344,31.9969125 C37.6612031,29.2306 37.6603281,26.4651625 37.6633906,23.6986313 C35.6631406,24.36385 33.6666094,25.0400063 31.6654844,25.7012875 C31.6593594,24.7980688 31.6700781,23.8946313 31.6600156,22.9914125 C34.4272031,22.0050688 37.2035781,21.043225 39.9722969,20.0625688" id="Path" fill="#C7C7C7"></path>
                            <path d="M15.4946094,21.5000188 C16.7478281,20.545175 18.3162656,20.051675 19.8827344,19.99305 C21.4365156,19.9383625 23.0447656,20.1897063 24.4040781,20.979175 C25.4794531,21.595175 26.3303906,22.5813 26.7941406,23.7290813 C27.2563594,24.8753313 27.4031406,26.14255 27.2627031,27.36755 C26.9619219,29.3297375 25.4466406,30.9148 23.6756406,31.6985813 C23.9287344,31.7751438 24.1754844,31.871175 24.4112969,31.9906125 C24.2557656,32.0203625 24.0989219,32.037425 23.9412031,32.0328313 C21.8519219,32.0179563 19.7624219,32.0468313 17.6744531,32.0186125 C17.6667969,31.5651438 17.6558594,31.1108 17.6847344,30.6577688 C19.1908281,30.6218938 20.7798281,30.8060813 22.1890156,30.145675 C23.3468594,29.6569875 24.2080781,28.549675 24.3714844,27.2997375 C24.5119219,26.1088625 24.3916094,24.8066438 23.6859219,23.7986438 C23.1307344,23.0006438 22.1898906,22.5587688 21.2490469,22.4189875 C19.9794219,22.2418 18.5872969,22.3682375 17.5215469,23.1388938 C16.4722031,23.8767375 15.9170156,25.1789563 15.9434844,26.4431125 C14.9768281,26.468925 14.0095156,26.4492375 13.0422031,26.4525188 C13.0610156,25.9216125 13.1014844,25.387425 13.2397344,24.872925 C13.5722344,23.532425 14.3929844,22.32755 15.4946094,21.5000188" id="Path" fill="#C7C7C7"></path>
                            <path d="M2.688875,8.20712813 C3.1644375,8.02206562 3.6798125,8.00019063 4.183375,7.98684687 C20.0865,7.98619062 35.9894062,7.98772188 51.8925313,7.98444063 C52.3742188,7.98772188 52.863125,8.03387813 53.3165938,8.20625312 C54.691,8.70215938 55.8042188,9.97484688 55.9479375,11.4490031 C55.668375,10.4385969 55.0641875,9.49840937 54.16075,8.94169062 C53.5064688,8.53350312 52.7428125,8.29769062 51.9699687,8.30469062 C36.0160938,8.31562812 20.0613438,8.31562812 4.1068125,8.31562812 C2.90521875,8.29375312 1.69421875,8.81219062 0.928375,9.74756563 C0.5565,10.1450344 0.36225,10.6580031 0.10215625,11.1256906 C0.35984375,9.78125313 1.41159375,8.66081562 2.688875,8.20712813" id="Path" fill="#4483EF"></path>
                            <path d="M40.6725594,31.9961906 C40.6819656,27.9952531 40.6664344,23.9938781 40.6804344,19.9929406 C40.4422156,19.9743469 40.1972156,19.9695344 39.9723406,20.0625031 C37.2036219,21.0431594 34.4272469,22.0052219 31.6600594,22.9913469 C31.6701219,23.8945656 31.6591844,24.7980031 31.6655281,25.7014406 C33.6666531,25.0401594 35.6631844,24.3637844 37.6634344,23.6985656 C37.6603719,26.4650969 37.6610281,29.2305344 37.6627781,31.9968469 L37.6065594,32.0014406 C33.4159656,32.0327219 29.2240594,32.0023156 25.0334656,32.0180656 C24.8265281,32.0132531 24.6079969,32.0773469 24.4113406,31.9907219 C24.1753094,31.8712844 23.9287781,31.7752531 23.6756844,31.6986906 C25.4464656,30.9146906 26.9619656,29.3298469 27.2627469,27.3676594 C27.4031844,26.1426594 27.2564031,24.8754406 26.7941844,23.7291906 C26.3304344,22.5814094 25.4792781,21.5952844 24.4041219,20.9792844 C23.0448094,20.1898156 21.4363406,19.9384719 19.8825594,19.9929406 C18.3163094,20.0515656 16.7476531,20.5450656 15.4946531,21.5001281 C14.3930281,22.3276594 13.5722781,23.5323156 13.2397781,24.8730344 C13.1015281,25.3875344 13.0608406,25.9215031 13.0420281,26.4526281 C14.0095594,26.4493469 14.9768719,26.4688156 15.9435281,26.4432219 C15.9170594,25.1790656 16.4722469,23.8766281 17.5215906,23.1387844 C18.5873406,22.3681281 19.9794656,22.2416906 21.2490906,22.4188781 C22.1899344,22.5586594 23.1307781,23.0005344 23.6859656,23.7985344 C24.3916531,24.8065344 24.5119656,26.1089719 24.3713094,27.2996281 C24.2081219,28.5497844 23.3469031,29.6568781 22.1890594,30.1457844 C20.7798719,30.8061906 19.1908719,30.6220031 17.6847781,30.6578781 L17.6473719,30.6585344 C17.6629031,31.1122219 17.6449656,31.5667844 17.6574344,32.0211281 C12.6587781,32.0132531 7.65946562,32.0117219 2.66015312,32.0217844 C1.80746562,25.6607531 0.941653125,19.3012531 0.084371875,12.9410969 C-0.014284375,12.3412844 -0.047753125,11.7191594 0.102309375,11.1256906 C0.362184375,10.6580031 0.556653125,10.1450344 0.928309375,9.74756563 C1.69415312,8.81219063 2.90515312,8.29375313 4.10674687,8.31562813 C20.0614969,8.31562813 36.0160281,8.31562813 51.9699031,8.30469063 C52.7427469,8.29769063 53.5064031,8.53350313 54.1606844,8.94169063 C55.0641219,9.49840938 55.6685281,10.4385969 55.9480906,11.4490031 C56.0253094,11.8057844 56.0040906,12.1759094 55.9636219,12.5366281 C55.0969344,19.0289094 54.1983094,25.5170344 53.3432156,32.0108469 C49.7369031,32.0047219 46.1303719,32.0141281 42.5247156,32.0101906 C41.9240088,32.0053832 41.3226471,32.032664 40.7230292,32.0002315 C41.1633911,32.0530584 41.6078883,32.021004 42.0506406,32.0258094 C45.8087656,32.0234031 49.5673281,32.0188094 53.3252344,32.0258094 C53.7594531,38.3102781 54.1676406,44.5964969 54.5972656,50.8809656 C54.6392656,51.5993406 54.7307031,52.3371844 54.5316406,53.0415594 L54.5137031,53.0640906 C54.3292969,53.2710281 54.2232031,53.5287156 54.0912969,53.7691219 C53.3862656,54.9199656 52.0759531,55.6945594 50.7175156,55.6814344 C35.7254844,55.6726844 20.7345469,55.6882156 5.74339062,55.6827469 C5.27329687,55.6827469 4.79401562,55.7070281 4.33551562,55.5836531 C3.29951562,55.3010281 2.36020312,54.6224656 1.83870312,53.6739656 C1.72932812,53.4661531 1.62782812,53.2530906 1.48170312,53.0686844 L1.46310937,53.0428719 C1.21242187,52.1013719 1.41629687,51.1253094 1.44757812,50.1713406 C1.85970312,44.1264031 2.25235937,38.0792781 2.67017187,32.0343406 C7.66642187,32.0218719 12.6635469,32.0273406 17.6595781,32.0312781 C17.6643906,32.3184969 17.6667969,32.6059344 17.6628594,32.8931531 C19.2461719,32.9235594 20.9032031,32.7339031 22.4029531,33.3608406 C23.4155469,33.7561219 24.2472344,34.6024656 24.5674844,35.6478719 C24.9203281,36.8048406 24.8796406,38.0854031 24.4651094,39.2215906 C24.0785781,40.2864656 23.1526094,41.1094031 22.0711094,41.4272469 C20.7579531,41.8159656 19.2953906,41.7824969 18.0305781,41.2397781 C17.0459844,40.8191219 16.2425156,39.9710281 15.9388906,38.9374344 C15.7945156,38.4819969 15.7382969,38.0033719 15.7295469,37.5280281 C14.7722969,37.5341531 13.8150469,37.5319656 12.8577969,37.5289031 C12.8757344,38.7396844 13.1695156,39.9694969 13.8454531,40.9860281 C14.5662344,42.0979344 15.6842656,42.9099344 16.9094844,43.3861531 C18.4623906,43.9920906 20.1784844,44.1272781 21.8204219,43.8757156 C23.4172969,43.6228406 24.9811406,42.9075281 26.0657031,41.6840594 C27.0618906,40.5784969 27.5772656,39.0997469 27.6450781,37.6249344 C27.7365156,36.2170594 27.4125469,34.7383094 26.5185156,33.6200594 C26.0158281,32.9581219 25.3245781,32.4801531 24.6188906,32.0601531 C24.9623281,32.0172781 25.3090469,32.0264656 25.6548906,32.0282156 C29.1951406,32.0249344 32.7351719,32.0288719 36.2752031,32.0264656 C36.7186094,32.0172781 37.1644219,32.0538094 37.6065156,32.0015281 L37.6627344,31.9969344 L37.6627344,32.0319344 C37.6767344,36.0195281 37.6657969,40.0069031 37.6682031,43.9944969 C38.6683281,43.9960281 39.6677969,43.9953719 40.6672656,43.9953719 C40.6694531,40.0077781 40.6593906,36.0195281 40.6718594,32.0319344 L40.6727308,31.9962045 Z" id="Combined-Shape" fill="#4483EF"></path>
                            <path d="M1.48179062,53.0687062 C1.62769687,53.2531125 1.72941562,53.466175 1.83857187,53.6739875 C2.36029062,54.6224875 3.29960312,55.30105 4.33560312,55.583675 C4.79388437,55.70705 5.27338437,55.6827688 5.74325937,55.6827688 C20.7344156,55.6882375 35.7255719,55.6727062 50.7173844,55.6812375 C52.0760406,55.6945812 53.3861344,54.9199875 54.0911656,53.7691437 C54.2232906,53.5287375 54.3293844,53.27105 54.5135719,53.0641125 C54.1826031,54.3453313 53.1520719,55.408675 51.8918531,55.8037375 C51.1890094,56.049175 50.4356344,55.9872687 49.7056656,55.9951437 C35.1041031,55.9951437 20.5025406,55.9944875 5.90119687,55.9944875 C5.31866562,55.9990812 4.72279062,56.00455 4.16213437,55.82255 C2.87697812,55.4414875 1.82063437,54.3678625 1.48179062,53.0687062" id="Path" fill="#3664D0"></path>
                        </g>
                    </g>
                </g>
            </g>
        </g>
    </g>
</svg>