<?xml version="1.0" encoding="UTF-8"?>
<svg width="64px" height="64px" viewBox="0 0 64 64" version="1.1" xmlns="http://www.w3.org/2000/svg" xmlns:xlink="http://www.w3.org/1999/xlink">
    <g id="Page-1" stroke="none" stroke-width="1" fill="none" fill-rule="evenodd">
        <g id="timetracker-integrations" transform="translate(-1357.000000, -283.000000)" fill="#191717">
            <g id="Block/integrations" transform="translate(-1.000000, 1.000000)">
                <g id="Block/tracker-dropdiwn" transform="translate(1338.000000, 264.000000)">
                    <g id="Logo/tracker/github" transform="translate(20.000000, 18.000000)">
                        <g id="github-fb72e2a00110c7dc2af50410d340d0233ae1de0cc8f31f127472e67a41662a6b">
                            <path d="M31.8891216,1.13306838 C14.8949718,1.13306838 1.11430897,14.9137312 1.11430897,31.9116329 C1.11430897,45.5084535 9.93123183,57.0398631 22.1604914,61.112531 C23.700639,61.3939222 24.2615454,60.444696 24.2615454,59.6286617 C24.2615454,58.8970447 24.2334063,56.9610735 24.2221506,54.3929103 C15.6603557,56.2538438 13.8538245,50.2677159 13.8538245,50.2677159 C12.4524966,46.7109317 10.43586,45.7654574 10.43586,45.7654574 C7.64070783,43.8557495 10.6478413,43.8932683 10.6478413,43.8932683 C13.7356402,44.1108775 15.3620811,47.0654846 15.3620811,47.0654846 C18.1084588,51.7665928 22.5638187,50.4084115 24.3196996,49.6205163 C24.5973388,47.6301428 25.3946138,46.2757134 26.2744301,45.5084535 C19.4403769,44.729938 12.2555228,42.0923649 12.2555228,30.2964477 C12.2555228,26.9366373 13.456125,24.1883837 15.4239872,22.0385553 C15.1069531,21.2581638 14.0526743,18.1309701 15.7260137,13.8913434 C15.7260137,13.8913434 18.3091845,13.0659293 24.1883837,17.0485521 C26.6995725,16.3645604 29.2902032,16.0157368 31.8928735,16.0111567 C34.5079353,16.0242883 37.1417565,16.3657096 39.5954874,17.0485521 C45.4728106,13.0659293 48.0503536,13.8913434 48.0503536,13.8913434 C49.7311968,18.1290941 48.675042,21.2581638 48.358008,22.0385553 C50.329622,24.1883837 51.5227205,26.9366373 51.5227205,30.2964477 C51.5227205,42.1186281 44.3266107,44.7205583 37.4681703,45.4840663 C38.5768514,46.4332925 39.5560926,48.3148613 39.5560926,51.1831752 C39.5560926,55.2971138 39.5185738,58.6156535 39.5185738,59.6267857 C39.5185738,60.4484479 40.0719764,61.4051778 41.6346353,61.1050273 C53.8545152,57.0323593 62.6639343,45.5047016 62.6639343,31.9116329 C62.6658102,14.9137312 48.8851474,1.13306838 31.8891216,1.13306838 Z" id="Path"></path>
                        </g>
                    </g>
                </g>
            </g>
        </g>
    </g>
</svg>