<?xml version="1.0" encoding="UTF-8"?>
<svg width="64px" height="64px" viewBox="0 0 64 64" version="1.1" xmlns="http://www.w3.org/2000/svg" xmlns:xlink="http://www.w3.org/1999/xlink">
    <g id="Page-1" stroke="none" stroke-width="1" fill="none" fill-rule="evenodd">
        <g id="0004.-Landing--Integration-Desktop-#01" transform="translate(-993.000000, -2668.000000)">
            <g id="Block/integrations" transform="translate(-1.000000, 1960.000000)">
                <g id="Block/tracker-dropdiwn" transform="translate(974.000000, 688.000000)">
                    <g id="Logo/tracker/gitlab" transform="translate(20.000000, 20.000000)">
                        <g id="Group" transform="translate(0.000000, 2.000000)">
                            <path d="M62.4356199,33.239457 C62.7552918,34.222226 62.4068433,35.2991212 61.5720543,35.9083439 L31.2760181,57.9179729 L0.983457014,35.9083439 C0.147960297,35.3020082 -0.201500045,34.2262598 0.118153846,33.2446697 L3.61759276,22.471819 L10.5539186,1.12246154 C10.9101176,0.0243257919 12.4652308,0.0243257919 12.8231674,1.12246154 L19.7560181,22.471819 L42.7960181,22.471819 L49.7323439,1.12072398 C50.088543,0.0225882353 51.6436561,0.0225882353 52.0015928,1.12072398 L58.9344434,22.4700814 L62.4373575,33.2411946" id="Path" fill="#F36E2C"></path>
                            <polygon id="Path" fill="#E2452A" points="31.2760181 57.9179729 19.7594932 22.4700814 42.7960181 22.4700814 31.2760181 57.9162353"></polygon>
                            <polygon id="Path" fill="#F36E2C" points="31.2760181 57.9162353 3.61759276 22.4700814 19.7594932 22.4700814 31.2777557 57.9162353"></polygon>
                            <path d="M3.61759276,22.4700814 L31.2794932,57.9162353 L0.983457014,35.9066063 C0.147319855,35.3007366 -0.202871235,34.224899 0.11641629,33.2429321 L3.61759276,22.4700814 L3.61759276,22.4700814 Z" id="Path" fill="#FAA328"></path>
                            <path d="M3.61933032,22.4683439 L10.5591312,1.11898643 C10.9135928,0.0208506787 12.4669683,0.0208506787 12.8266425,1.11898643 L19.7629683,22.4683439 L3.61933032,22.4683439 Z" id="Path" fill="#E2452A"></path>
                            <polygon id="Path" fill="#F36E2C" points="31.2760181 57.9162353 58.9344434 22.4700814 42.792543 22.4700814 31.2777557 57.9162353"></polygon>
                            <path d="M58.936181,22.4700814 L31.2760181,57.9162353 L61.5685792,35.9066063 C62.4008688,35.2984615 62.7553303,34.2211765 62.4338824,33.2429321 L58.9344434,22.4700814 L58.936181,22.4700814 Z" id="Path" fill="#FAA328"></path>
                            <path d="M58.9379186,22.4683439 L52.0015928,1.11898643 C51.6419186,0.0208506787 50.0868054,0.0208506787 49.7306063,1.11898643 L42.7942805,22.4683439 L58.9379186,22.4683439 Z" id="Path" fill="#E2452A"></path>
                        </g>
                    </g>
                </g>
            </g>
        </g>
    </g>
</svg>