<?xml version="1.0" encoding="UTF-8"?>
<svg width="64px" height="64px" viewBox="0 0 64 64" version="1.1" xmlns="http://www.w3.org/2000/svg" xmlns:xlink="http://www.w3.org/1999/xlink">
    <g id="Page-1" stroke="none" stroke-width="1" fill="none" fill-rule="evenodd">
        <g id="0004.-Landing--Integration-Desktop-#01" transform="translate(-629.000000, -2880.000000)">
            <g id="Block/integrations" transform="translate(-1.000000, 1960.000000)">
                <g id="Block/tracker-dropdiwn" transform="translate(610.000000, 900.000000)">
                    <g id="Logo/tracker/insighty" transform="translate(20.000000, 20.000000)">
                        <path d="M8,0 L56,0 C60.418278,0 64,3.581722 64,8 L64,56 C64,60.418278 60.418278,64 56,64 L8,64 C3.581722,64 0,60.418278 0,56 L0,8 C0,3.581722 3.581722,0 8,0 Z" id="Path" fill="#FE4E02"></path>
                        <g id="Group-7" transform="translate(8.000000, 6.000000)">
                            <g id="Group-3" transform="translate(0.000000, 14.836462)">
                                <mask id="mask-2" fill="white">
                                    <use xlink:href="#path-1"></use>
                                </mask>
                                <g id="Clip-2"></g>
                                <path d="M26.1399219,8.56110754 C27.2240365,7.16625327 28.1086719,5.7434392 29.272474,4.60884623 C30.4995573,3.41232362 31.8745573,2.25029347 33.3933073,1.49642412 C37.397474,-0.490028141 41.1177865,1.38092663 41.6847135,5.7915196 C42.0242969,8.4314995 41.7641406,11.1655497 41.6123177,13.8478613 C41.4620573,16.496203 41.0414844,19.1283437 40.8711719,21.7759015 C40.7740365,23.2878211 40.9279427,24.8172482 40.9966927,26.3372683 C41.014401,26.7237407 41.1091927,27.1141327 41.2198698,27.4875397 C41.5279427,28.5262332 41.9664844,29.5061327 43.2076302,29.6294693 C44.3685677,29.7447055 45.0201302,28.9733286 45.5308073,28.053791 C45.8688281,27.445992 46.1146615,26.7490874 46.5774219,26.259399 C46.980026,25.8334693 47.664401,25.3623337 48.1597135,25.4247859 C48.6638802,25.4885447 49.216224,26.1062734 49.5115365,26.6181729 C49.770651,27.0673588 49.8477344,27.7313387 49.7576302,28.2581327 C48.438099,35.9823538 41.4472135,39.0754392 35.505026,35.827399 C32.753724,34.3235799 31.7157031,31.6454492 31.2776823,28.6895497 C30.8310677,25.6740724 31.3464323,22.6990975 31.6763802,19.7160221 C31.863099,18.0292884 32.0654427,16.3425548 32.1792448,14.6500724 C32.2339323,13.8337508 32.230026,12.966997 32.0084115,12.1935296 C31.8503385,11.6426955 31.3591927,10.9295899 30.8802865,10.8012884 C30.3933073,10.6708965 29.5117969,11.0014492 29.203724,11.4242432 C28.4477344,12.4616302 27.6933073,13.6032784 27.3513802,14.8196603 C26.6242969,17.4073789 25.9920052,20.0460523 25.6328906,22.7064141 C25.2498177,25.5449869 25.1865365,28.430595 25.058151,31.2992181 C24.9396615,33.9509568 23.8828906,35.5344744 21.369349,36.370394 C20.3907031,36.6957206 19.3490365,36.8812482 18.3214323,36.9964844 C15.9547656,37.2619719 15.7948698,37.1441226 14.7886198,35.050796 C14.4933073,35.210193 14.1964323,35.3614894 13.9078906,35.5276804 C8.63341146,38.5648462 2.63315104,36.279198 0.815182292,30.4904744 C0.439921875,29.2957809 0.143307292,28.0315799 0.0896614583,26.7872382 C-0.188984375,20.3308764 0.171953125,13.9016905 1.30658854,7.53521809 C1.96101562,3.86307739 4.56466146,1.88577085 7.80815104,0.720866332 C10.0211719,-0.0740281407 11.7732552,1.31873568 11.5979948,3.70054472 C11.4261198,6.03767035 10.9688281,8.35389146 10.6253385,10.6776905 C9.92169271,15.4368663 9.73471354,20.2140724 10.2047656,25.0040824 C10.3055469,26.0331075 10.5120573,27.084605 10.8742969,28.0480422 C11.4776823,29.6532482 12.986276,29.8487055 13.963099,28.4671779 C14.8946094,27.1499317 15.6117969,25.7435799 15.6297656,24.0281025 C15.675599,19.6305749 15.7735156,15.2330472 15.919349,10.8378714 C15.9696094,9.32150955 16.1722135,7.80436382 16.3977344,6.30158995 C16.591224,5.01047437 17.2779427,3.94800201 18.2513802,3.08464523 C19.8078906,1.70390151 21.5933073,0.744906533 23.614401,0.261228141 C25.3477344,-0.153465327 26.6555469,0.15200201 27.0401823,1.2717005 C27.3339323,2.12721809 27.3555469,3.14997186 27.228724,4.06062513 C27.0560677,5.30156985 26.6242969,6.50619296 26.3091927,7.72806231 C26.2466927,7.97029347 26.2086719,8.21905729 26.1399219,8.56110754" id="Fill-1" fill="#FFFFFF" mask="url(#mask-2)"></path>
                            </g>
                            <g id="Group-6" transform="translate(3.385417, 0.203296)">
                                <mask id="mask-4" fill="white">
                                    <use xlink:href="#path-3"></use>
                                </mask>
                                <g id="Clip-5"></g>
                                <path d="M0.05171875,7.10591759 C0.00692708333,2.1742794 4.84260417,-0.363007035 8.09807292,0.11518392 C10.3498958,0.44599799 11.6525,1.74416884 11.6873958,4.00838995 C11.7324479,6.9185608 10.8350521,9.48328442 8.555625,11.4281889 C7.32463542,12.4786412 5.91109375,13.0707618 4.27463542,13.0289528 C2.28713542,12.9785206 1.02723958,12.0007116 0.5446875,10.0482291 C0.306666667,9.08583719 0.211614583,8.08790754 0.05171875,7.10591759" id="Fill-4" fill="#FFFFFF" mask="url(#mask-4)"></path>
                            </g>
                        </g>
                    </g>
                </g>
            </g>
        </g>
    </g>
</svg>