<?xml version="1.0" encoding="UTF-8"?>
<svg width="64px" height="64px" viewBox="0 0 64 64" version="1.1" xmlns="http://www.w3.org/2000/svg" xmlns:xlink="http://www.w3.org/1999/xlink">
    <g id="Page-1" stroke="none" stroke-width="1" fill="none" fill-rule="evenodd">
        <g id="0004.-Landing--Integration-Desktop-#01" transform="translate(-265.000000, -2244.000000)">
            <g id="Block/integrations" transform="translate(-1.000000, 1960.000000)">
                <g id="Block/tracker-dropdiwn" transform="translate(246.000000, 264.000000)">
                    <g id="Logo/tracker/jira" transform="translate(20.000000, 20.000000)">
                        <g id="jira-624d94b0bcbb4a9d7916837fd4389132bf7c333cb326d26479e242b03d3e3d2c">
                            <path d="M60.5877073,30.844878 L33.7201951,3.97736585 L31.1164878,1.37365854 L10.8909268,21.5976585 L1.64370732,30.844878 C0.67902439,31.811122 0.67902439,33.3736585 1.64370732,34.3399024 L20.1225366,52.8187317 L31.1164878,63.8126829 L51.3420488,43.5886829 L51.6542439,43.2749268 L60.5892683,34.3399024 C61.5539512,33.3736585 61.5539512,31.811122 60.5877073,30.844878 Z M31.1164878,41.8232195 L21.886439,32.5931707 L31.1164878,23.363122 L40.3465366,32.5931707 L31.1164878,41.8232195 Z" id="Shape" fill="#2684FF" fill-rule="nonzero"></path>
                            <path d="M31.1164878,23.363122 C25.0723902,17.3174634 25.0427317,7.52858537 31.0509268,1.44702439 L10.8487805,21.6398049 L21.8442927,32.6337561 L31.1164878,23.363122 Z" id="Path" fill="url(#linearGradient-1)"></path>
                            <path d="M40.3715122,32.5681951 L31.1149268,41.8232195 C37.187122,47.8922927 37.1918049,57.7342439 31.1211707,63.806439 C31.1196098,63.808 31.1164878,63.811122 31.1149268,63.8126829 L51.3654634,43.5621463 L40.3715122,32.5681951 Z" id="Path" fill="url(#linearGradient-2)"></path>
                        </g>
                    </g>
                </g>
            </g>
        </g>
    </g>
</svg>