<?xml version="1.0" encoding="UTF-8"?>
<svg width="64px" height="64px" viewBox="0 0 64 64" version="1.1" xmlns="http://www.w3.org/2000/svg" xmlns:xlink="http://www.w3.org/1999/xlink">
    <g id="Page-1" stroke="none" stroke-width="1" fill="none" fill-rule="evenodd">
        <g id="0004.-Landing--Integration-Desktop-#01" transform="translate(-993.000000, -2880.000000)" fill="#000000" fill-rule="nonzero">
            <g id="Block/integrations" transform="translate(-1.000000, 1960.000000)">
                <g id="Block/tracker-dropdiwn" transform="translate(974.000000, 900.000000)">
                    <g id="Logo/tracker/liquidplanner" transform="translate(20.000000, 20.000000)">
                        <g id="Shape-2" transform="translate(10.000000, 8.000000)">
                            <path d="M1.31579396,37.7161294 C-0.369555812,39.2973847 -0.445899728,41.9377936 1.14459852,43.6133492 C2.73509676,45.2877548 5.38978292,45.3659551 7.0751327,43.7846998 C8.3209266,42.6116958 12.8980914,39.0443838 19.4150856,42.2517446 C29.8059553,47.3704118 36.0522756,47.2577114 42.4605377,41.8446432 C44.2245448,40.3519382 44.4396958,37.7207294 42.9382655,35.9646735 C41.4403053,34.2120676 38.7960297,33.9970169 37.0331793,35.4874219 C37.0308658,35.4874219 37.0297091,35.4897219 37.0297091,35.4897219 C34.5693529,37.5666289 32.4444473,39.3606349 23.1374299,34.7813195 C14.098773,30.3308045 5.9403845,33.3817648 1.31579396,37.7161294 M1.31579396,21.2779741 C-0.368399086,22.8592294 -0.445899728,25.4984883 1.14459852,27.1728939 C2.73509676,28.8472996 5.38978292,28.9243498 7.07397598,27.3419445 L7.07397598,27.3419445 C8.31976987,26.1712406 12.8969346,22.6062286 19.4139289,25.8124394 C29.8047985,30.9299566 36.0511189,30.8172562 42.4593809,25.404188 C44.1921565,23.8758329 44.3529414,21.241174 42.8168093,19.5173182 C41.3246327,17.8440626 38.7717385,17.6382119 37.0285524,19.0504166 C34.5681962,21.1284736 32.4432905,22.9213296 23.1362732,18.3397142 C14.098773,13.8926493 5.9403845,16.9447596 1.31579396,21.2779741 M1.31579396,5.12041982 C-0.36724236,6.70167513 -0.443586276,9.339784 1.14459852,11.0153396 C2.73509676,12.6885953 5.38746947,12.7656455 7.07397598,11.1878402 C8.31976987,10.0136863 12.8969346,6.44407427 19.4139289,9.65373505 C29.8047985,14.7724023 36.0511189,14.6597019 42.4593809,9.24548368 C44.253463,7.78842879 44.5183532,5.16181996 43.0550948,3.37816396 C41.589523,1.59450797 38.9475608,1.33000708 37.1523221,2.78591197 C37.1118367,2.81926209 37.0713512,2.85491221 37.0297091,2.88941232 C34.5705096,4.9651693 32.4444473,6.76492535 23.1374299,2.17755993 C14.098773,-2.263755 5.9403845,0.782605242 1.31579396,5.12041982" id="Shape"></path>
                        </g>
                    </g>
                </g>
            </g>
        </g>
    </g>
</svg>