<?xml version="1.0" encoding="UTF-8"?>
<svg width="63px" height="63px" viewBox="0 0 63 63" version="1.1" xmlns="http://www.w3.org/2000/svg" xmlns:xlink="http://www.w3.org/1999/xlink">
    <g id="Page-1" stroke="none" stroke-width="1" fill="none" fill-rule="evenodd">
        <g id="0004.-Landing--Integration-Desktop-#01" transform="translate(-625.000000, -3303.000000)" fill="#A24689">
            <g id="Odoo_logo_rgb" transform="translate(624.000000, 3302.000000)">
                <g transform="translate(1.000000, 1.000000)" id="Shape">
                    <path d="M31.6303414,0 C35.8810227,0 39.8953684,0.846279934 43.67086,2.53800024 C47.445512,4.23014033 50.7642841,6.50829569 53.6284357,9.37162675 C56.4917477,12.2353776 58.7698879,15.57684 60.4620167,19.3943349 C62.1541455,23.2143485 63,27.2916883 63,31.6297125 C63,35.9702555 62.1742949,40.0257666 60.5270824,43.8004438 C58.8773513,47.5751209 56.6424483,50.8943349 53.8232131,53.7580858 C51.0022988,56.6214169 47.6831069,58.8790029 43.8656374,60.5266461 C40.0460691,62.1763883 35.9255192,63 31.4997901,63 C27.1596959,63 23.0819635,62.219206 19.264494,60.6571983 C15.4449257,59.0947707 12.1055844,56.9047695 9.24185262,54.0838364 C6.37854064,51.2645824 4.12096962,47.9457882 2.47333738,44.1257746 C0.824026013,40.3082797 0,36.1427858 0,31.6297125 C0,27.2916883 0.801357951,23.2340783 2.40785186,19.4594011 C4.01266666,15.6847239 6.24756961,12.3877584 9.11172116,9.56724503 C11.9750331,6.74799104 15.3370425,4.49040499 19.1994283,2.79868468 C23.0597152,1.1065446 27.2046122,0.174629193 31.6303414,0 Z M31.5002099,12.8860393 C28.9823759,12.8860393 26.5745241,13.3641706 24.2762345,14.3179147 C21.9762658,15.2737576 19.9810566,16.59607 18.2885081,18.2882101 C16.5963792,19.9799304 15.2501483,21.9550034 14.2535931,24.2104905 C13.2549391,26.4680766 12.7566615,28.9414305 12.7566615,31.6297125 C12.7566615,34.1475633 13.2553588,36.555851 14.2535931,38.8541558 C15.2501483,41.1541398 16.5963792,43.1720305 18.2885081,44.9069884 C19.9806369,46.6436253 21.9758461,48.0104346 24.2762345,49.0069964 C26.5745241,50.0056571 28.9823759,50.503938 31.5002099,50.503938 C34.0159449,50.503938 36.4242166,50.0052373 38.724605,49.0069964 C41.0228946,48.0104346 43.0197829,46.6436253 44.7123315,44.9069884 C46.4044603,43.1720305 47.7485924,41.1545596 48.7472465,38.8541558 C49.7438016,36.555851 50.2437583,34.1475633 50.2437583,31.6297125 C49.9834954,26.5108943 48.1612351,22.1930196 44.7773972,18.6781873 C41.3927198,15.1637748 37.0098082,13.2336185 31.6307611,12.8856195 L31.5002099,12.8856195 L31.5002099,12.8860393 Z" fill-rule="nonzero"></path>
                </g>
            </g>
        </g>
    </g>
</svg>