<?xml version="1.0" encoding="UTF-8"?>
<svg width="64px" height="64px" viewBox="0 0 64 64" version="1.1" xmlns="http://www.w3.org/2000/svg" xmlns:xlink="http://www.w3.org/1999/xlink">
    <g id="Page-1" stroke="none" stroke-width="1" fill="none" fill-rule="evenodd">
        <g id="timetracker-integrations" transform="translate(-993.000000, -1557.000000)" fill="#0072C6" fill-rule="nonzero">
            <g id="Block/tracker-dropdiwn" transform="translate(973.000000, 1537.000000)">
                <g id="Logo/tracker/wunderlist" transform="translate(20.000000, 20.000000)">
                    <g id="Outlook.com_icon" transform="translate(2.000000, 0.000000)">
                        <path d="M37.679156,14.4815181 L37.679156,26.246144 L41.7153028,28.8349042 C41.8217508,28.8665294 42.0523874,28.8687896 42.1588353,28.8349042 L59.5297868,16.9053746 C59.5297868,15.4935288 58.2368887,14.4815181 57.5072808,14.4815181 L37.679156,14.4815181 Z" id="path3"></path>
                        <path d="M37.679156,30.6352894 L41.3626942,33.2127545 C41.8816274,33.6012944 42.5070085,33.2127545 42.5070085,33.2127545 C41.8838451,33.6012944 59.5320057,21.6604702 59.5320057,21.6604702 L59.5320057,43.283166 C59.5320057,45.6369949 58.0528245,46.6241568 56.3895787,46.6241568 L37.6769383,46.6241568 L37.6769383,30.6352894 L37.679156,30.6352894 Z" id="path5"></path>
                        <g id="g23" transform="translate(0.154081, 0.457940)">
                            <path d="M18.4531734,24.7536044 C17.1979761,24.7536044 16.1978101,25.3544858 15.4593284,26.5539897 C14.7208466,27.7534937 14.3504969,29.3415375 14.3504969,31.3181211 C14.3504969,33.3240712 14.7208466,34.909856 15.4593284,36.0754756 C16.1978101,37.2433542 17.1669288,37.8239051 18.3644668,37.8239051 C19.5997051,37.8239051 20.5799121,37.2569079 21.3028702,36.1229136 C22.0258284,34.9889194 22.3895251,33.4144293 22.3895251,31.4017024 C22.3895251,29.3031353 22.0391343,27.6699124 21.3361352,26.5020338 C20.633136,25.3364142 19.672888,24.7536044 18.4531734,24.7536044 Z" id="path25"></path>
                            <path d="M0.977989358,8.0486487 L0.977989358,54.0748113 L35.351765,61.4164077 L35.351765,1.27179041 L0.977989358,8.0486487 Z M23.9795894,38.8426928 C22.5270202,40.7899101 20.633136,41.7657777 18.2957193,41.7657777 C16.0181794,41.7657777 14.1642132,40.8215354 12.7293853,38.9353098 C11.296775,37.0468253 10.5782522,34.5890847 10.5782522,31.5575701 C10.5782522,28.356634 11.3056457,25.7678742 12.7626502,23.7912905 C14.2196548,21.8147068 16.1490216,20.8252855 18.5507505,20.8252855 C20.8194197,20.8252855 22.6556446,21.7695278 24.0549899,23.6625302 C25.4565529,25.5555326 26.1573344,28.0494165 26.1573344,31.1464407 C26.1595521,34.3293052 25.4321586,36.8954755 23.9795894,38.8426928 Z" id="path27"></path>
                        </g>
                    </g>
                </g>
            </g>
        </g>
    </g>
</svg>