<?xml version="1.0" encoding="UTF-8"?>
<svg width="64px" height="64px" viewBox="0 0 64 64" version="1.1" xmlns="http://www.w3.org/2000/svg" xmlns:xlink="http://www.w3.org/1999/xlink">
    <g id="Page-1" stroke="none" stroke-width="1" fill="none" fill-rule="evenodd">
        <g id="0004.-Landing--Integration-Desktop-#01" transform="translate(-265.000000, -3304.000000)" fill-rule="nonzero">
            <g id="Block/integrations" transform="translate(-1.000000, 1960.000000)">
                <g id="Block/tracker-dropdiwn" transform="translate(246.000000, 1324.000000)">
                    <g id="Logo/tracker/pivotal" transform="translate(20.000000, 20.000000)">
                        <g id="Group">
                            <path d="M22.8111515,14.2215758 L29.7386667,26.2225455 C30.8703058,25.9205438 32.0722282,26.0276866 33.1326061,26.5250909 L36.7747879,20.2162424 L30.6870303,9.67369697 L22.7393939,14.262303 L22.8111515,14.2215758 L22.8111515,14.2215758 Z M12.3655758,29.7444848 L26.2264242,29.7444848 C26.3369697,29.3333333 26.496,28.9260606 26.7190303,28.5401212 C27.0840519,27.9098119 27.5832885,27.3675376 28.1813333,26.9517576 L24.5391515,20.6448485 L12.3636364,20.6448485 L12.3636364,29.8220606 L12.3655758,29.8220606 L12.3655758,29.7444848 Z M35.337697,33.5166061 C34.9733353,34.1451086 34.475484,34.6859922 33.8792727,35.1010909 L37.5233939,41.4118788 L49.6969697,41.4118788 L49.6969697,32.3141818 L35.8322424,32.3141818 C35.7193009,32.7344245 35.5531056,33.1385071 35.337697,33.5166061 L35.337697,33.5166061 Z M34.5425455,27.5122424 C35.382303,28.3500606 35.8826667,29.449697 35.9835152,30.601697 L43.264,30.601697 L49.353697,20.0591515 L41.4758788,15.5093333 L34.5425455,27.5122424 Z M20.5847273,46.5532121 L27.5180606,34.5444848 C26.6921474,33.7173627 26.1822672,32.6269191 26.0770909,31.4627879 L18.7907879,31.4627879 L12.7030303,41.9975758 L20.6487273,46.5900606 L20.5847273,46.5532121 L20.5847273,46.5532121 Z M39.2494545,47.8351515 L32.3219394,35.8341818 C31.1907788,36.139674 29.9878565,36.0331294 28.928,35.5335758 L25.2858182,41.8443636 L31.369697,52.3830303 L39.3173333,47.7963636 L39.2494545,47.8351515 L39.2494545,47.8351515 Z" id="Shape" fill="#EC7D1A"></path>
                            <path d="M31.0322424,6.28169697 C44.6991515,6.28169697 55.7769697,17.3575758 55.7769697,31.0264242 C55.7769697,44.6972121 44.6991515,55.7808485 31.0322424,55.7808485 C17.3633939,55.7808485 6.28363636,44.6972121 6.28363636,31.0264242 C6.28363636,17.3595152 17.3633939,6.28169697 31.0322424,6.28169697 L31.0322424,6.28169697 Z M31.0322424,-8.93561319e-15 C13.9209697,-1.0658141e-14 0,13.9190303 0,31.0264242 C0,48.1396364 13.9209697,62.0625455 31.0322424,62.0625455 C48.1415758,62.0625455 62.0606061,48.1396364 62.0606061,31.0264242 C62.0606061,13.9190303 48.1415758,-1.0658141e-14 31.0322424,-8.93561319e-15 Z" id="Shape" fill="#5283B0"></path>
                        </g>
                    </g>
                </g>
            </g>
        </g>
    </g>
</svg>