<?xml version="1.0" encoding="UTF-8"?>
<svg width="64px" height="64px" viewBox="0 0 64 64" version="1.1" xmlns="http://www.w3.org/2000/svg" xmlns:xlink="http://www.w3.org/1999/xlink">
    <g id="Page-1" stroke="none" stroke-width="1" fill="none" fill-rule="evenodd">
        <g id="timetracker-integrations" transform="translate(-265.000000, -921.000000)" fill="#5088AC" fill-rule="nonzero">
            <g id="Block/integrations" transform="translate(-1.000000, 1.000000)">
                <g id="Block/tracker-dropdiwn" transform="translate(246.000000, 900.000000)">
                    <g id="Logo/tracker/google-calendar" transform="translate(20.000000, 20.000000)">
                        <g id="podio" transform="translate(6.000000, 0.000000)">
                            <path d="M46.3583672,7.95374257 C35.80875,-2.60942574 18.6664922,-2.65209241 8.06266406,7.83207921 L7.93821094,7.95606601 C-2.64874219,18.5631683 -2.64536719,35.8182442 7.94453906,46.4213333 L24.3016875,62.7975182 C24.9865081,63.484984 25.9168159,63.8706374 26.8865156,63.8690429 C27.8216016,63.8690429 28.7594297,63.5129241 29.4730313,62.7975182 C30.8991797,61.3675512 30.8991797,59.0487657 29.4730313,57.6194323 L13.1133516,41.241769 C5.39810156,33.5174125 5.37342187,20.9590495 13.0416328,13.202165 L13.1163047,13.1288713 C20.8572891,5.38233663 33.4504688,5.38466007 41.1866016,13.1314059 C47.5391953,19.4929637 48.4508672,30.3795116 43.3031484,38.4576634 C42.2174531,40.1609505 42.7175859,42.4248185 44.4185859,43.5121848 C46.1235938,44.6029307 48.3814688,44.099802 49.4663203,42.3971485 C56.5304063,31.3135314 55.2228047,16.8294653 46.3583672,7.95374257 M39.8123437,47.2611485 C41.2393359,48.6911155 41.2410234,51.0101122 39.8123437,52.4381782 C39.1291097,53.1270827 38.1992243,53.5139406 37.229625,53.5126601 C36.2585614,53.5138379 35.3269711,53.1279021 34.6405781,52.4400792 L18.2840625,36.0638944 C13.3976953,31.1694785 13.3976953,23.2041188 18.2840625,18.3086469 C20.6518359,15.9400132 23.7994453,14.6342442 27.1476563,14.6342442 L27.1512422,14.6342442 C30.4988203,14.6342442 33.6468516,15.941703 36.0129375,18.3141386 C39.27335,21.5763374 40.4818039,26.367652 39.1592812,30.7888581 C38.5779375,32.7263894 36.5447109,33.8295974 34.6089375,33.2495842 C32.6737969,32.6718944 31.5722812,30.6314983 32.1487734,28.6926997 C32.7024408,26.8499858 32.2000093,24.8516771 30.8409609,23.4911683 C29.8544062,22.5020198 28.5449062,21.957703 27.1495547,21.9570693 L27.1474453,21.9570693 C25.7518828,21.9570693 24.4423828,22.5007525 23.4551953,23.4875776 C21.4188047,25.5267063 21.4188047,28.8456238 23.4551953,30.8851749 L39.8123437,47.2609373" id="Shape"></path>
                        </g>
                    </g>
                </g>
            </g>
        </g>
    </g>
</svg>