<?xml version="1.0" encoding="UTF-8"?>
<svg width="81px" height="54px" viewBox="0 0 81 54" version="1.1" xmlns="http://www.w3.org/2000/svg" xmlns:xlink="http://www.w3.org/1999/xlink">
    <g id="Page-1" stroke="none" stroke-width="1" fill="none" fill-rule="evenodd">
        <g id="timetracker-integrations" transform="translate(-988.000000, -926.000000)" fill-rule="nonzero">
            <g id="Block/integrations" transform="translate(-1.000000, 1.000000)">
                <g id="Block/tracker-dropdiwn" transform="translate(974.000000, 900.000000)">
                    <g id="Group" transform="translate(15.000000, 25.000000)">
                        <g>
                            <g>
                                <path d="M79.8215806,44.8941103 L79.8215806,18.0449379 C79.8215806,11.519131 78.5879171,7.89442759 75.0884931,4.70582069 C71.7626406,1.67623448 66.3371336,0.000372413793 58.994129,0.000372413793 C51.9094286,0.000372413793 45.9060968,1.67995862 41.5880876,4.89575172 C45.4600369,7.99013793 48.0292673,12.5388 48.5309447,18.5093379 C48.5309447,13.4299862 52.0217834,11.3496828 57.2509493,11.3496828 C63.1060922,11.3496828 64.8059724,15.4279862 64.8571106,18.8497241 L64.8992903,20.4805241 C48.7078756,21.2741379 33.4556129,24.2776552 33.7501244,39.0520552 C33.9565438,49.4070207 43.3503041,53.6357793 49.798576,53.6287034 C57.2976083,53.6201379 61.4939309,51.6254897 65.6122396,46.5223034 C65.6756959,48.6782069 65.9496774,50.960731 66.3236959,52.6120138 L80.8376267,52.6120138 C80.0257604,50.0728966 79.8215806,47.5330345 79.8215806,44.8941103 Z M62.8615991,39.6002483 C61.1307373,42.2391724 58.384576,43.8655034 55.3274793,43.8655034 C51.1557926,43.8655034 47.6761521,41.9728966 47.6761521,37.4428552 C47.6761521,30.7874483 57.4345991,28.4203862 64.8992903,27.9913655 L64.8992903,29.9610621 C64.8992903,34.2832966 64.8250092,36.616469 62.8615991,39.6002483 Z" id="Shape" fill="#4BAE44"></path>
                                <path d="M33.7501244,39.0516828 C33.7273548,37.9199172 33.7967834,36.8563034 33.9498249,35.8586069 C33.2727097,39.5957793 30.2786959,41.4507724 26.499318,41.4507724 C18.958106,41.4507724 16.8487465,35.7934345 16.8487465,26.1002483 C16.8487465,16.5493241 19.1189862,11.3742621 26.4612442,11.3742621 C31.0211336,11.3742621 34.3201106,13.8355448 34.3201106,18.5082207 L48.5305714,18.5082207 C47.5018341,6.26437241 37.7784747,0.000372413793 25.9532212,0.000372413793 C9.66251613,0.000372413793 0.0940645161,11.475931 0.0940645161,27.3221379 C0.0940645161,42.5546069 9.35717972,53.628331 25.0353456,53.628331 C29.6027005,53.628331 34.7788618,52.5226345 38.9460691,49.8501931 C36.0117788,47.4935586 33.8479217,43.9615862 33.7501244,39.0516828 Z" id="Path" fill="#0084CB"></path>
                            </g>
                        </g>
                    </g>
                </g>
            </g>
        </g>
    </g>
</svg>