<?xml version="1.0" encoding="UTF-8"?>
<svg width="66px" height="64px" viewBox="0 0 66 64" version="1.1" xmlns="http://www.w3.org/2000/svg" xmlns:xlink="http://www.w3.org/1999/xlink">
    <g id="Page-1" stroke="none" stroke-width="1" fill="none" fill-rule="evenodd">
        <g id="0004.-Landing--Integration-Desktop-#01" transform="translate(-627.000000, -3092.000000)" fill="#E72D29">
            <g id="Block/integrations" transform="translate(-1.000000, 1960.000000)">
                <g id="Block/tracker-dropdiwn" transform="translate(610.000000, 1112.000000)">
                    <g id="Logo/tracker/todoist" transform="translate(20.000000, 20.000000)">
                        <g id="Group-30" transform="translate(-2.000000, 0.000000)">
                            <path d="M4.06681719,46.5141587 C6.98965665,48.1934574 9.91890288,49.8616103 12.8218476,51.5743464 C13.9544985,52.2430936 14.9947569,52.2589679 16.1405585,51.5929227 C24.3486524,46.82185 32.5763039,42.0835392 40.7867582,37.3158441 C42.3166293,36.4275586 42.2498639,35.9401837 40.8690347,34.9323343 C39.1162752,33.6536084 37.6069732,33.6319923 35.6724635,34.8056776 C29.5260032,38.5354635 23.2244315,42.007883 17.0408794,45.6775491 C15.2911546,46.7164717 14.5719476,47.0628897 12.0479763,45.721119 L5.17991053,41.7910467 C2.93586131,40.31271 1.96324533,39.49024 2,37.0486731 C2.00199049,36.9164475 2.00199049,35.9848235 2,34.253801 C7.14124187,37.2066408 10.6086993,39.2262771 12.4023723,40.31271 C13.797701,41.1581011 15.0416275,41.211128 16.4868617,40.3664124 C24.5381582,35.6598502 32.6282325,31.021176 40.6953773,26.3423094 C42.389127,25.3597913 42.2977461,24.9149731 40.6670526,23.7689834 C38.9591405,22.5689536 37.5162667,22.6760207 35.7301245,23.7477051 C29.5165617,27.4758022 23.1812701,30.9998977 16.9468009,34.6942197 C15.2483304,35.7007181 13.8074798,35.7861691 12.1106953,34.720902 L3.51785749,29.7208341 C2.58224314,29.1792361 2.07629064,28.3694121 2,27.2913619 L2,23.2388371 C7.17361295,26.2087135 10.7245833,28.2704181 12.652911,29.4239508 C13.8870587,30.1626126 14.9785713,30.2153018 16.2592525,29.4665075 C24.4076622,24.7045541 32.5908034,20.0020449 40.7530383,15.2633964 C42.3527095,14.3349185 42.2724562,13.8499078 40.7607939,12.7795745 C39.0309639,11.5545511 37.5654977,11.5802202 35.695393,12.712362 C29.4487847,16.4938238 23.0625761,20.0422373 16.7721319,23.7520959 C15.1778558,24.6923951 13.8092025,24.6923951 12.2246685,23.7446654 L3.33307254,18.5878809 C2.41622892,18.0799032 2.09083205,17.4726266 2.11443596,16.4462009 C2.17648055,13.7458805 2.09858762,11.0425203 2.14714425,8.34152444 C2.23447875,3.48972926 5.65198889,0.0331840499 10.4762925,0.0237270179 C26.2103271,-0.00768383852 41.9446989,-0.00835934081 57.6783964,0.0244025201 C62.551931,0.0345350545 65.9670808,3.45527864 65.9768596,8.32902765 C66.008219,24.0891715 66.0068702,39.8489777 65.9778712,55.6087838 C65.9687668,60.4575392 62.5249551,63.9586676 57.7030119,63.9711644 C41.9689773,64.0103435 26.2349427,64.008317 10.5009081,63.9728531 C5.57645635,63.9617073 2.16906217,60.4517974 2.13905148,55.5192797 C2.11949395,52.3163856 2.13534229,49.1131538 2.13534229,45.4873952 C3.01441964,45.9531541 3.54989138,46.2172755 4.06681719,46.5141587 Z" id="Fill-6"></path>
                        </g>
                    </g>
                </g>
            </g>
        </g>
    </g>
</svg>