<?xml version="1.0" encoding="UTF-8"?>
<svg width="64px" height="64px" viewBox="0 0 64 64" version="1.1" xmlns="http://www.w3.org/2000/svg" xmlns:xlink="http://www.w3.org/1999/xlink">
    <g id="Landing" stroke="none" stroke-width="1" fill="none" fill-rule="evenodd">
        <g id="0004.-Landing--Integration-Desktop-#01" transform="translate(-993.000000, -3304.000000)">
            <g id="Block/integrations" transform="translate(-1.000000, 1960.000000)">
                <g id="Block/tracker-dropdiwn" transform="translate(974.000000, 1324.000000)">
                    <g id="Logo/tracker/color/wunderlist" transform="translate(20.000000, 20.000000)">
                        <g id="App">
                            <path d="M22.3130667,0 L41.6869333,0 C48.112,0 51.3237333,0 54.7824,1.09333333 C58.5584,2.46773333 61.5322667,5.4416 62.9066667,9.2176 C64,12.6757333 64,15.8885333 64,22.3130667 L64,41.6869333 C64,48.112 64,51.3237333 62.9066667,54.7824 C61.5322667,58.5584 58.5584,61.5322667 54.7824,62.9061333 C51.3237333,64 48.112,64 41.6869333,64 L22.3130667,64 C15.888,64 12.6757333,64 9.2176,62.9061333 C5.4416,61.5322667 2.46773333,58.5584 1.09333333,54.7824 C0,51.3237333 0,48.112 0,41.6869333 L0,22.3130667 C0,15.8885333 0,12.6757333 1.09333333,9.2176 C2.46773333,5.4416 5.4416,2.46773333 9.2176,1.09333333 C12.6757333,0 15.888,0 22.3130667,0 L22.3130667,0" id="App-Icon" fill="#ED3B28"></path>
                            <rect id="Background-White" fill="#FFFFFF" x="4.75" y="4.75" width="54.625" height="54.5" rx="0.5"></rect>
                            <path d="M12.9383769,2.25 C12.8343392,2.25 12.75,2.33496273 12.75,2.43964894 L12.75,54.625 L31.9375,45.1969872 L51.125,54.625 L51.125,2.43964894 C51.125,2.33490872 51.0404924,2.25 50.9366231,2.25 L12.9383769,2.25 Z" id="Ribbon" fill="#ED3B28"></path>
                            <polygon id="Star" fill="#FFFFFF" points="31.9215325 31.4387533 23.6240602 37.5284922 26.6653001 27.7001419 18.2568759 21.7114601 28.6787526 21.7114601 31.9215325 11.6160928 35.2350957 21.596508 45.6388396 21.7114601 37.2280461 27.7001419 40.3759398 37.5284922"></polygon>
                        </g>
                    </g>
                </g>
            </g>
        </g>
    </g>
</svg>