<svg version="1.1" id="Layer_1" xmlns="http://www.w3.org/2000/svg" x="0" y="0" viewBox="0 0 40 40" xml:space="preserve"><style>.st0{fill:#fff}</style><path class="st0" d="M0 18.8C0 5 3.1 0 20 0s20 5 20 18.8c0 11.9-3.1 20-20 20s-20-8.1-20-20z"/><path d="M22.5 0H20C3.1 0 0 5 0 18.8c0 11.9 3.1 20 20 20s20-8.1 20-20C40 6.5 37.5 1.2 25 .2c-.4 5.8-1.4 11-2.7 15.4-.6 2.2-1.3 4.1-2 5.7-.4 1-.8 1.6-1 2-.4.6-1.1.8-1.7.4l-4.5-2.6c-.6-.4-.8-1.1-.4-1.7s1.1-.8 1.7-.4l3.3 2s0-.1.3-.6c.7-1.5 1.3-3.2 1.9-5.3 1.3-4.5 2.2-9.4 2.6-15.1z" fill="#449df5"/><path class="st0" d="M28.1 13.1c1 0 1.9-.8 1.9-1.9s-.8-1.9-1.9-1.9c-1 0-1.9.8-1.9 1.9s.9 1.9 1.9 1.9z"/><circle class="st0" cx="11.9" cy="11.2" r="1.9"/><path class="st0" d="M11.5 27.8c.1.2.3.4.5.7.4.4.9.9 1.5 1.3 1.7 1.1 3.8 1.8 6.5 1.8 2.6 0 4.8-.7 6.5-1.8.6-.4 1.1-.8 1.5-1.3.3-.3.4-.5.5-.7.4-.6.2-1.4-.4-1.7-.6-.4-1.3-.2-1.7.3-.1.1-.1.2-.2.3-.3.3-.6.6-1.1.9-1.3.8-3 1.4-5.1 1.4-2.1 0-3.8-.5-5.1-1.4-.4-.3-.7-.5-1.1-.9-.1-.1-.2-.2-.2-.3-.4-.6-1.1-.8-1.7-.4s-.8 1.2-.4 1.8c-.1 0-.1 0 0 0z"/></svg>