<svg xmlns="http://www.w3.org/2000/svg" viewBox="0 0 1000 1000"><radialGradient id="a" cx="-186.908" cy="1272.293" r=".688" gradientTransform="matrix(944.8934 0 0 -873.3772 177107.906 1111712.125)" gradientUnits="userSpaceOnUse"><stop offset="0" stop-color="#ffb900"/><stop offset=".6" stop-color="#f95d8f"/><stop offset=".999" stop-color="#f95353"/></radialGradient><path d="M777 504.6c-117.8 0-213.2 95.5-213.2 213.2 0 117.8 95.5 213.3 213.2 213.3 117.8 0 213.2-95.5 213.2-213.3 0-117.7-95.4-213.2-213.2-213.2zm-554 .1c-117.8 0-213.2 95.5-213.2 213.2 0 117.8 95.5 213.2 213.2 213.2 117.8 0 213.2-95.5 213.2-213.2 0-117.8-95.4-213.2-213.2-213.2zm490.2-266.6c0 117.8-95.5 213.3-213.2 213.3-117.8 0-213.2-95.5-213.2-213.3S382.2 24.9 500 24.9c117.8 0 213.2 95.4 213.2 213.2z" fill="url(#a)"/></svg>