<svg xmlns="http://www.w3.org/2000/svg" viewBox="0 0 62.4 56.1"><path fill="none" d="M24.7 37.3h13.1l3.1-18.4H21.2z"/><path d="M2 0C.9 0 0 .9 0 2v.3l8.5 51.5c.2 1.3 1.3 2.3 2.7 2.3h40.7c1 0 1.8-.7 2-1.7l8.5-52.1c.2-1.1-.6-2.1-1.7-2.3H2zm35.8 37.3h-13l-3.5-18.4H41l-3.2 18.4z" fill="#2684ff"/><linearGradient id="a" gradientUnits="userSpaceOnUse" x1="64.018" y1="29.46" x2="32.998" y2="5.25" gradientTransform="matrix(1 0 0 -1 0 53.48)"><stop offset=".18" stop-color="#0052cc"/><stop offset="1" stop-color="#2684ff"/></linearGradient><path d="M59.7 18.9H40.9l-3.2 18.4h-13L9.4 55.5c.5.4 1.1.7 1.8.7h40.7c1 0 1.8-.7 2-1.7l5.8-35.6z" fill="url(#a)"/></svg>