<svg xmlns="http://www.w3.org/2000/svg" viewBox="0 0 73.3 75.8"><path d="M72.4 35.8L39.8 3.2 36.6 0 12.1 24.5.9 35.8C-.3 37-.3 38.9.9 40l22.4 22.4 13.3 13.3 24.5-24.5.4-.4L72.4 40c1.2-1.2 1.2-3.1 0-4.2zM36.6 49.1L25.4 37.9l11.2-11.2 11.2 11.2-11.2 11.2z" fill="#2684ff"/><linearGradient id="a" gradientUnits="userSpaceOnUse" x1="34.635" y1="62.655" x2="18.995" y2="47.015" gradientTransform="matrix(1 0 0 -1 0 78)"><stop offset=".18" stop-color="#0052cc"/><stop offset="1" stop-color="#2684ff"/></linearGradient><path d="M36.6 26.7c-7.3-7.3-7.4-19.2-.1-26.6L12.1 24.6l13.3 13.3 11.2-11.2z" fill="url(#a)"/><linearGradient id="b" gradientUnits="userSpaceOnUse" x1="38.78" y1="17.72" x2="54.39" y2="33.33" gradientTransform="matrix(1 0 0 -1 0 78)"><stop offset=".18" stop-color="#0052cc"/><stop offset="1" stop-color="#2684ff"/></linearGradient><path d="M47.9 37.8L36.6 49.1c7.4 7.4 7.4 19.3 0 26.7l24.6-24.6-13.3-13.4z" fill="url(#b)"/></svg>