<svg xmlns="http://www.w3.org/2000/svg" viewBox="0 0 27.1 27.1"><path d="M20.6 19.1c-1.1 1-2.1 1.8-6.5-.3-3.3-1.8-7.5-1.2-10.2 1.4-.8.8-.8 2-.1 2.8.8.8 2 .8 2.8.1 1.6-1.5 3.9-1.8 5.8-.7 4.9 2.4 7.8 2.4 10.8-.2.8-.7.9-2 .2-2.8-.7-.9-2-1-2.8-.3zm0-7.8c-1.1 1-2.1 1.8-6.5-.3-3.3-1.8-7.5-1.2-10.2 1.4-.8.8-.8 2-.1 2.8.8.8 2 .8 2.8.1 1.6-1.5 3.9-1.8 5.8-.7 4.9 2.4 7.8 2.4 10.8-.2.8-.7.9-2 .2-2.8-.7-.9-1.9-1-2.8-.3zm0-7.6c-1.2.9-2.2 1.8-6.5-.4C10.8 1.5 6.6 2 3.9 4.7c-.8.8-.8 2-.1 2.8.8.8 2 .8 2.8.1 1.6-1.5 3.9-1.8 5.8-.7 4.9 2.4 7.8 2.4 10.8-.2.8-.7.9-2 .2-2.8-.7-.9-2-.9-2.8-.2z" fill="#231f20"/></svg>