<?xml version="1.0" encoding="UTF-8" standalone="no"?>
<!-- Generator: Adobe Illustrator 17.1.0, SVG Export Plug-In . SVG Version: 6.00 Build 0)  -->

<svg
   xmlns:dc="http://purl.org/dc/elements/1.1/"
   xmlns:cc="http://creativecommons.org/ns#"
   xmlns:rdf="http://www.w3.org/1999/02/22-rdf-syntax-ns#"
   xmlns:svg="http://www.w3.org/2000/svg"
   xmlns="http://www.w3.org/2000/svg"
   xmlns:sodipodi="http://sodipodi.sourceforge.net/DTD/sodipodi-0.dtd"
   xmlns:inkscape="http://www.inkscape.org/namespaces/inkscape"
   version="1.1"
   id="Capa_1"
   x="0px"
   y="0px"
   viewBox="0 0 298 298"
   style="enable-background:new 0 0 298 298;"
   xml:space="preserve"
   sodipodi:docname="odoo.svg"
   inkscape:version="0.92.1 r15371"><metadata
     id="metadata4737"><rdf:RDF><cc:Work
         rdf:about=""><dc:format>image/svg+xml</dc:format><dc:type
           rdf:resource="http://purl.org/dc/dcmitype/StillImage" /><dc:title /></cc:Work></rdf:RDF></metadata><defs
     id="defs4735" /><sodipodi:namedview
     pagecolor="#ffffff"
     bordercolor="#666666"
     borderopacity="1"
     objecttolerance="10"
     gridtolerance="10"
     guidetolerance="10"
     inkscape:pageopacity="0"
     inkscape:pageshadow="2"
     inkscape:window-width="3840"
     inkscape:window-height="2050"
     id="namedview4733"
     showgrid="false"
     inkscape:zoom="1.9500333"
     inkscape:cx="-17.709857"
     inkscape:cy="156.33019"
     inkscape:window-x="-12"
     inkscape:window-y="-12"
     inkscape:window-maximized="1"
     inkscape:current-layer="g2893" /><g
     transform="matrix(0.63036983,0,0,0.63036983,12.077674,51.7009)"
     id="g18" /><g
     transform="matrix(0.63036983,0,0,0.63036983,12.077674,51.7009)"
     id="g20" /><g
     transform="matrix(0.63036983,0,0,0.63036983,12.077674,51.7009)"
     id="g22" /><g
     transform="matrix(0.63036983,0,0,0.63036983,12.077674,51.7009)"
     id="g24" /><g
     transform="matrix(0.63036983,0,0,0.63036983,12.077674,51.7009)"
     id="g26" /><g
     transform="matrix(0.63036983,0,0,0.63036983,12.077674,51.7009)"
     id="g28" /><g
     transform="matrix(0.63036983,0,0,0.63036983,12.077674,51.7009)"
     id="g30" /><g
     transform="matrix(0.63036983,0,0,0.63036983,12.077674,51.7009)"
     id="g32" /><g
     transform="matrix(0.63036983,0,0,0.63036983,12.077674,51.7009)"
     id="g34" /><g
     transform="matrix(0.63036983,0,0,0.63036983,12.077674,51.7009)"
     id="g36" /><g
     transform="matrix(0.63036983,0,0,0.63036983,12.077674,51.7009)"
     id="g38" /><g
     transform="matrix(0.63036983,0,0,0.63036983,12.077674,51.7009)"
     id="g40" /><g
     transform="matrix(0.63036983,0,0,0.63036983,12.077674,51.7009)"
     id="g42" /><g
     transform="matrix(0.63036983,0,0,0.63036983,12.077674,51.7009)"
     id="g44" /><g
     transform="matrix(0.63036983,0,0,0.63036983,12.077674,51.7009)"
     id="g46" /><flowRoot
     transform="matrix(0.63036983,0,0,0.63036983,-77.570963,-104.3741)"
     xml:space="preserve"
     id="flowRoot76"
     style="font-style:normal;font-weight:normal;font-size:40px;line-height:1.25;font-family:sans-serif;letter-spacing:0px;word-spacing:0px;fill:#000000;fill-opacity:1;stroke:none"><flowRegion
       id="flowRegion78"><rect
         id="rect80"
         width="208.57143"
         height="128.57143"
         x="82.85714"
         y="188.23398" /></flowRegion><flowPara
       id="flowPara82" /></flowRoot><flowRoot
     xml:space="preserve"
     id="flowRoot84"
     style="font-style:normal;font-variant:normal;font-weight:bold;font-stretch:normal;font-size:192px;line-height:1.25;font-family:'Segoe UI';-inkscape-font-specification:'Segoe UI Bold';letter-spacing:0px;word-spacing:0px;fill:#000000;fill-opacity:1;stroke:none"
     transform="matrix(0.63036983,0,0,0.63036983,-39.748773,10.89353)"><flowRegion
       id="flowRegion86"
       style="font-style:normal;font-variant:normal;font-weight:bold;font-stretch:normal;font-size:192px;font-family:'Segoe UI';-inkscape-font-specification:'Segoe UI Bold'"><rect
         id="rect88"
         width="171.42857"
         height="114.28571"
         x="91.428574"
         y="133.94826"
         style="font-style:normal;font-variant:normal;font-weight:bold;font-stretch:normal;font-size:192px;font-family:'Segoe UI';-inkscape-font-specification:'Segoe UI Bold'" /></flowRegion><flowPara
       id="flowPara90">1</flowPara></flowRoot><g
     id="g2893"
     transform="matrix(2.9035664,0,0,2.9035664,3.82168,3.9025339)"><path
       style="fill:#a24689;fill-opacity:1;stroke-width:0.38871303"
       d="M 49.999996,-1.158035 A 51.129842,51.129842 0 0 0 -1.1301924,49.972152 51.129842,51.129842 0 0 0 49.999996,101.10234 51.129842,51.129842 0 0 0 101.13019,49.972152 51.129842,51.129842 0 0 0 49.999996,-1.158035 Z m 0,15.947104 A 35.182911,35.182911 0 0 1 85.18308,49.972152 35.182911,35.182911 0 0 1 49.999996,85.155238 35.182911,35.182911 0 0 1 14.816911,49.972152 35.182911,35.182911 0 0 1 49.999996,14.789069 Z"
       id="path2978"
       inkscape:connector-curvature="0" /></g></svg>