<svg version="1.1" id="svg2" xmlns="http://www.w3.org/2000/svg" x="0" y="0" viewBox="0 0 122 120" xml:space="preserve"><style>.st0{fill:#d52c24}.st1{fill:#c82624}.st2{fill:#ac1f22}</style><path id="path22" class="st0" d="M37.2 21.6l11.2 13c.5.6-.2 1.1-.2 1.1-4.5 2.4-7.7 6.1-10.5 10.3-.6.8-1.1.2-1.1.2L22.4 35.6s-.6-.4-.1-1.1c4.2-5.5 7.9-9.4 14-13.1 0 0 .4-.4.9.2"/><path id="path24" class="st1" d="M17.3 42.8l16.8 8.1c.8.3.4 1 .4 1-2.3 5.5-3.7 10.2-4.8 15.8-.2.9-.8.6-.8.6L10 60.2s-.6-.2-.3-.9c.8-2.6 5.1-12.9 6.8-16.3 0 .1.3-.5.8-.2"/><path id="path26" class="st2" d="M7.9 68.9c3.8 1.2 19.9 4.9 19.9 4.9 1 .3.7 1 .7 1-1.1 8.8-.9 15.4-.9 17.7 0 1-.7.9-.7.9H3.4c-1 0-.8-.9-.8-.9.2-2.9 1-11.2 4.3-23.1 0 0 .2-.8 1-.5"/><path id="path28" class="st0" d="M84.8 21.6l-11.2 13c-.5.6.2 1.1.2 1.1 4.5 2.4 7.7 6.1 10.5 10.3.6.8 1.1.2 1.1.2l14.2-10.6s.6-.4.1-1.1c-4.2-5.5-7.9-9.4-14-13.1 0 0-.4-.4-.9.2"/><path id="path30" d="M61 32.7c1.9 0 5.4.2 7 .5.9.1 1.1-.4 1.1-.4L76.2 18s.5-.6-.5-.9c-5.3-1.9-8.1-2.8-14.6-2.8s-9.4.9-14.6 2.8c-1 .4-.5.9-.5.9l7.1 14.7s.2.6 1.1.4c1.4-.2 4.9-.4 6.8-.4" fill="#df3d3c"/><path id="path32" class="st1" d="M104.7 42.8l-16.8 8.1c-.8.3-.4 1-.4 1 2.3 5.5 3.7 10.2 4.8 15.8.2.9.8.6.8.6l18.9-8.2s.6-.2.3-.9c-.8-2.6-5.1-12.9-6.8-16.3 0 .2-.3-.4-.8-.1"/><path id="path34" class="st2" d="M114.1 68.9c-3.8 1.2-19.9 4.9-19.9 4.9-1 .3-.7 1-.7 1 1.1 8.8.9 15.4.9 17.7 0 1 .7.9.7.9h23.5c1 0 .8-.9.8-.9-.2-2.9-1-11.2-4.3-23.1 0 0-.2-.8-1-.5"/></svg>