<svg xmlns="http://www.w3.org/2000/svg" viewBox="0 0 165 165"><path d="M138.1 48.1c.5 1.1 1.2 2.1 2 3 .8.8 1.6 1.6 2.6 2.1.9.5 1.9.8 3 .9 1.9.2 3.8-.6 4.9-2.2.6-.8 1-1.7 1.2-2.7.3-1.1.3-2.2.2-3.3-.2-1.2-.5-2.4-1-3.5s-1.1-2.1-1.9-3c-.7-.9-1.6-1.6-2.6-2.2-.9-.5-1.9-.9-3-1-1-.1-1.9 0-2.9.4-.9.4-1.6.9-2.2 1.7-.6.8-1.1 1.7-1.3 2.7-.3 1.1-.3 2.3-.2 3.5.3 1.2.6 2.4 1.2 3.6zm23.7 66.8v-.8c-.1-1.2-.2-2.5-.3-3.7-.1-1.2-.3-2.5-.5-3.7s-.4-2.5-.5-3.8l-2.3-18.5-2.4-19.1c-.1-.6-.2-1.3-.4-1.9-.1-.6-.3-1.1-.6-1.7-.2-.5-.5-1-.8-1.4l-.9-1.2c-.4-.4-.7-.7-1.2-1-.4-.3-.9-.6-1.4-.8-.5-.2-1-.5-1.5-.6-.6-.2-1.1-.3-1.7-.4l-.7-.1-.7-.1-.7-.1-.7-.1-.5-.1-.5-.1h-2.4c-.4 0-.8.1-1.2.3-.4.1-.7.3-1 .6-.3.3-.5.6-.7.9-.2.3-.3.7-.4 1-.1.4-.2.8-.2 1.2-.1.5-.1.9-.1 1.4v1.7l2.1 22.8.5 4.8 1 10.9c.4 4 .8 8.2 1.1 11.4s.5 5.7.6 6.4c.1 1 .2 1.8.3 2.6.1.6.1 1.3.1 1.9 0 .5-.1.9-.4 1.3-.3.4-.7.6-1.1.7h-.1c-.5-.1-.9-.4-1.1-.9-.3-.7-.5-1.4-.6-2.2-.2-.8-.3-1.6-.3-2.2s-.1-1-.1-1c-.2-1.7-.4-3.8-.7-6.2s-.6-5-.9-7.8-.6-5.9-1-9.1-.7-6.6-1.1-10.1l-.4-3.7-.3-3.6-.4-3.4c-.1-1.1-.2-2.2-.4-3.2-.1-1-.3-2-.5-2.9-.2-.9-.5-1.8-.9-2.6s-.9-1.5-1.5-2.2c-.6-.7-1.3-1.3-2.1-1.8l-.3-.2-.3-.2-.3-.2-.3-.1c-.6-.3-1.3-.6-2-.8-.7-.2-1.4-.4-2.1-.5s-1.4-.2-2.1-.4-1.4-.2-2.1-.4l-.6-.1-.6-.1-.6-.1h-.5c-.6-.1-1.2-.1-1.8 0-.5.1-1.1.2-1.6.3-.5.2-.9.4-1.3.6-.4.3-.8.6-1.1.9-.4.4-.7.9-.9 1.4-.3.6-.4 1.1-.6 1.8-.1.7-.2 1.4-.2 2.1 0 .8 0 1.7.1 2.5.1 1.4.3 2.8.4 4.2.1 1.4.3 2.8.4 4.2l.3 4.2.3 4.2c.1 1.6.4 4.4.7 7.8s.8 7.4 1.2 11.5 1 8.2 1.5 11.7c.4 2.8.9 5.6 1.5 8.3.2.6.3 1.2.5 1.9.2.6.3 1.3.6 2.1.2.8.6 1.8 1 3s.9 2.6 1.6 4.4c-.5-.2-1.2-.3-2-.5-1-.3-1.8-.8-2.5-1.5-1.2-1.3-2.1-2.8-2.8-4.4-1.2-2.9-2.1-6-2.7-9.1-.2-1.6-.5-3.5-.8-5.6s-.5-4.3-.7-6.7-.5-4.8-.7-7.2-.4-4.9-.6-7.3l-.2-2.4-.2-2.4c-.1-.8-.1-1.6-.2-2.4l-.2-2.4c-.1-1.4-.2-2.9-.3-4.3-.1-1.4-.2-2.9-.4-4.3-.1-1.4-.3-2.9-.4-4.3s-.3-2.9-.4-4.3c-.1-.8-.2-1.5-.3-2.2-.1-.7-.3-1.3-.4-1.9-.2-.6-.3-1.2-.6-1.8-.2-.5-.4-1-.7-1.5-.4-.7-.9-1.4-1.4-2-.6-.6-1.2-1.2-1.9-1.6-.8-.5-1.6-1-2.4-1.3-1-.4-2-.8-3-1.1-.7-.2-1.3-.4-2.1-.6l-2.1-.5c-.7-.2-1.4-.3-2.1-.5s-1.4-.3-2.1-.4l-.7-.1-.7-.1h-1.2c-1.2-.1-2.3-.1-3.5.1-1 .1-1.9.4-2.8.9-.8.4-1.6 1-2.2 1.7-.7.7-1.2 1.6-1.6 2.5-.2.5-.4 1-.5 1.5-.2.5-.3 1.1-.4 1.7-.1.6-.2 1.2-.3 1.9-.1.7-.1 1.3-.2 2v3.2c0 .4 0 .7.1 1.1.1 1.3.2 2.7.2 4 .1 1.3.1 2.6.2 3.9.1 1.3.1 2.6.2 3.9.1 1.3.1 2.6.2 3.9.1 1.7.2 3.4.2 5s.2 3.3.2 5.1l.3 5.1c.1 1.7.2 3.4.3 5.2.2 2 .3 4 .4 5.9s.3 4 .4 5.9.4 3.9.7 5.9c.3 1.9.7 3.9 1.2 5.8.4 1.8 1.1 3.6 2 5.2.8 1.4 1.8 2.7 3.1 3.8 1.2 1 2.6 1.8 4.1 2.4 1.6.6 3.3 1 5 1.1l1.5.1h2.6l1.3-.1 1.4-.2 1.6-.2 1.8-.3 2.1-.3c2.2-.4 4.2-.7 6.1-1l5.4-.8c1.7-.3 3.4-.5 5-.8s3.3-.6 5-.9c2.5-.5 5-.9 7.4-1.4l7.2-1.3 7-1.3c2.3-.4 4.6-.9 6.8-1.3 1.4-.3 2.7-.8 3.9-1.5 1.1-.7 2-1.6 2.7-2.7.8-1.2 1.4-2.4 1.7-3.8.4-1.6.6-3.3.7-5v-3zm-48.9-63.5c.6 1.2 1.4 2.4 2.3 3.3.9 1 1.9 1.7 3.1 2.3 1.1.6 2.3.9 3.5 1 1.1.1 2.2-.1 3.3-.6 1-.4 1.8-1.1 2.5-1.9.7-.9 1.2-1.9 1.4-3 .3-1.2.4-2.5.2-3.8-.2-1.4-.5-2.7-1.1-3.9-.6-1.2-1.3-2.3-2.2-3.3-.9-1-1.9-1.8-3-2.4-1.1-.6-2.3-1-3.5-1.1-1.1-.1-2.3 0-3.3.4s-1.9 1-2.6 1.9c-.7.9-1.3 1.9-1.5 3-.3 1.3-.4 2.6-.2 3.9 0 1.5.4 2.9 1.1 4.2zm-35.4-9c.8 1.5 1.7 2.8 2.9 4 1.1 1.1 2.4 2.1 3.9 2.8 1.4.7 2.9 1.1 4.4 1.2 1.4.1 2.8-.1 4.1-.6 1.2-.5 2.3-1.2 3.1-2.2.9-1 1.5-2.2 1.8-3.5.4-1.4.5-2.9.3-4.4-.2-1.6-.7-3.1-1.4-4.6-.7-1.4-1.6-2.8-2.8-3.9-1.1-1.2-2.4-2.1-3.8-2.9-1.4-.7-2.8-1.2-4.4-1.4-1.4-.2-2.9 0-4.2.4-1.3.4-2.4 1.2-3.3 2.1-.9 1-1.6 2.2-2 3.6-.4 1.5-.5 3.1-.3 4.6.4 1.7.9 3.3 1.7 4.8z" fill="#3facff"/><path d="M27 30.5c.8 1.3 1.8 2.6 2.9 3.6 1 1 2.2 1.9 3.6 2.5l.9.3.9.3c.3.1.6.1.9.2s.6.1.8.1c.9.1 1.9 0 2.8-.1.9-.2 1.7-.5 2.5-1 .8-.4 1.4-1 2-1.7.6-.7 1-1.5 1.4-2.3v-.5c.1-.2.1-.5.2-.7.1-.2.1-.5.1-.7 0-.2.1-.5.1-.7v-2c0-.4.1-.8.1-1.1 0-.4-.1-.8-.2-1.1-.1-.4-.2-.8-.2-1.1-.3-1.2-.7-2.3-1.3-3.4-.5-1.1-1.2-2.1-1.9-3-.7-.9-1.6-1.7-2.5-2.5-.9-.7-1.9-1.3-3-1.8l-.7-.2-.7-.2-.7-.2-.8-.2c-.5-.1-1-.1-1.6-.1-.5 0-1 .1-1.5.2s-1 .2-1.4.4c-.5.2-.9.4-1.3.6l-.1.1-.1.1-.1.1H28l-.2.1-.2.2-.2.1-.2.2-.2.2-.3.3-.2.3-.2.3-.1.2-.2.2-.1.2-.2.2c-.2.3-.3.5-.4.8-.3.6-.4 1.1-.6 1.7-.1.3-.1.7-.1 1v1.2c0 1.5.2 3.1.7 4.6.3 1.5.9 2.9 1.7 4.3zm42 111.6l-.6-.2-.4-.2-.5-.2-.3-.1-.5-.2-.5-.2-.3-.1c-1.3-.5-2.5-1.2-3.6-2-1-.8-1.9-1.7-2.6-2.8-.8-1.2-1.3-2.6-1.7-3.9-.4-1.7-.7-3.5-.8-5.3-.1-1.3-.1-2.7-.2-4-.1-1.3-.1-2.7-.2-4-.1-1.3-.1-2.7-.2-4l-.1-4c-.1-1.9-.1-3.8-.2-5.7-.1-1.9-.1-3.8-.2-5.7 0-1.8-.1-3.7-.2-5.5-.1-1.8-.1-3.7-.2-5.5-.1-.8-.1-1.6 0-2.3.1-.5.3-1 .6-1.5.3-.4.7-.6 1.1-.8.6-.2 1.2-.2 1.8-.2h5c.5 0 1-.1 1.5-.2.4-.1.9-.3 1.2-.6.4-.3.7-.7 1-1.2.3-.5.5-1 .7-1.6.2-.6.3-1.1.3-1.7 0-.5 0-1.1-.1-1.6s-.2-1.1-.5-1.6c-.2-.5-.5-1-.9-1.5l-.1-.1-.1-.2-.1-.1V73c-.4-.4-.8-.8-1.3-1.1-.4-.3-.9-.6-1.4-.8-.5-.2-1-.4-1.4-.5-.5-.1-1-.3-1.5-.3-1.3-.2-2.5-.4-3.7-.8-.8-.2-1.6-.7-2.1-1.4-.5-.8-.8-1.7-.9-2.7-.2-1.5-.2-3.1-.2-4.6v-2.1c0-.6 0-1.2-.1-1.7-.1-.6-.2-1.1-.3-1.7s-.2-1.1-.4-1.6-.3-1-.5-1.5c-.4-.8-.8-1.7-1.3-2.4-.5-.8-1-1.5-1.7-2.1-.6-.7-1.3-1.3-2-1.8s-1.5-1-2.4-1.4c-1.3-.6-2.7-1.2-4.1-1.7-1.4-.5-2.8-1-4.3-1.4-1.5-.4-2.9-.8-4.4-1.1-1.5-.3-3-.5-4.5-.6h-3.3c-.4 0-.8.1-1.3.2-.8.2-1.6.4-2.3.8-.7.3-1.3.8-1.9 1.2-.3.2-.6.5-.8.8-.3.3-.5.6-.7.9-.3.4-.6.9-.8 1.4-.3.5-.5 1-.6 1.5-.2.6-.4 1.1-.5 1.7-.3.3-.4.8-.4 1.4 0 .6-.1 1.2-.1 1.8 0 .6 0 1.2-.1 1.9V57c0 .5 0 1.1-.1 1.6s-.1.9-.1 1.2c0 .3-.1.6-.2.9-.1.2-.2.5-.3.7-.1.2-.3.4-.6.5l-.9.3c-.5.1-.9.1-1.4.1h-1.9c-.6 0-1.1 0-1.7.1-.5.1-1.1.3-1.6.5s-.9.5-1.4.8c-.6.5-1.1 1.1-1.6 1.7-.2.2-.3.4-.5.6-.1.2-.2.5-.3.7-.1.2-.2.5-.2.7-.1.2-.1.5-.2.7.3.4.2.6.2.9v1.5c.1 1.1.3 2.2.7 3.2.4 1 1 1.9 1.7 2.6.8.8 1.7 1.5 2.7 2 1.1.5 2.3.9 3.5 1.1.7.1 1.5.3 2.1.6.5.3 1 .6 1.4 1.1.4.5.6 1.1.7 1.7.1.8.2 1.5.2 2.3 0 2.3 0 4.6-.1 6.9-.1 2.3-.1 4.6 0 6.9v21.5c0 1.6.1 3.3.2 4.9.1 1.6.3 3.2.5 4.8s.5 3.2.9 4.7.8 3.1 1.3 4.6c.4 1.1.9 2.2 1.5 3.3.6.9 1.3 1.8 2.1 2.6s1.6 1.4 2.5 2c.9.6 2 1 3 1.4.9.3 1.7.5 2.6.7.9.2 1.8.3 2.6.3h2.7c.9 0 1.8-.1 2.6-.2h.1l.9-.1.9-.1.9-.2.9-.2c2.1-.4 4.2-.9 6.3-1.4l6.1-1.4 6-1.4 5.9-1.4.8-.2.8-.2.8-.2.8-.2-.6-.4z" fill="#6ee549"/></svg>