<svg xmlns="http://www.w3.org/2000/svg" viewBox="0 0 63 63"><linearGradient id="a" gradientUnits="userSpaceOnUse" x1="31.5" y1="7491.46" x2="31.5" y2="7428.42" gradientTransform="translate(0 -7428.42)"><stop offset=".18" stop-color="#0052cc"/><stop offset="1" stop-color="#2684ff"/></linearGradient><path d="M55.2 0H7.9C3.5 0 0 3.5 0 7.9v47.3C0 59.5 3.5 63 7.9 63h47.3c4.3 0 7.8-3.5 7.8-7.9V7.9C63 3.5 59.5 0 55.2 0zM27.4 47.8c0 2.1-1.7 3.7-3.8 3.7H12c-2.1 0-3.8-1.7-3.8-3.7V12c0-2.1 1.7-3.8 3.8-3.8h11.6c2.1 0 3.8 1.7 3.8 3.8v35.8zM54.8 32c0 2.1-1.7 3.8-3.8 3.8H39.4c-2.1 0-3.8-1.7-3.8-3.8V12c0-2.1 1.7-3.8 3.8-3.8h11.7c2.1 0 3.8 1.7 3.8 3.8v20z" fill="url(#a)"/></svg>