<?xml version="1.0" encoding="UTF-8"?>
<svg width="30px" height="28px" viewBox="0 0 30 28" version="1.1" xmlns="http://www.w3.org/2000/svg" xmlns:xlink="http://www.w3.org/1999/xlink">
    <!-- Generator: Sketch 51 (57462) - http://www.bohemiancoding.com/sketch -->
    
    <desc>Created with Sketch.</desc>
    <defs></defs>
    <g id="Page-1" stroke="none" stroke-width="1" fill="none" fill-rule="evenodd">
        <g id="6" transform="translate(-139.000000, -193.000000)" fill="#1991EB" fill-rule="nonzero">
            <g id="Group-24">
                <g id="pop-up" transform="translate(26.000000, 125.000000)">
                    <g id="icon" transform="translate(98.000000, 52.000000)">
                        <g id="laptop" transform="translate(15.000000, 16.000000)">
                            <path d="M22.3098361,4.59016393 L16.8934426,4.59016393 C16.5032787,4.59016393 16.1877049,4.9057377 16.1877049,5.29590164 C16.1877049,5.68606557 16.5032787,6.00163934 16.8934426,6.00163934 L21.6040984,6.00163934 L21.6040984,10.8614754 L21.0245902,10.2762295 C20.7491803,10.0008197 20.307377,10.0008197 20.0319672,10.2762295 C19.7565574,10.5516393 19.7565574,10.9934426 20.0319672,11.2688525 L21.8106557,13.047541 C21.9483607,13.1852459 22.1262295,13.2540984 22.3098361,13.2540984 C22.4934426,13.2540984 22.6713115,13.1852459 22.8090164,13.047541 L24.5877049,11.2688525 C24.8631148,10.9934426 24.8631148,10.5516393 24.5877049,10.2762295 C24.3122951,10.0008197 23.8704918,10.0008197 23.595082,10.2762295 L23.0155738,10.8557377 L23.0155738,5.29590164 C23.0098361,4.9057377 22.7,4.59016393 22.3098361,4.59016393 Z" id="Shape"></path>
                            <path d="M8.97540984,17.792623 C9.11311475,17.9303279 9.29098361,17.9991803 9.47459016,17.9991803 C9.65819672,17.9991803 9.83606557,17.9303279 9.97377049,17.792623 C10.2491803,17.5172131 10.2491803,17.0754098 9.97377049,16.8 L8.19508197,15.0213115 C7.91967213,14.7459016 7.47786885,14.7459016 7.20245902,15.0213115 L5.42377049,16.8 C5.14836066,17.0754098 5.14836066,17.5172131 5.42377049,17.792623 C5.69918033,18.0680328 6.14098361,18.0680328 6.41639344,17.792623 L6.99590164,17.2131148 L6.99590164,22.7729508 C6.99590164,23.1631148 7.31147541,23.4786885 7.70163934,23.4786885 L13.1065574,23.4786885 C13.4967213,23.4786885 13.8122951,23.1631148 13.8122951,22.7729508 C13.8122951,22.3827869 13.4967213,22.0672131 13.1065574,22.0672131 L8.39590164,22.0672131 L8.39590164,17.207377 L8.97540984,17.792623 Z" id="Shape"></path>
                            <path d="M15.9195804,11.989979 L15.9195804,11.5161434 C15.9195804,10.8531993 15.513986,10.2894231 14.9055944,10.0817587 L14.9055944,1.51053497 C14.9055944,0.671867133 14.2264266,0 13.3876573,0 L2.59620979,0 C1.75744056,0 1.01398601,0.671867133 1.01398601,1.51053497 L1.01398601,10.0817587 C0.405594406,10.2895245 0,10.8531993 0,11.5161434 L0,11.989979 C0,12.8287483 0.737573427,13.486014 1.57634266,13.486014 L14.4076259,13.486014 C15.2462937,13.486014 15.9195804,12.8287483 15.9195804,11.989979 Z M13.6748252,9.53146853 L2.24475524,9.53146853 L2.24475524,1.23076923 L13.6748252,1.23076923 L13.6748252,9.53146853 Z" id="Shape"></path>
                            <path d="M28.986014,24.5671573 L28.986014,15.996035 C28.986014,15.1573671 28.3100909,14.5 27.4713217,14.5 L16.6798741,14.5 C15.8412063,14.5 15.0944056,15.1572657 15.0944056,15.996035 L15.0944056,24.5671573 C14.486014,24.7749231 14.0804196,25.3385979 14.0804196,26.001542 L14.0804196,26.4753776 C14.0804196,27.3140455 14.8212378,27.9859126 15.6599056,27.9859126 L28.4912902,27.9859126 C29.329958,27.9859126 30,27.3140455 30,26.4753776 L30,26.001542 C30,25.3385979 29.5944056,24.7749231 28.986014,24.5671573 Z M27.7552448,24.0314685 L16.3251748,24.0314685 L16.3251748,15.7307692 L27.7552448,15.7307692 L27.7552448,24.0314685 Z" id="Shape"></path>
                        </g>
                    </g>
                </g>
            </g>
        </g>
    </g>
</svg>