<?xml version="1.0" encoding="UTF-8"?>
<svg xmlns="http://www.w3.org/2000/svg" xmlns:xlink="http://www.w3.org/1999/xlink" width="24px" height="15px" viewBox="0 0 24 15" version="1.1">
    
    
    <desc>Created with Sketch.</desc>
    <defs/>
    <g id="Symbols" stroke="none" stroke-width="1" fill="none" fill-rule="evenodd">
        <g id="Productivity-graph" transform="translate(-18.000000, -48.000000)" fill-rule="nonzero" fill="#f45045">
            <path d="M37.2683544,54.264557 L41.5,54.264557 L41.5,56.378481 L41,56.378481 L37.8411544,56.378481 L34.2869112,61.6697552 C34.0835272,61.9748311 33.7611308,62.143038 33.3974684,62.143038 L33.3139241,62.143038 L33.1765635,62.1237999 C32.8090424,62.0187939 32.4923507,61.7571791 32.3936219,61.4101009 L29.4694387,52.5644469 L26.8262404,58.821405 C26.7124658,59.1627287 26.3955442,59.4321121 26.0993859,59.4782303 C25.7300357,59.583759 25.3758919,59.480467 25.1474767,59.2479122 L21.573936,56.375 L18.5,56.375 L18.5,54.2610759 L21.9727848,54.2610759 C22.2491766,54.2610759 22.5143127,54.3727122 22.669946,54.5337355 L25.4475719,56.6976999 L28.6214401,49.1372176 C28.7851526,48.7552219 29.190505,48.5 29.6721439,48.5038611 C30.0830034,48.5552185 30.4318057,48.8203083 30.5861125,49.2328993 L33.7200374,58.7104949 L36.3934835,54.7574507 C36.5693683,54.4377993 36.8994649,54.264557 37.2683544,54.264557 Z" id="Shape"/>
        </g>
    </g>
</svg>
