<?xml version="1.0" encoding="UTF-8"?>
<svg width="52px" height="53px" viewBox="0 0 52 53" version="1.1" xmlns="http://www.w3.org/2000/svg" xmlns:xlink="http://www.w3.org/1999/xlink">
    <g id="Page-1" stroke="none" stroke-width="1" fill="none" fill-rule="evenodd">
        <g id="0002.-Settings--Screenshoots-#01" transform="translate(-194.000000, -477.000000)" fill="#007EE5" fill-rule="nonzero">
            <g id="Card/connect" transform="translate(16.000000, 433.000000)">
                <g id="Logo/tracker/color/dropbox" transform="translate(178.000000, 44.000000)">
                    <g id="Dropbox_Icon" transform="translate(0.000000, 3.250000)">
                        <path d="M15.1162791,3.94430453e-31 L0,9.871875 L10.5209302,18.403125 L25.6372093,8.896875 L15.1162791,3.94430453e-31 Z M0,26.690625 L15.1162791,36.684375 L25.6372093,27.7875 L10.5209302,18.403125 L0,26.690625 Z M25.6372093,27.7875 L36.2790698,36.684375 L51.2744186,26.8125 L40.8744186,18.403125 L25.6372093,27.7875 L25.6372093,27.7875 Z M51.2744186,9.871875 L36.2790698,-1.77635684e-15 L25.6372093,8.896875 L40.8744186,18.403125 L51.2744186,9.871875 Z M25.7581395,29.7375 L15.1162791,38.634375 L10.6418605,35.5875 L10.6418605,39 L25.7581395,48.140625 L40.8744186,39 L40.8744186,35.5875 L36.2790698,38.634375 L25.7581395,29.7375 Z" id="Shape"></path>
                    </g>
                </g>
            </g>
        </g>
    </g>
</svg>