<?xml version="1.0" encoding="UTF-8"?>
<svg width="16px" height="16px" viewBox="0 0 16 16" version="1.1" xmlns="http://www.w3.org/2000/svg" xmlns:xlink="http://www.w3.org/1999/xlink">
    <defs>
        <path d="M8,2.66666667 C11.5410939,2.66666667 14.008202,4.84409624 15.2869097,8.08890953 C15.3488079,8.24598055 15.3488079,8.42068612 15.2869097,8.57775713 C14.008202,11.8225704 11.5410939,14 8,14 C4.45890605,14 1.99179802,11.8225704 0.713090276,8.57775713 C0.65119213,8.42068612 0.65119213,8.24598055 0.713090276,8.08890953 C1.99179802,4.84409624 4.45890605,2.66666667 8,2.66666667 Z M8,4 C5.10147701,4 3.19251101,5.72912485 2.05507405,8.33333333 C3.19251101,10.9375418 5.10147701,12.6666667 8,12.6666667 C10.898523,12.6666667 12.807489,10.9375418 13.9449259,8.33333333 C12.807489,5.72912485 10.898523,4 8,4 Z M8,11.6666667 C6.15905083,11.6666667 4.66666667,10.1742825 4.66666667,8.33333333 C4.66666667,6.49238417 6.15905083,5 8,5 C9.84094917,5 11.3333333,6.49238417 11.3333333,8.33333333 C11.3333333,10.1742825 9.84094917,11.6666667 8,11.6666667 Z M8,10.3333333 C9.1045695,10.3333333 10,9.43790283 10,8.33333333 C10,7.22876383 9.1045695,6.33333333 8,6.33333333 C6.8954305,6.33333333 6,7.22876383 6,8.33333333 C6,9.43790283 6.8954305,10.3333333 8,10.3333333 Z" id="path-1"></path>
    </defs>
    <g id="Page-1" stroke="none" stroke-width="1" fill="none" fill-rule="evenodd">
        <g id="0002.-Settings--Profile-#02" transform="translate(-280.000000, -583.000000)">
            <g id="Input/default-3" transform="translate(24.000000, 511.000000)">
                <g id="Input/default" transform="translate(0.000000, 64.000000)">
                    <g id="Icon/eye" transform="translate(256.000000, 8.000000)">
                        <mask id="mask-2" fill="white">
                            <use xlink:href="#path-1"></use>
                        </mask>
                        <use id="Mask" fill="#858E9B" fill-rule="nonzero" xlink:href="#path-1"></use>
                    </g>
                </g>
            </g>
        </g>
    </g>
</svg>