<?xml version="1.0" encoding="UTF-8"?>
<svg width="24px" height="24px" viewBox="0 0 24 24" version="1.1" xmlns="http://www.w3.org/2000/svg" xmlns:xlink="http://www.w3.org/1999/xlink">
    <defs>
        <path d="M15.4944601,9.90867369 L14.0913263,8.50553987 L5.98433088,16.6125353 L5.98433088,18.0156691 L7.38746471,18.0156691 L15.4944601,9.90867369 Z M16.9086737,8.49446013 L17.7250706,7.67806324 C18.1125353,7.29059853 18.1125353,6.66239412 17.7250706,6.27492941 C17.3376059,5.88746471 16.7094015,5.88746471 16.3219368,6.27492941 L15.5055399,7.09132631 L16.9086737,8.49446013 L16.9086737,8.49446013 Z M19.1282044,4.87179559 C20.2905985,6.03418971 20.2905985,7.91880294 19.1282044,9.08119706 L8.79059853,19.4188029 C8.4184643,19.7909372 7.91374198,20 7.38746471,20 L4.99216544,20 C4.4442076,20 4,19.5557924 4,19.0078346 L4,16.6125353 C4,16.086258 4.20906283,15.5815357 4.58119706,15.2094015 L14.9188029,4.87179559 C16.0811971,3.70940147 17.9658103,3.70940147 19.1282044,4.87179559 Z" id="path-1"></path>
    </defs>
    <g id="Page-1" stroke="none" stroke-width="1" fill="none" fill-rule="evenodd">
        <g id="0002.-Settings--Integrations-#01" transform="translate(-392.000000, -233.000000)">
            <g id="Cell/add-integration" transform="translate(0.000000, 213.000000)">
                <g id="Icon/s/close-s/gray" transform="translate(392.000000, 20.000000)">
                    <mask id="mask-2" fill="white">
                        <use xlink:href="#path-1"></use>
                    </mask>
                    <use id="Mask" fill="#FFFFFF" xlink:href="#path-1"></use>
                </g>
            </g>
        </g>
    </g>
</svg>