<?xml version="1.0" encoding="UTF-8"?>
<svg width="16px" height="16px" viewBox="0 0 16 16" version="1.1" xmlns="http://www.w3.org/2000/svg" xmlns:xlink="http://www.w3.org/1999/xlink">
    <g id="Page-1" stroke="none" stroke-width="1" fill="none" fill-rule="evenodd">
        <g id="0002.-Settings--Profile-#01" transform="translate(-280.000000, -583.000000)" fill="#858E9B" fill-rule="nonzero">
            <g id="Input/default-3" transform="translate(24.000000, 511.000000)">
                <g id="Input/default" transform="translate(0.000000, 64.000000)">
                    <g id="Icon/eye" transform="translate(256.000000, 8.000000)">
                        <path d="M2.99268458,12.0645064 C2.02201593,11.1545709 1.25918059,9.96350078 0.713090276,8.57775713 C0.65119213,8.42068612 0.65119213,8.24598055 0.713090276,8.08890953 C1.99179802,4.84409624 4.45890605,2.66666667 8,2.66666667 C9.32955541,2.66666667 10.5077071,2.97362689 11.528399,3.52879193 L13.2998316,1.75735931 C13.5601812,1.49700979 13.9822912,1.49700979 14.2426407,1.75735931 C14.5029902,2.01770884 14.5029902,2.43981883 14.2426407,2.70016835 L2.70016835,14.2426407 C2.43981883,14.5029902 2.01770884,14.5029902 1.75735931,14.2426407 C1.49700979,13.9822912 1.49700979,13.5601812 1.75735931,13.2998316 L2.99268458,12.0645064 Z M10.5327692,4.52442179 C9.78916637,4.18474972 8.94744819,4 8,4 C5.10147701,4 3.19251101,5.72912485 2.05507405,8.33333333 C2.5388194,9.44088811 3.16211518,10.390162 3.94173324,11.1154577 L5.09248004,9.96471092 C4.82132398,9.48247959 4.66666667,8.92596754 4.66666667,8.33333333 C4.66666667,6.49238417 6.15905083,5 8,5 C8.5926342,5 9.14914626,5.15465732 9.63137759,5.42581337 L10.5327692,4.52442179 Z M8.62444524,6.43274572 C8.42796774,6.36823087 8.21805925,6.33333333 8,6.33333333 C6.8954305,6.33333333 6,7.22876383 6,8.33333333 C6,8.55139258 6.03489754,8.76130107 6.09941239,8.95777857 L8.62444524,6.43274572 Z M6.09966788,12.3856135 C6.67926229,12.5691708 7.31173329,12.6666667 8,12.6666667 C10.898523,12.6666667 12.807489,10.9375418 13.9449259,8.33333333 C13.5542537,7.43887318 13.0725644,6.64764638 12.4910238,5.99425761 L13.441946,5.04333541 C14.2083341,5.88446141 14.8251184,6.91708061 15.2869097,8.08890953 C15.3488079,8.24598055 15.3488079,8.42068612 15.2869097,8.57775713 C14.008202,11.8225704 11.5410939,14 8,14 C6.91955893,14 5.9391008,13.7972918 5.0618755,13.4234059 L6.09966788,12.3856135 Z M6.97815868,11.5071227 L8.1581058,10.3271756 C9.13660108,10.2506524 9.91731907,9.46993442 9.99384225,8.49143913 L11.1737894,7.31149201 C11.2773844,7.63350302 11.3333333,7.97688439 11.3333333,8.33333333 C11.3333333,10.1742825 9.84094917,11.6666667 8,11.6666667 C7.64355106,11.6666667 7.30016969,11.6107177 6.97815868,11.5071227 Z" id="Combined-Shape"></path>
                    </g>
                </g>
            </g>
        </g>
    </g>
</svg>