<?xml version="1.0" encoding="UTF-8"?>
<svg width="24px" height="24px" viewBox="0 0 24 24" version="1.1" xmlns="http://www.w3.org/2000/svg" xmlns:xlink="http://www.w3.org/1999/xlink">
    <g id="Page-1" stroke="none" stroke-width="1" fill="none" fill-rule="evenodd">
        <g id="0010.-Search-#05" transform="translate(-404.000000, -349.000000)" fill="#858E9B" fill-rule="nonzero">
            <g id="Task/01" transform="translate(0.000000, 329.000000)">
                <g id="Icon/s/close-s/gray">
                    <g transform="translate(404.000000, 20.000000)">
                        <path d="M13.9538691,11.5469782 C9.91429542,11.5469782 7.21330792,13.4879423 5.6849356,17.5157793 C5.48900137,18.0321399 4.91157235,18.2918967 4.3952118,18.0959625 C3.87885125,17.9000282 3.6190944,17.3225992 3.81502864,16.8062387 C5.62370428,12.0396968 9.03302835,9.57210792 13.8795456,9.54716915 C13.8939639,9.54623802 15.1110335,9.54553607 17.5307546,9.54506329 L16.4094342,8.42374295 C16.0189099,8.03321866 16.0189099,7.40005368 16.4094342,7.00952939 C16.7999585,6.61900509 17.4331235,6.61900509 17.8236478,7.00952939 L20.6520749,9.83795651 C20.8330393,10.0189209 20.9449681,10.2689209 20.9449681,10.5450633 C20.9449681,10.8212057 20.8330393,11.0712057 20.6520749,11.2521701 L17.8236478,14.0805972 C17.4331235,14.4711215 16.7999585,14.4711215 16.4094342,14.0805972 C16.0189099,13.6900729 16.0189099,13.0569079 16.4094342,12.6663836 L17.5307546,11.5450633 C15.1601344,11.5463399 13.9678392,11.5469782 13.9538691,11.5469782 Z" id="Path"></path>
                    </g>
                </g>
            </g>
        </g>
    </g>
</svg>