<?xml version="1.0" encoding="UTF-8"?>
<svg width="80px" height="80px" viewBox="0 0 80 80" version="1.1" xmlns="http://www.w3.org/2000/svg" xmlns:xlink="http://www.w3.org/1999/xlink">
    <g id="Page-1" stroke="none" stroke-width="1" fill="none" fill-rule="evenodd" stroke-linecap="round" stroke-linejoin="round">
        <g id="0002.-Settings-#02" transform="translate(-44.000000, -129.000000)" stroke="#1991EB" stroke-width="2">
            <g id="Group" transform="translate(24.000000, 109.000000)">
                <g id="Oval-2">
                    <g id="Icon/profile" transform="translate(20.000000, 20.000000)">
                        <path d="M70,68 C70,62.2755556 64.108,57.2884444 58.5577778,55.9008889 L48.5213333,53.3902222 L48.3723299,46.7225906 C51.1661077,44.2150351 52.0431111,39.5386667 52.3417778,35.7835556 C53.6888889,35.7835556 54.7248889,34.8688889 54.8742222,33.6493333 L55.484,28.7804444 C55.6644444,27.3368889 54.5444444,26.0675556 53.0946667,26.0488889 L53.3902222,19.9573333 L54.6097778,18.7408889 C56.184,17.064 53.0878676,9.72088847 44.9105147,9.72088847 C42.8696258,9.72088847 40,9.72088847 38.0564336,9.72088847 C28.2471003,9.81733291 26.6097778,15.6204444 26.6097778,19.9573333 C26.6097778,21.4848889 27.1853333,26.0426667 27.1853333,26.0426667 L26.9333333,26.0426667 C25.468,26.0426667 24.3355556,27.3275556 24.516,28.7804444 L25.1257778,33.6493333 C25.2782222,34.8688889 26.3142222,35.7835556 27.54,35.7835556 L27.9382222,35.7835556 C28.2275556,39.436 29.0609444,44.2181462 31.7333889,46.7225906 L31.4786667,53.3902222 L21.4422222,55.9008889 C15.892,57.2884444 11,62.2755556 11,67.9937778" id="Stroke-8"></path>
                    </g>
                </g>
            </g>
        </g>
    </g>
</svg>