<?xml version="1.0" encoding="UTF-8"?>
<svg width="64px" height="64px" viewBox="0 0 64 64" version="1.1" xmlns="http://www.w3.org/2000/svg" xmlns:xlink="http://www.w3.org/1999/xlink">
    <defs>
        <path d="M38.8954305,34.6666667 L34.6666667,34.6666667 L34.6666667,38.8954305 L44.5522847,48.7810486 C45.5936829,49.8224467 45.5936829,51.5108866 44.5522847,52.5522847 C43.5108866,53.5936829 41.8224467,53.5936829 40.7810486,52.5522847 L34.6666667,46.4379028 L34.6666667,56 C34.6666667,57.4727593 33.4727593,58.6666667 32,58.6666667 C30.5272407,58.6666667 29.3333333,57.4727593 29.3333333,56 L29.3333333,46.4379028 L23.2189514,52.5522847 C22.1775533,53.5936829 20.4891134,53.5936829 19.4477153,52.5522847 C18.4063171,51.5108866 18.4063171,49.8224467 19.4477153,48.7810486 L29.3333333,38.8954305 L29.3333333,34.6666667 L25.1045695,34.6666667 L15.2189514,44.5522847 C14.1775533,45.5936829 12.4891134,45.5936829 11.4477153,44.5522847 C10.4063171,43.5108866 10.4063171,41.8224467 11.4477153,40.7810486 L17.5620972,34.6666667 L8,34.6666667 C6.52724067,34.6666667 5.33333333,33.4727593 5.33333333,32 C5.33333333,30.5272407 6.52724067,29.3333333 8,29.3333333 L17.5620972,29.3333333 L11.4477153,23.2189514 C10.4063171,22.1775533 10.4063171,20.4891134 11.4477153,19.4477153 C12.4891134,18.4063171 14.1775533,18.4063171 15.2189514,19.4477153 L25.1045695,29.3333333 L29.3333333,29.3333333 L29.3333333,25.1045695 L19.4477153,15.2189514 C18.4063171,14.1775533 18.4063171,12.4891134 19.4477153,11.4477153 C20.4891134,10.4063171 22.1775533,10.4063171 23.2189514,11.4477153 L29.3333333,17.5620972 L29.3333333,8 C29.3333333,6.52724067 30.5272407,5.33333333 32,5.33333333 C33.4727593,5.33333333 34.6666667,6.52724067 34.6666667,8 L34.6666667,17.5620972 L40.7810486,11.4477153 C41.8224467,10.4063171 43.5108866,10.4063171 44.5522847,11.4477153 C45.5936829,12.4891134 45.5936829,14.1775533 44.5522847,15.2189514 L34.6666667,25.1045695 L34.6666667,29.3333333 L38.8954305,29.3333333 L48.7810486,19.4477153 C49.8224467,18.4063171 51.5108866,18.4063171 52.5522847,19.4477153 C53.5936829,20.4891134 53.5936829,22.1775533 52.5522847,23.2189514 L46.4379028,29.3333333 L56,29.3333333 C57.4727593,29.3333333 58.6666667,30.5272407 58.6666667,32 C58.6666667,33.4727593 57.4727593,34.6666667 56,34.6666667 L46.4379028,34.6666667 L52.5522847,40.7810486 C53.5936829,41.8224467 53.5936829,43.5108866 52.5522847,44.5522847 C51.5108866,45.5936829 49.8224467,45.5936829 48.7810486,44.5522847 L38.8954305,34.6666667 Z" id="path-1"></path>
    </defs>
    <g id="Page-1" stroke="none" stroke-width="1" fill="none" fill-rule="evenodd">
        <g id="0010.-Onboarding-#01" transform="translate(-188.000000, -221.000000)">
            <g id="Group-2" transform="translate(8.000000, 161.000000)">
                <g id="Icon/s/close-s/gray" transform="translate(180.000000, 60.000000)">
                    <mask id="mask-2" fill="white">
                        <use xlink:href="#path-1"></use>
                    </mask>
                    <use id="Path" fill="#17BCF4" fill-rule="nonzero" xlink:href="#path-1"></use>
                </g>
            </g>
        </g>
    </g>
</svg>