<?xml version="1.0" encoding="UTF-8"?>
<svg width="16px" height="16px" viewBox="0 0 16 16" version="1.1" xmlns="http://www.w3.org/2000/svg" xmlns:xlink="http://www.w3.org/1999/xlink">
    <defs>
        <path d="M8,12.6666667 C10.5773288,12.6666667 12.6666667,10.5773288 12.6666667,8 C12.6666667,5.42267117 10.5773288,3.33333333 8,3.33333333 C5.42267117,3.33333333 3.33333333,5.42267117 3.33333333,8 C3.33333333,10.5773288 5.42267117,12.6666667 8,12.6666667 Z M8,14.6666667 C4.31810167,14.6666667 1.33333333,11.6818983 1.33333333,8 C1.33333333,4.31810167 4.31810167,1.33333333 8,1.33333333 C11.6818983,1.33333333 14.6666667,4.31810167 14.6666667,8 C14.6666667,11.6818983 11.6818983,14.6666667 8,14.6666667 Z M8,7.33333333 C8.36818983,7.33333333 8.66666667,7.63181017 8.66666667,8 L8.66666667,10.6666667 C8.66666667,11.0348565 8.36818983,11.3333333 8,11.3333333 C7.63181017,11.3333333 7.33333333,11.0348565 7.33333333,10.6666667 L7.33333333,8 C7.33333333,7.63181017 7.63181017,7.33333333 8,7.33333333 Z M8,6 C7.63181017,6 7.33333333,5.70152317 7.33333333,5.33333333 C7.33333333,4.9651435 7.63181017,4.66666667 8,4.66666667 C8.36818983,4.66666667 8.66666667,4.9651435 8.66666667,5.33333333 C8.66666667,5.70152317 8.36818983,6 8,6 Z" id="path-1"></path>
    </defs>
    <g id="Page-1" stroke="none" stroke-width="1" fill="none" fill-rule="evenodd">
        <g id="0002.-Settings--Integrations-#03" transform="translate(-392.000000, -317.000000)">
            <g id="Group-2" transform="translate(0.000000, 85.000000)">
                <g id="Group-3" transform="translate(0.000000, 96.000000)">
                    <g id="Header/01" transform="translate(0.000000, 120.000000)">
                        <g id="Icon/info-2" transform="translate(392.000000, 16.000000)">
                            <mask id="mask-2" fill="white">
                                <use xlink:href="#path-1"></use>
                            </mask>
                            <use id="Mask" fill="#1991EB" fill-rule="nonzero" xlink:href="#path-1"></use>
                        </g>
                    </g>
                </g>
            </g>
        </g>
    </g>
</svg>