<?xml version="1.0" encoding="UTF-8"?>
<svg width="24px" height="24px" viewBox="0 0 24 24" version="1.1" xmlns="http://www.w3.org/2000/svg" xmlns:xlink="http://www.w3.org/1999/xlink">
    <g id="Page-1" stroke="none" stroke-width="1" fill-rule="evenodd">
        <g id="0010.-Search-#05" transform="translate(-368.000000, -93.000000)">
            <g id="Cell/sorting" transform="translate(0.000000, 85.000000)">
                <g id="Icon/sort-a" transform="translate(368.000000, 8.000000)">
                    <path d="M10.573409,15.4216641 C10.6369328,15.4216641 10.6890042,15.4417266 10.72979,15.4817109 C10.7704804,15.5221406 10.7909328,15.5733047 10.7909328,15.6360234 C10.7909328,15.6892969 10.7683138,15.7430156 10.7229328,15.7964297 L8.55445663,17.9310703 C8.50917092,17.9710781 8.45700425,17.9911172 8.39809949,17.9911172 C8.34367092,17.9911172 8.29159949,17.9710781 8.24174234,17.9310703 L6.06648044,15.7897031 C5.99857568,15.7183125 5.9826233,15.6402891 6.01893282,15.5554219 C6.05521854,15.4662187 6.12321854,15.4216406 6.22283758,15.4216406 L7.52802806,15.4216406 L7.52802806,6.21410156 C7.52802806,6.15171094 7.54848044,6.10038281 7.58917092,6.0601875 C7.62990901,6.02003906 7.6821233,6 7.74552806,6 L9.05071854,6 C9.11421854,6 9.16628996,6.02013281 9.20709949,6.06021094 C9.24790901,6.1003125 9.26824234,6.15171094 9.26824234,6.214125 L9.26824234,15.4216641 L10.573409,15.4216641 Z M15.7092242,17.2284844 L15.7090589,17.2284844 L15.7090589,16.4321719 L16.5243808,16.4321719 L16.5243808,17.9912578 L12.5885997,17.9912578 L12.5885997,17.3890781 L15.0753078,13.8491719 C15.1291748,13.7687109 15.1765975,13.7086641 15.2168207,13.6685625 L15.2909881,13.6082344 L15.2909881,13.5881953 C15.282089,13.5881953 15.2674066,13.5895781 15.2472714,13.5915703 C15.2270654,13.5938437 15.2101877,13.5949687 15.1966855,13.5949687 C15.1430546,13.6082578 15.0755203,13.6150078 14.9947435,13.6150078 L13.4312327,13.6150078 L13.4312327,14.3845078 L12.6224495,14.3845078 L12.6224495,12.8522344 L16.4436748,12.8522344 L16.4436748,13.4476875 L13.9570139,16.9945078 C13.9300332,17.0299687 13.8827048,17.0880234 13.8154774,17.1681562 L13.74131,17.2417969 L13.74131,17.2551797 L13.8357542,17.2417969 C13.8760482,17.2329609 13.9434409,17.2284844 14.0377907,17.2284844 L15.7092242,17.2284844 Z M16.6525804,10.429875 L17.1247542,10.429875 L17.1247542,11.1391875 L15.1837499,11.1391875 L15.1837499,10.429875 L15.6889709,10.429875 L15.3723078,9.4663125 L13.7345589,9.4663125 L13.4178014,10.429875 L13.9231641,10.429875 L13.9231641,11.1391875 L11.9891233,11.1391875 L11.9891233,10.429875 L12.4607306,10.429875 L14.0107392,6 L15.1024774,6 L16.6525804,10.429875 Z M13.956943,8.73016406 L13.956943,8.73014063 L15.1496405,8.73014063 L14.6644602,7.27136719 L14.5834237,6.95688281 C14.5746662,6.88553906 14.5701576,6.8409375 14.5701576,6.82310156 L14.5431769,6.82310156 L14.5229945,6.95688281 C14.5229945,6.96133594 14.5150632,7.00148438 14.4994838,7.07732813 C14.48381,7.153125 14.4668379,7.21783594 14.448898,7.27139063 L13.956943,8.73016406 Z" id="Combined-Shape"></path>
                </g>
            </g>
        </g>
    </g>
</svg>