<?xml version="1.0" encoding="UTF-8"?>
<svg width="20px" height="20px" viewBox="0 0 20 20" version="1.1" xmlns="http://www.w3.org/2000/svg" xmlns:xlink="http://www.w3.org/1999/xlink">
    <g id="Page-1" stroke="none" stroke-width="1" fill-rule="evenodd">
        <g id="0320.-Chrome--Extenssion-#16" transform="translate(-131.000000, -72.000000)" fill="#858E9B" fill-rule="nonzero">
            <g id="coldstrat">
                <g id="Chrome/submenu" transform="translate(0.000000, 64.000000)">
                    <g id="Group" transform="translate(24.000000, 4.000000)">
                        <g id="Icon/s/close-s/gray" transform="translate(107.000000, 4.000000)">
                            <path d="M12.5,5 L15.8333333,5 C16.2935706,5 16.6666667,5.37309604 16.6666667,5.83333333 C16.6666667,6.29357062 16.2935706,6.66666667 15.8333333,6.66666667 L12.5,6.66666667 C12.0397627,6.66666667 11.6666667,6.29357062 11.6666667,5.83333333 C11.6666667,5.37309604 12.0397627,5 12.5,5 Z M12.5,8.33333333 L14.1666667,8.33333333 C14.626904,8.33333333 15,8.70642938 15,9.16666667 C15,9.62690396 14.626904,10 14.1666667,10 L12.5,10 C12.0397627,10 11.6666667,9.62690396 11.6666667,9.16666667 C11.6666667,8.70642938 12.0397627,8.33333333 12.5,8.33333333 Z M7.72353529,5.72508929 L7.72353529,12.8513867 L7.72353529,12.8513867 L8.81117418,12.8513867 C8.86411068,12.8513867 8.90750354,12.8681055 8.94149164,12.9014258 C8.97540037,12.9351172 8.99244402,12.9777539 8.99244402,13.0300195 C8.99244402,13.0596159 8.98406659,13.0893772 8.96727647,13.1191182 L8.93577735,13.1636914 L7.12871386,14.9425586 C7.09097576,14.9758984 7.04750354,14.9925977 6.99841624,14.9925977 C6.96817814,14.9925977 6.93881307,14.9851758 6.91028573,14.9703494 L6.86811862,14.9425586 L5.05540037,13.1580859 C4.99881307,13.0985938 4.98551941,13.0335742 5.01577735,12.9628516 C5.03996783,12.9033828 5.08107259,12.8677141 5.139051,12.8558253 L5.18569799,12.8513672 L6.27335672,12.8513672 L6.27335672,5.72508929 C6.27335672,5.32463353 6.59799025,5 6.998446,5 C7.39890176,5 7.72353529,5.32463353 7.72353529,5.72508929 Z M12.5,11.6666667 C12.9602373,11.6666667 13.3333333,12.0397627 13.3333333,12.5 C13.3333333,12.9602373 12.9602373,13.3333333 12.5,13.3333333 C12.0397627,13.3333333 11.6666667,12.9602373 11.6666667,12.5 C11.6666667,12.0397627 12.0397627,11.6666667 12.5,11.6666667 Z" id="Shape"></path>
                        </g>
                    </g>
                </g>
            </g>
        </g>
    </g>
</svg>