<?xml version="1.0" encoding="UTF-8"?>
<svg width="25px" height="27px" viewBox="0 0 25 27" version="1.1" xmlns="http://www.w3.org/2000/svg" xmlns:xlink="http://www.w3.org/1999/xlink">
    <g id="Page-1" stroke="none" stroke-width="1" fill="none" fill-rule="evenodd">
        <g id="0060.-Focus-#01" transform="translate(-801.000000, -234.000000)" fill="#FF5E7A" fill-rule="nonzero">
            <g id="Group-21" transform="translate(276.000000, 187.000000)">
                <g id="Group-24" transform="translate(184.000000, 0.000000)">
                    <g id="Group">
                        <g id="Group-13">
                            <g id="Group-3">
                                <g id="Group-12">
                                    <g id="Group-19" transform="translate(8.000000, 38.000000)">
                                        <g id="Icon/calendar" transform="translate(328.000000, 8.000000)">
                                            <path d="M21.4835428,25.0148571 L25.0148571,25.0148571 C25.7419795,25.0148571 26.3314286,25.6043062 26.3314286,26.3314286 C26.3314286,27.0585509 25.7419795,27.648 25.0148571,27.648 L6.58285714,27.648 C5.85573482,27.648 5.26628571,27.0585509 5.26628571,26.3314286 C5.26628571,25.6043062 5.85573482,25.0148571 6.58285714,25.0148571 L10.1141714,25.0148571 C7.98567629,23.5996462 6.58285714,21.1796461 6.58285714,18.432 L6.58285714,11.8491429 C6.58285714,11.1220205 7.17230625,10.5325714 7.89942857,10.5325714 L23.4885949,10.5325714 L27.2298078,10.5325714 C28.5842102,10.5325714 29.7860958,11.4898678 29.7860958,12.8365714 L29.7860958,15.7988571 C29.7860958,18.459667 27.5045527,20.5640807 24.5924065,20.9873355 C24.0248454,22.6484692 22.9192837,24.0602502 21.4835428,25.0148571 Z M25.0148571,13.1657143 L25.0148571,18.194383 C26.2958047,17.7669262 27.152953,16.8174506 27.152953,15.7988571 L27.152953,13.1657143 L25.0148571,13.1657143 Z M9.216,13.1657143 L9.216,18.432 C9.216,21.3404893 11.5737964,23.6982857 14.4822857,23.6982857 L17.1154286,23.6982857 C20.0239179,23.6982857 22.3817143,21.3404893 22.3817143,18.432 L22.3817143,13.1657143 L9.216,13.1657143 Z M13.936944,8.99011205 C13.4227908,9.50426518 12.5891839,9.50426518 12.0750308,8.99011205 C11.5608777,8.47595893 11.5608777,7.64235201 12.0750308,7.12819888 L17.6607703,1.54245937 C18.1749234,1.02830625 19.0085304,1.02830625 19.5226835,1.54245937 C20.0368366,2.0566125 20.0368366,2.89021942 19.5226835,3.40437254 L13.936944,8.99011205 Z M19.2032297,9.17334552 C18.6890766,9.68749864 17.8554696,9.68749864 17.3413165,9.17334552 C16.8271634,8.65919239 16.8271634,7.82558547 17.3413165,7.31143235 L22.927056,1.72569284 C23.4412092,1.21153971 24.2748161,1.21153971 24.7889692,1.72569284 C25.3031223,2.23984596 25.3031223,3.07345288 24.7889692,3.58760601 L19.2032297,9.17334552 Z" id="Combined-Shape"></path>
                                        </g>
                                    </g>
                                </g>
                            </g>
                        </g>
                    </g>
                </g>
            </g>
        </g>
    </g>
</svg>