<?xml version="1.0" encoding="UTF-8"?>
<svg width="24px" height="24px" viewBox="0 0 24 24" version="1.1" xmlns="http://www.w3.org/2000/svg" xmlns:xlink="http://www.w3.org/1999/xlink">
    <g id="Page-1" stroke="none" stroke-width="1" fill-rule="evenodd">
        <g id="0010.-Search-#02" transform="translate(-368.000000, -93.000000)">
            <g id="Group" transform="translate(0.000000, 21.000000)">
                <g id="Cell/sorting">
                    <g transform="translate(0.000000, 64.000000)">
                        <g id="Icon/s/close-s/gray" transform="translate(368.000000, 8.000000)">
                            <g id="sort-by-attributes" transform="translate(6.000000, 6.000000)">
                                <path d="M9,0 L13,0 C13.5522847,-1.01453063e-16 14,0.44771525 14,1 L14,1 C14,1.55228475 13.5522847,2 13,2 L9,2 C8.44771525,2 8,1.55228475 8,1 L8,1 C8,0.44771525 8.44771525,1.01453063e-16 9,0 Z M9,4 L11,4 C11.5522847,4 12,4.44771525 12,5 L12,5 C12,5.55228475 11.5522847,6 11,6 L9,6 C8.44771525,6 8,5.55228475 8,5 L8,5 C8,4.44771525 8.44771525,4 9,4 Z M9,8 C9.55228475,8 10,8.44771525 10,9 C10,9.55228475 9.55228475,10 9,10 C8.44771525,10 8,9.55228475 8,9 C8,8.44771525 8.44771525,8 9,8 Z M4.57340901,9.42166406 C4.63693282,9.42166406 4.68900425,9.44172656 4.72978996,9.48171094 C4.77048044,9.52214063 4.79093282,9.57330469 4.79093282,9.63602344 C4.79093282,9.68929688 4.76831377,9.74301563 4.72293282,9.79642969 L2.55445663,11.9310703 C2.50917092,11.9710781 2.45700425,11.9911172 2.39809949,11.9911172 C2.34367092,11.9911172 2.29159949,11.9710781 2.24174234,11.9310703 L0.0664804401,9.78970313 C-0.00142432181,9.7183125 -0.0173767028,9.64028906 0.018932821,9.55542188 C0.0552185353,9.46621875 0.123218535,9.42164063 0.222837583,9.42164063 L1.52802806,9.42164063 L1.52802806,0.214101563 C1.52802806,0.151710938 1.54848044,0.100382813 1.58917092,0.0601875 C1.62990901,0.0200390625 1.6821233,4.70734562e-14 1.74552806,4.70734562e-14 L3.05071854,4.70734562e-14 C3.11421854,4.70734562e-14 3.16628996,0.0201328125 3.20709949,0.0602109375 C3.24790901,0.1003125 3.26824234,0.151710938 3.26824234,0.214125 L3.26824234,9.42166406 L4.57340901,9.42166406 Z" id="Combined-Shape"></path>
                            </g>
                        </g>
                    </g>
                </g>
            </g>
        </g>
    </g>
</svg>