<?xml version="1.0" encoding="UTF-8"?>
<svg width="64px" height="64px" viewBox="0 0 64 64" version="1.1" xmlns="http://www.w3.org/2000/svg" xmlns:xlink="http://www.w3.org/1999/xlink">
    <defs>
        <path d="M46.1862864,42.4150503 L55.7319865,51.9607503 C56.7733846,53.0021484 56.7733846,54.6905884 55.7319865,55.7319865 C54.6905884,56.7733846 53.0021484,56.7733846 51.9607503,55.7319865 L42.4150503,46.1862864 C38.8025604,48.9944491 34.2632305,50.6666667 29.3333333,50.6666667 C17.5512587,50.6666667 8,41.115408 8,29.3333333 C8,17.5512587 17.5512587,8 29.3333333,8 C41.115408,8 50.6666667,17.5512587 50.6666667,29.3333333 C50.6666667,34.2632305 48.9944491,38.8025604 46.1862864,42.4150503 L46.1862864,42.4150503 Z M29.3333333,45.3333333 C38.1698893,45.3333333 45.3333333,38.1698893 45.3333333,29.3333333 C45.3333333,20.4967773 38.1698893,13.3333333 29.3333333,13.3333333 C20.4967773,13.3333333 13.3333333,20.4967773 13.3333333,29.3333333 C13.3333333,38.1698893 20.4967773,45.3333333 29.3333333,45.3333333 Z" id="path-1"></path>
    </defs>
    <g id="Page-1" stroke="none" stroke-width="1" fill="none" fill-rule="evenodd">
        <g id="0010.-Onboarding-#02" transform="translate(-188.000000, -221.000000)">
            <g id="Group-2" transform="translate(8.000000, 162.000000)">
                <g id="Avatar/empty" transform="translate(180.000000, 59.000000)">
                    <mask id="mask-2" fill="white">
                        <use xlink:href="#path-1"></use>
                    </mask>
                    <use id="Mask" fill="#1991EB" fill-rule="nonzero" xlink:href="#path-1"></use>
                </g>
            </g>
        </g>
    </g>
</svg>