<?xml version="1.0" encoding="UTF-8"?>
<svg width="30px" height="30px" viewBox="0 0 30 30" version="1.1" xmlns="http://www.w3.org/2000/svg" xmlns:xlink="http://www.w3.org/1999/xlink">
    <g id="Page-1" stroke="none" stroke-width="1" fill-rule="evenodd">
        <g id="0010.-Search-#02" transform="translate(-397.000000, -90.000000)" fill-rule="nonzero">
            <g id="Group" transform="translate(0.000000, 21.000000)">
                <g id="Cell/sorting">
                    <g transform="translate(0.000000, 64.000000)">
                        <g id="Icon/s/close-s/gray" transform="translate(397.600000, 5.600000)">
                            <path d="M14.9833333,9.66666667 L14.9833333,14.7416667 L19.3333333,17.3226667 L18.6083333,18.5116667 L13.5333333,15.4666667 L13.5333333,9.66666667 L14.9833333,9.66666667 Z M14.4903333,4.83333333 C19.836,4.83333333 24.1666667,9.164 24.1666667,14.5 C24.1666667,19.836 19.836,24.1666667 14.4903333,24.1666667 C9.15433333,24.1666667 4.83333333,19.836 4.83333333,14.5 C4.83333333,9.164 9.15433333,4.83333333 14.4903333,4.83333333 Z M14.5,22.2333333 C18.7726667,22.2333333 22.2333333,18.7726667 22.2333333,14.5 C22.2333333,10.2273333 18.7726667,6.76666667 14.5,6.76666667 C10.2273333,6.76666667 6.76666667,10.2273333 6.76666667,14.5 C6.76666667,18.7726667 10.2273333,22.2333333 14.5,22.2333333 Z" id="Path-2"></path>
                        </g>
                    </g>
                </g>
            </g>
        </g>
    </g>
</svg>