<?xml version="1.0" encoding="UTF-8"?>
<svg width="32px" height="32px" viewBox="0 0 32 32" version="1.1" xmlns="http://www.w3.org/2000/svg" xmlns:xlink="http://www.w3.org/1999/xlink">
    <g id="Page-1" stroke="none" stroke-width="1" fill="none" fill-rule="evenodd">
        <g id="0060.-Focus--My-Focus-#01" transform="translate(-636.000000, -228.000000)" fill="#73C546">
            <g id="Group-21" transform="translate(276.000000, 220.000000)">
                <g id="Group" transform="translate(192.000000, 0.000000)">
                    <g id="Group-13" transform="translate(160.000000, 0.000000)">
                        <g id="Group-3" transform="translate(8.000000, 8.000000)">
                            <g id="Group-12">
                                <g id="Icon/calendar">
                                    <g id="checkmark-circle-outline" transform="translate(2.633143, 2.633143)">
                                        <path d="M10.1507657,12.2309486 L13.1657143,15.1932343 L21.3547886,5.71392 C21.8430222,5.20561283 22.6449632,5.17195816 23.1740688,5.63757114 C23.7031745,6.10318412 23.771753,6.90289592 23.3296457,7.45179429 L14.1136457,17.9843657 C13.8732575,18.2583646 13.5300333,18.4204427 13.1657143,18.432 C12.8157657,18.4340233 12.4794104,18.2966387 12.2309486,18.0501943 L8.28123429,14.10048 C7.76497744,13.5842232 7.76497744,12.7472054 8.28123429,12.2309486 C8.79749113,11.7146917 9.63450887,11.7146917 10.1507657,12.2309486 Z M25.0148571,11.8491429 C25.7419795,11.8491429 26.3314286,12.438592 26.3314286,13.1657143 C26.3314286,20.4369375 20.4369375,26.3314286 13.1657143,26.3314286 C9.70793947,26.3233613 6.39418074,24.9457845 3.94971429,22.5002057 C0.17843117,18.7492338 -0.965319267,13.0974559 1.05078099,8.17529109 C3.06688125,3.25312632 7.84672916,0.0276320397 13.1657143,0 C14.2164078,0.00435446296 15.2632075,0.128027007 16.2859886,0.36864 C16.7684247,0.454137208 17.1634785,0.800458955 17.3113902,1.26755272 C17.4593018,1.73464648 17.3356016,2.2452388 16.990314,2.59284612 C16.6450263,2.94045345 16.1352736,3.06756951 15.6672,2.92278857 C14.8463894,2.73553726 14.0075963,2.63841384 13.1657143,2.63314286 C10.3610623,2.62412646 7.67072621,3.74391361 5.70075429,5.74025143 C2.70207216,8.75682822 1.81211417,13.2809798 3.44478423,17.2086023 C5.07745429,21.1362248 8.91226554,23.696341 13.1657143,23.6982857 C18.9826929,23.6982857 23.6982857,18.9826929 23.6982857,13.1657143 C23.6982857,12.438592 24.2877348,11.8491429 25.0148571,11.8491429 Z" id="Combined-Shape"></path>
                                    </g>
                                </g>
                            </g>
                        </g>
                    </g>
                </g>
            </g>
        </g>
    </g>
</svg>