<?xml version="1.0" encoding="UTF-8"?>
<svg width="32px" height="32px" viewBox="0 0 32 32" version="1.1" xmlns="http://www.w3.org/2000/svg" xmlns:xlink="http://www.w3.org/1999/xlink">
    <g id="Page-1" stroke="none" stroke-width="1" fill="none" fill-rule="evenodd">
        <g id="0060.-Focus--My-Focus-#01" transform="translate(-476.000000, -228.000000)" fill="#1991EB" fill-rule="nonzero">
            <g id="Group-21" transform="translate(276.000000, 220.000000)">
                <g id="Group" transform="translate(192.000000, 0.000000)">
                    <g id="Group-13">
                        <g id="Icon/calendar" transform="translate(8.000000, 8.000000)">
                            <g id="baseline-access_time-24px-(2)" transform="translate(1.600000, 1.600000)">
                                <path d="M15.0666667,7.73333333 L15.0666667,14.7333333 L21.0666667,18.2933333 L20.0666667,19.9333333 L13.0666667,15.7333333 L13.0666667,7.73333333 L15.0666667,7.73333333 Z M14.3866667,1.06666667 C21.76,1.06666667 27.7333333,7.04 27.7333333,14.4 C27.7333333,21.76 21.76,27.7333333 14.3866667,27.7333333 C7.02666667,27.7333333 1.06666667,21.76 1.06666667,14.4 C1.06666667,7.04 7.02666667,1.06666667 14.3866667,1.06666667 Z M14.4,25.0666667 C20.2933333,25.0666667 25.0666667,20.2933333 25.0666667,14.4 C25.0666667,8.50666667 20.2933333,3.73333333 14.4,3.73333333 C8.50666667,3.73333333 3.73333333,8.50666667 3.73333333,14.4 C3.73333333,20.2933333 8.50666667,25.0666667 14.4,25.0666667 Z" id="Path-2"></path>
                            </g>
                        </g>
                    </g>
                </g>
            </g>
        </g>
    </g>
</svg>