<svg xmlns="http://www.w3.org/2000/svg" width="18" height="18" viewBox="0 0 18 18">
    <path fill="#F7981C" fill-rule="nonzero" d="M14.004 11.298c.252-.638.395-1.34.395-2.068 0-3.054-2.42-5.538-5.399-5.538-.711 0-1.395.148-2.015.406L8.44 5.593c.181-.027.37-.055.559-.055 1.988 0 3.6 1.651 3.6 3.693 0 .193-.016.388-.046.58l1.45 1.487zM9 1.845c3.979 0 7.2 3.305 7.2 7.386a7.44 7.44 0 0 1-.855 3.453l1.322 1.356A9.264 9.264 0 0 0 18 9.23C18 4.135 13.967 0 9 0 7.28 0 5.679.507 4.312 1.356l1.313 1.349A7.079 7.079 0 0 1 9 1.845zM1.143.46L0 1.633l1.89 1.939A9.39 9.39 0 0 0 0 9.232c0 3.413 1.81 6.386 4.491 7.983l.9-1.597A7.427 7.427 0 0 1 1.8 9.231c0-1.626.512-3.12 1.375-4.33l1.289 1.33a5.627 5.627 0 0 0-.863 3 5.56 5.56 0 0 0 2.7 4.79l.899-1.606A3.708 3.708 0 0 1 5.4 9.23c0-.6.154-1.154.396-1.653l1.422 1.459-.018.195c0 1.014.81 1.845 1.8 1.845l.19-.018.01.01L15.957 18l1.143-1.172L2.042 1.384 1.143.46z"/>
</svg>
