<?xml version="1.0" encoding="UTF-8"?>
<svg width="32px" height="32px" viewBox="0 0 32 32" version="1.1" xmlns="http://www.w3.org/2000/svg" xmlns:xlink="http://www.w3.org/1999/xlink">
    <defs>
        <path d="M23.0931432,21.2075251 L27.8659932,25.9803752 C28.3866923,26.5010742 28.3866923,27.3452942 27.8659932,27.8659932 C27.3452942,28.3866923 26.5010742,28.3866923 25.9803752,27.8659932 L21.2075251,23.0931432 C19.4012802,24.4972245 17.1316153,25.3333333 14.6666667,25.3333333 C8.77562934,25.3333333 4,20.557704 4,14.6666667 C4,8.77562934 8.77562934,4 14.6666667,4 C20.557704,4 25.3333333,8.77562934 25.3333333,14.6666667 C25.3333333,17.1316153 24.4972245,19.4012802 23.0931432,21.2075251 L23.0931432,21.2075251 Z M14.6666667,22.6666667 C19.0849447,22.6666667 22.6666667,19.0849447 22.6666667,14.6666667 C22.6666667,10.2483887 19.0849447,6.66666667 14.6666667,6.66666667 C10.2483887,6.66666667 6.66666667,10.2483887 6.66666667,14.6666667 C6.66666667,19.0849447 10.2483887,22.6666667 14.6666667,22.6666667 Z" id="path-1"></path>
    </defs>
    <g id="Page-1" stroke="none" stroke-width="1" fill="#858e9b" fill-rule="evenodd">
        <g id="0010.-Search-#02" transform="translate(-17.000000, -37.000000)">
            <g id="Input/search/project/01" transform="translate(8.000000, 29.000000)">
                <g id="Icon/s/close-s/gray" transform="translate(9.000000, 8.000000)">
                    <mask id="mask-2">
                        <use xlink:href="#path-1"></use>
                    </mask>
                    <use id="Mask" fill-rule="nonzero" xlink:href="#path-1"></use>
                </g>
            </g>
        </g>
    </g>
</svg>