<?xml version="1.0" encoding="UTF-8"?>
<svg width="24px" height="24px" viewBox="0 0 24 24" version="1.1" xmlns="http://www.w3.org/2000/svg" xmlns:xlink="http://www.w3.org/1999/xlink">
    <defs>
        <path d="M15,7 L9,7 L9,8 C9,8.55228475 8.55228475,9 8,9 C7.44771525,9 7,8.55228475 7,8 L7,7 L5,7 C4.44771525,7 4,7.44771525 4,8 L4,20 C4,20.5522847 4.44771525,21 5,21 L19,21 C19.5522847,21 20,20.5522847 20,20 L20,8 C20,7.44771525 19.5522847,7 19,7 L17,7 L17,8 C17,8.55228475 16.5522847,9 16,9 C15.4477153,9 15,8.55228475 15,8 L15,7 Z M17,5 L19,5 C20.6568542,5 22,6.34314575 22,8 L22,20 C22,21.6568542 20.6568542,23 19,23 L5,23 C3.34314575,23 2,21.6568542 2,20 L2,8 C2,6.34314575 3.34314575,5 5,5 L7,5 L7,4 C7,3.44771525 7.44771525,3 8,3 C8.55228475,3 9,3.44771525 9,4 L9,5 L15,5 L15,4 C15,3.44771525 15.4477153,3 16,3 C16.5522847,3 17,3.44771525 17,4 L17,5 Z M7,11 L9,11 C9.55228475,11 10,11.4477153 10,12 L10,14 C10,14.5522847 9.55228475,15 9,15 L7,15 C6.44771525,15 6,14.5522847 6,14 L6,12 C6,11.4477153 6.44771525,11 7,11 Z" id="path-1"></path>
    </defs>
    <g id="Page-1" stroke="none" stroke-width="1" fill="none" fill-rule="evenodd">
        <g id="0010.-Home-#01" transform="translate(-11.000000, -25.000000)">
            <g id="Group">
                <g id="Timeline/type/01" transform="translate(0.000000, 21.000000)">
                    <g id="Timeline">
                        <g id="header">
                            <g id="Timeline/top/01">
                                <g id="Icon/s/close-s/gray" transform="translate(11.000000, 4.000000)">
                                    <mask id="mask-2" fill="white">
                                        <use xlink:href="#path-1"></use>
                                    </mask>
                                    <use id="Mask" fill="#858E9B" fill-rule="nonzero" xlink:href="#path-1"></use>
                                </g>
                            </g>
                        </g>
                    </g>
                </g>
            </g>
        </g>
    </g>
</svg>