<?xml version="1.0" encoding="UTF-8"?>
<svg width="24px" height="24px" viewBox="0 0 24 24" version="1.1" xmlns="http://www.w3.org/2000/svg" xmlns:xlink="http://www.w3.org/1999/xlink">
    <g id="Page-1" stroke="none" stroke-width="1" fill-rule="evenodd">
        <g id="0010.-Search-#06" transform="translate(-368.000000, -93.000000)">
            <g id="Cell/sorting" transform="translate(0.000000, 85.000000)">
                <g id="Icon/sort-z" transform="translate(368.000000, 8.000000)">
                    <path d="M6.21752381,8.56945313 C6.154,8.56945313 6.10192857,8.54939063 6.06114286,8.50940625 C6.02045238,8.46897656 6,8.4178125 6,8.35509375 C6,8.30182031 6.02261905,8.24810156 6.068,8.1946875 L8.23647619,6.06004688 C8.2817619,6.02003906 8.33392857,6 8.39283333,6 C8.4472619,6 8.49933333,6.02003906 8.54919048,6.06004688 L10.7244524,8.20141406 C10.7923571,8.27280469 10.8083095,8.35082812 10.772,8.43569531 C10.7357143,8.52489844 10.6677143,8.56947656 10.5680952,8.56947656 L9.26290476,8.56947656 L9.26290476,17.7770156 C9.26290476,17.8394062 9.24245238,17.8907344 9.2017619,17.9309297 C9.16102381,17.9710781 9.10880952,17.9911172 9.04540476,17.9911172 L7.74021429,17.9911172 C7.67671429,17.9911172 7.62464286,17.9709844 7.58383333,17.9309062 C7.54302381,17.8908047 7.52269048,17.8394062 7.52269048,17.7769922 L7.52269048,8.56945313 L6.21752381,8.56945313 Z M15.7092242,10.37625 L15.7090589,10.37625 L15.7090589,9.5799375 L16.5243808,9.5799375 L16.5243808,11.1390234 L12.5885997,11.1390234 L12.5885997,10.5368437 L15.0753078,6.9969375 C15.1291748,6.91647656 15.1765975,6.85642969 15.2168207,6.81632813 L15.2909881,6.756 L15.2909881,6.73596094 C15.282089,6.73596094 15.2674066,6.73734375 15.2472714,6.73933594 C15.2270654,6.74160937 15.2101877,6.74273437 15.1966855,6.74273437 C15.1430546,6.75602344 15.0755203,6.76277344 14.9947435,6.76277344 L13.4312327,6.76277344 L13.4312327,7.53227344 L12.6224495,7.53227344 L12.6224495,6 L16.4436748,6 L16.4436748,6.59545313 L13.9570139,10.1422734 C13.9300332,10.1777344 13.8827048,10.2357891 13.8154774,10.3159219 L13.74131,10.3895625 L13.74131,10.4029453 L13.8357542,10.3895625 C13.8760482,10.3807266 13.9434409,10.37625 14.0377907,10.37625 L15.7092242,10.37625 Z M16.6525804,17.429875 L17.1247542,17.429875 L17.1247542,18.1391875 L15.1837499,18.1391875 L15.1837499,17.429875 L15.6889709,17.429875 L15.3723078,16.4663125 L13.7345589,16.4663125 L13.4178014,17.429875 L13.9231641,17.429875 L13.9231641,18.1391875 L11.9891233,18.1391875 L11.9891233,17.429875 L12.4607306,17.429875 L14.0107392,13 L15.1024774,13 L16.6525804,17.429875 Z M13.956943,15.7301641 L13.956943,15.7301406 L15.1496405,15.7301406 L14.6644602,14.2713672 L14.5834237,13.9568828 C14.5746662,13.8855391 14.5701576,13.8409375 14.5701576,13.8231016 L14.5431769,13.8231016 L14.5229945,13.9568828 C14.5229945,13.9613359 14.5150632,14.0014844 14.4994838,14.0773281 C14.48381,14.153125 14.4668379,14.2178359 14.448898,14.2713906 L13.956943,15.7301641 Z" id="Combined-Shape"></path>
                </g>
            </g>
        </g>
    </g>
</svg>