<?xml version="1.0" encoding="UTF-8"?>
<svg width="20px" height="20px" viewBox="0 0 20 20" version="1.1" xmlns="http://www.w3.org/2000/svg" xmlns:xlink="http://www.w3.org/1999/xlink">
    <g id="Page-1" stroke="none" stroke-width="1" fill="none" fill-rule="evenodd">
        <g id="0260.-Task--New-#03" transform="translate(-195.000000, -76.000000)">
            <g id="Group-8" transform="translate(182.000000, 60.000000)">
                <g id="Group">
                    <g id="Icon/s/close-s/gray" transform="translate(23.000000, 26.000000) rotate(-360.000000) translate(-23.000000, -26.000000) translate(13.000000, 16.000000)">
                        <g id="flag-(1)">
                            <polyline id="Path" fill="#000000" fill-rule="nonzero" opacity="0" points="20 20 0 20 0 0"></polyline>
                            <path d="M16.0583333,3.9 C15.6725076,3.62198726 15.177244,3.54460232 14.725,3.69166667 C14.1367973,3.85707118 13.5275898,3.93567859 12.9166667,3.925 C12.0138253,3.87599457 11.1285924,3.65539339 10.3083333,3.275 C9.29501548,2.8063599 8.19894562,2.54296326 7.08333333,2.5 C4.675,2.5 3.75,3.33333333 3.58333333,3.45 C3.42221987,3.60791524 3.33201574,3.82440515 3.33333333,4.05 L3.33333333,16.6666667 C3.33333333,17.126904 3.70642938,17.5 4.16666667,17.5 C4.62690396,17.5 5,17.126904 5,16.6666667 L5,13.0833333 C5.66402343,12.8291006 6.37288926,12.7128467 7.08333333,12.7416667 C7.98617467,12.7906721 8.87140764,13.0112733 9.69166667,13.3916667 C10.7049845,13.8603068 11.8010544,14.1237034 12.9166667,14.1666667 C13.9212592,14.2046074 14.9206097,14.0047373 15.8333333,13.5833333 C16.3352512,13.3475511 16.6587357,12.8461501 16.6666667,12.2916667 L16.6666667,5.09166667 C16.6660706,4.62003088 16.4399688,4.17711918 16.0583333,3.9 L16.0583333,3.9 Z" id="Path" fill="#73C546"></path>
                        </g>
                    </g>
                </g>
            </g>
        </g>
    </g>
</svg>