<?xml version="1.0" encoding="UTF-8"?>
<svg width="16px" height="16px" viewBox="0 0 16 16" version="1.1" xmlns="http://www.w3.org/2000/svg" xmlns:xlink="http://www.w3.org/1999/xlink">
    <g id="Page-1" stroke="none" stroke-width="1" fill="none" fill-rule="evenodd">
        <g id="0260.-Focus-#03" transform="translate(-219.000000, -432.000000)">
            <g id="Group-2" transform="translate(0.000000, 318.000000)">
                <g id="Group" transform="translate(32.000000, 112.000000)">
                    <g id="Group-3" transform="translate(92.000000, 0.000000)">
                        <g id="Icon/calendar" transform="translate(95.000000, 2.000000)">
                            <g id="open-in-new">
                                <polygon id="Path" points="0 0 16 0 16 16 0 16"></polygon>
                                <path d="M12,12.6666667 L4,12.6666667 C3.63333333,12.6666667 3.33333333,12.3666667 3.33333333,12 L3.33333333,4 C3.33333333,3.63333333 3.63333333,3.33333333 4,3.33333333 L7.33333333,3.33333333 C7.7,3.33333333 8,3.03333333 8,2.66666667 C8,2.3 7.7,2 7.33333333,2 L3.33333333,2 C2.59333333,2 2,2.6 2,3.33333333 L2,12.6666667 C2,13.4 2.6,14 3.33333333,14 L12.6666667,14 C13.4,14 14,13.4 14,12.6666667 L14,8.66666667 C14,8.3 13.7,8 13.3333333,8 C12.9666667,8 12.6666667,8.3 12.6666667,8.66666667 L12.6666667,12 C12.6666667,12.3666667 12.3666667,12.6666667 12,12.6666667 Z M9.33333333,2.66666667 C9.33333333,3.03333333 9.63333333,3.33333333 10,3.33333333 L11.7266667,3.33333333 L5.64,9.42 C5.38,9.68 5.38,10.1 5.64,10.36 C5.9,10.62 6.32,10.62 6.58,10.36 L12.6666667,4.27333333 L12.6666667,6 C12.6666667,6.36666667 12.9666667,6.66666667 13.3333333,6.66666667 C13.7,6.66666667 14,6.36666667 14,6 L14,2.66666667 C14,2.3 13.7,2 13.3333333,2 L10,2 C9.63333333,2 9.33333333,2.3 9.33333333,2.66666667 Z" id="🔹Icon-Color" fill="#858E9B" fill-rule="nonzero"></path>
                            </g>
                        </g>
                    </g>
                </g>
            </g>
        </g>
    </g>
</svg>