<?xml version="1.0" encoding="UTF-8"?>
<svg width="40px" height="40px" viewBox="0 0 40 40" version="1.1" xmlns="http://www.w3.org/2000/svg" xmlns:xlink="http://www.w3.org/1999/xlink">
    <g id="Button/pause" stroke="none" stroke-width="1" fill="none" fill-rule="evenodd">
        <path d="M20,34.4 C27.9529004,34.4 34.4,27.9529004 34.4,20 C34.4,12.0470996 27.9529004,5.6 20,5.6 C12.0470996,5.6 5.6,12.0470996 5.6,20 C5.6,27.9529004 12.0470996,34.4 20,34.4 Z M20,38 C10.0588745,38 2,29.9411255 2,20 C2,10.0588745 10.0588745,2 20,2 C29.9411255,2 38,10.0588745 38,20 C38,29.9411255 29.9411255,38 20,38 Z M16,15 L18,15 C18.5522847,15 19,15.4477153 19,16 L19,24 C19,24.5522847 18.5522847,25 18,25 L16,25 C15.4477153,25 15,24.5522847 15,24 L15,16 C15,15.4477153 15.4477153,15 16,15 Z M22,15 L24,15 C24.5522847,15 25,15.4477153 25,16 L25,24 C25,24.5522847 24.5522847,25 24,25 L22,25 C21.4477153,25 21,24.5522847 21,24 L21,16 C21,15.4477153 21.4477153,15 22,15 Z" id="Combined-Shape" fill="#858E9B" fill-rule="nonzero"></path>
    </g>
</svg>