<?xml version="1.0" encoding="UTF-8"?>
<svg width="40px" height="40px" viewBox="0 0 40 40" version="1.1" xmlns="http://www.w3.org/2000/svg" xmlns:xlink="http://www.w3.org/1999/xlink">
    <g id="Button/play-" stroke="none" stroke-width="1" fill="none" fill-rule="evenodd">
        <path d="M20,34.4 C27.9529004,34.4 34.4,27.9529004 34.4,20 C34.4,12.0470996 27.9529004,5.6 20,5.6 C12.0470996,5.6 5.6,12.0470996 5.6,20 C5.6,27.9529004 12.0470996,34.4 20,34.4 Z M20,38 C10.0588745,38 2,29.9411255 2,20 C2,10.0588745 10.0588745,2 20,2 C29.9411255,2 38,10.0588745 38,20 C38,29.9411255 29.9411255,38 20,38 Z M17.4996721,14.6914107 L24.9496233,19.0981348 C25.3382141,19.3279903 25.5078376,19.9180502 25.328488,20.4160705 C25.2512641,20.6305067 25.1169417,20.8026552 24.9496233,20.9016257 L17.4996721,25.3083498 C17.1110814,25.5382053 16.6506747,25.3208148 16.4713251,24.8227945 C16.4243351,24.6923119 16.4,24.550314 16.4,24.4066043 L16.4,15.5931562 C16.4,15.0446512 16.7469484,14.6 17.174931,14.6 C17.2870635,14.6 17.3978604,14.631188 17.4996721,14.6914107 Z" id="Combined-Shape" fill="#858E9B" fill-rule="nonzero"></path>
    </g>
</svg>