<?xml version="1.0" encoding="UTF-8"?>
<svg width="360px" height="170px" viewBox="0 0 360 170" version="1.1" xmlns="http://www.w3.org/2000/svg" xmlns:xlink="http://www.w3.org/1999/xlink">
    <g id="Page-1" stroke="none" stroke-width="1" fill="none" fill-rule="evenodd">
        <g id="0010.-Home-#01" transform="translate(-40.000000, -293.000000)">
            <g id="Empystate/01" transform="translate(0.000000, 261.000000)">
                <g id="Illustration/sloth" transform="translate(40.000000, 32.000000)">
                    <path d="M125.037331,88.5024369 C124.97696,102.129545 125.96811,111.927384 128.010779,117.895955 C131.074783,126.848811 138.715191,134.853753 141.093949,135.419013 C143.472707,135.984273 144.500311,134.955856 145.256776,133.723233 C145.761086,132.901486 145.761086,131.205706 145.256776,128.635894 C143.845408,118.932883 143.250718,111.584504 143.472707,106.590755 C143.694697,101.597008 144.884076,95.5675679 147.040845,88.5024369 L125.037331,88.5024369 Z" id="Path-8" stroke="#273039" stroke-width="0.819672131" fill="#444F5A" fill-rule="nonzero"></path>
                    <path d="M209.224344,80.5126969 C209.220336,94.2572536 210.268134,104.143673 212.367747,110.171954 C215.517166,119.214376 223.31036,127.318986 225.728585,127.898634 C228.146809,128.478282 229.186111,127.44509 229.949189,126.204845 C230.457907,125.378015 230.450778,123.66759 229.9278,121.073568 C228.453631,111.281118 227.818773,103.866898 228.023228,98.8309081 C228.227683,93.7949191 229.410257,87.7181594 231.57095,80.6006297 L209.224344,80.5126969 Z" id="Path-8" stroke="#273039" stroke-width="0.819672131" fill="#444F5A" fill-rule="nonzero" transform="translate(220.397647, 104.288437) rotate(-4.000000) translate(-220.397647, -104.288437) "></path>
                    <path d="M67.6551331,79.3416046 C80.4349529,80.8560822 89.7169757,81.8117266 95.5012015,82.208537 C115.98195,83.6135627 132.886472,83.7055167 145.745195,84.1062692 C163.849123,84.670493 179.096228,87.0158245 199.621283,85.6488561 C226.484406,83.8597732 246.777471,83.3015831 260.762242,79.3416046 C269.367084,76.9050264 276.832832,71.5534189 283.159489,63.2867819 C283.966621,61.7577512 284.370187,61.7577512 284.370187,63.2867819 C284.370187,63.5344558 283.699613,66.1591833 281.343441,69.5940337 C280.051024,71.4781302 276.650065,75.3308064 275.895297,76.474672 C275.140529,77.6185375 274.652602,78.4232505 275.289948,78.7682181 C275.714845,78.9981964 277.329109,78.9981964 280.132742,78.7682181 C284.148728,77.5838169 287.175474,76.8193016 289.212982,76.474672 C291.25049,76.1300424 293.87367,75.9389135 297.082523,75.9012854 C294.190665,80.5251825 290.558569,84.1566303 286.186235,86.7956292 C279.627735,90.754128 269.855594,93.1305755 262.577612,94.8230405 C250.001904,97.7474706 227.805763,99.2765015 195.989188,99.4101327 L93.6851536,96.5432001 C92.1460303,96.4008523 91.1371148,96.7831096 90.658407,97.6899731 C90.1796992,98.5968367 90.3814824,99.5524811 91.2637563,100.556906 C92.6668585,101.885923 94.2811233,103.414954 96.1065508,105.143998 C98.8446921,107.737564 102.008278,109.825301 102.160044,110.304477 C102.223101,110.50357 102.667514,111.925229 101.554695,112.024636 C100.881961,112.084731 99.7386467,112.024636 97.9225988,110.877863 C96.1065508,109.73109 93.2071308,107.415711 89.4477084,103.997225 C86.9414268,101.718235 84.7218126,99.4246887 82.788866,97.1165866 C82.0562778,96.2954099 80.643796,95.7417439 78.5514208,95.4555896 C76.4590454,95.1694353 72.2813514,94.9585856 66.0183384,94.8230405 L67.6551331,79.3416046 Z" id="Path-3" stroke="#626264" stroke-width="0.819672131" fill="#828388" fill-rule="nonzero" stroke-linecap="round"></path>
                    <ellipse id="Oval" stroke="#908E8B" stroke-width="0.819672131" fill="#FFFFED" fill-rule="nonzero" transform="translate(65.454074, 86.898317) rotate(8.000000) translate(-65.454074, -86.898317) " cx="65.4540736" cy="86.8983171" rx="5.43160845" ry="7.98903452"></ellipse>
                    <path d="M276.690254,64.9645547 C273.287004,62.2997234 271.432789,59.9794331 271.12761,58.0036839 C270.822431,56.0279347 271.85255,53.0129716 274.217968,48.9587949 C278.363801,51.0686784 280.630064,53.375356 281.016756,55.8788276 C281.403448,58.3822992 279.961281,61.4108749 276.690254,64.9645547 Z" id="Path-9" stroke="#626264" stroke-width="0.819672131" fill="#FFFFF6" fill-rule="nonzero"></path>
                    <path d="M287.079744,65.0060257 C287.794961,60.5648508 288.995295,57.8189875 290.680745,56.7684356 C292.366195,55.7178837 296.16725,55.3463487 302.083912,55.6538305 C300.408223,60.6885682 298.607723,63.8059666 296.682412,65.0060257 C294.7571,66.2060848 291.556211,66.2060848 287.079744,65.0060257 Z" id="Path-10" stroke="#626264" stroke-width="0.819672131" fill="#FFFFF6" fill-rule="nonzero"></path>
                    <path d="M266.977878,98.0548291 C268.509932,96.5440672 273.453076,96.6907814 276.042567,98.0548291 C277.768895,98.9641937 279.780824,101.693095 282.078355,106.241532 C275.251521,106.622061 270.822048,106.277105 268.789935,105.206664 C265.741768,103.601002 265.445824,99.5655905 266.977878,98.0548291 Z" id="Path-11" stroke="#626264" stroke-width="0.819672131" fill="#FFFFF6" fill-rule="nonzero"></path>
                    <path d="M101.905114,113.931414 C104.202406,113.712828 106.379083,117.988215 106.928519,120.62305 C107.294809,122.379607 106.666883,125.167788 105.044742,128.987594 C100.852998,125.949634 98.5506044,123.440271 98.1375601,121.459504 C97.5179936,118.488355 99.6078211,114.15 101.905114,113.931414 Z" id="Path-12" stroke="#626264" stroke-width="0.819672131" fill="#FFFFF6" fill-rule="nonzero"></path>
                    <path d="M102.033195,104.679381 C102.157688,103.098601 104.717547,101.683651 106.987884,101.683651 C108.501443,101.683651 111.182799,102.682228 115.031953,104.679381 C110.835776,107.075966 107.981407,108.274258 106.468847,108.274258 C104.200007,108.274258 101.908702,106.260162 102.033195,104.679381 Z" id="Path-13" stroke="#626264" stroke-width="0.819672131" fill="#FFFFF6" fill-rule="nonzero"></path>
                    <path d="M91.7150839,109.215773 C92.2732375,113.683098 92.0788386,116.808538 91.1318873,118.592094 C90.1849359,120.375651 88.0465483,121.643948 84.7167244,122.396987 C83.7922116,118.085565 83.7922116,115.059208 84.7167244,113.317914 C85.6412371,111.57662 87.9740236,110.20924 91.7150839,109.215773 Z" id="Path-14" stroke="#626264" stroke-width="0.819672131" fill="#FFFFF6" fill-rule="nonzero"></path>
                    <path d="M149.542969,48.6436784 C152.308264,47.8757952 155.523511,45.9754701 159.188709,42.9427033 C164.686506,38.393553 168.194526,33.2149031 168.83445,32.680948 C169.474374,32.146993 169.437309,33.821143 169.437309,34.3912406 C169.437309,34.9613381 169.787079,35.2006722 170.040167,34.9613381 C171.897085,33.2053309 171.493632,32.1738503 173.65732,30.400558 C175.821008,28.6272656 178.436084,27.7030223 179.083049,27.5500704 C179.730015,27.3971185 178.598547,28.7007383 178.480191,29.2603629 C178.361834,29.8199876 178.245502,30.7334601 178.480191,30.400558 C179.685908,28.6902654 180.288767,28.1201679 182.700202,26.9799729 C185.111637,25.8397778 187.342834,24.6995828 188.125931,24.6995828 C188.513941,24.6995828 188.155825,25.0000196 187.523072,25.8397778 C187.377331,26.0331989 187.176378,26.4132639 186.920214,26.9799729 C193.138229,23.1826285 201.176346,21.852401 211.034565,22.9892903 C220.892785,24.1261795 229.332808,27.3567321 236.354634,32.680948 L247.808951,42.3726058 C253.435633,48.8337109 257.052786,54.9147511 258.66041,60.6157262 C260.268033,66.3167014 261.07252,72.3977416 261.07252,78.8588467 C261.091325,91.8488268 260.689419,101.730517 259.866127,108.503917 C258.631189,118.664018 258.175185,121.546629 255.043257,128.45733 C251.911329,135.368032 246.603234,139.859281 245.397516,140.429378 C244.191799,140.999476 242.869764,140.772778 241.780363,140.429378 C241.300287,140.278049 240.574646,139.289183 240.574646,139.289183 C240.574646,139.289183 240.204693,139.010511 239.971787,137.578891 C239.694181,135.87251 239.895134,133.782153 240.574646,131.307818 C241.193581,125.671455 241.193581,119.780447 240.574646,113.634795 C239.955711,107.489143 238.749993,101.408103 236.957493,95.3916744 C236.16915,91.4128493 233.355809,88.3723288 228.51747,86.2701142 C226.152378,85.2425037 222.183096,85.3082468 212.240283,85.7000167 C202.29747,86.0917871 195.106503,85.4427202 190.537366,86.2701142 C185.96823,87.0975087 184.508778,88.5505042 181.494484,94.2514794 C178.480191,99.9524545 180.288767,98.242162 177.274473,110.784307 C174.260179,123.326453 171.700384,132.102518 170.040167,136.438695 C168.37995,140.774873 166.845637,141.740015 164.614438,143.849963 C163.126973,145.256596 161.318397,146.206758 159.188709,146.700451 C156.894971,147.138539 155.287348,146.758474 154.365839,145.560256 C153.44433,144.362038 153.44433,142.651746 154.365839,140.429378 C157.493888,131.480028 158.699606,122.358468 157.982992,113.064697 C156.908071,99.124043 154.365839,89.1206017 150.145827,86.2701142 C145.925816,83.4196266 135.677216,85.1299191 132.060064,84.7363757 C129.648629,84.4740134 126.433382,84.035097 122.414323,83.4196266 C116.373721,84.1771351 110.747039,83.9871028 105.534277,82.8495291 C100.321514,81.7119559 95.4986441,79.6215982 91.065666,76.5784567 C85.0370781,71.2575465 82.0227841,65.3665388 82.0227841,58.9054337 C82.0227841,52.4443285 83.6304075,47.5034834 86.8456544,44.0828983 C90.231686,40.4820589 93.6478858,37.8216038 97.0942539,36.1015331 C100.540622,34.3814624 104.358728,33.4312998 108.548571,33.2510455 C110.947073,32.6788783 112.956603,31.7287157 114.577159,30.400558 C117.007993,28.4083212 117.591453,26.4098753 117.591453,25.8397778 C117.591453,25.2696803 118.071267,26.7355676 118.194312,27.5500704 C118.276341,28.0930722 118.276341,28.8532022 118.194312,29.8304604 C119.125351,29.0611313 120.130116,28.4910338 121.208605,28.1201679 C122.82634,27.563869 123.017182,27.5500704 124.825758,27.5500704 C126.634335,27.5500704 124.825758,28.1201679 123.620041,29.2603629 C122.816229,30.0204929 122.615276,30.9706555 123.017182,32.1108505 C123.772432,31.2671849 124.777197,30.6970874 126.031476,30.400558 C127.912895,29.9557638 129.981063,30.1448295 130.251487,30.400558 C130.521912,30.6562864 128.302359,30.6773695 127.237193,31.540753 C126.527083,32.116342 126.125178,32.876472 126.031476,33.821143 C131.294827,33.9606978 136.117698,35.4809578 140.500087,38.3819232 C144.882476,41.2828885 148.097723,45.0835386 150.145827,49.7838735 L149.542969,48.6436784 Z" id="Path" stroke="#262F37" stroke-width="0.819672131" fill="#444F5A" fill-rule="nonzero"></path>
                    <g id="Шерсть" transform="translate(132.036677, 26.362428)" stroke-width="0.819672131">
                        <path d="M34.6416411,15.3494391 C35.4393653,15.6544947 37.1058147,16.1980908 39.4996261,15.981194 C40.2035742,15.9174112 40.9034151,15.7621111 41.7459854,15.5477013" id="Path-4" stroke="#646C75" transform="translate(38.193813, 15.690215) rotate(144.000000) translate(-38.193813, -15.690215) "></path>
                        <path d="M25.0776208,25.5450512 C25.6830851,25.836026 26.9480518,26.3513881 28.7667329,26.1065151 C29.3015523,26.0345053 29.8333978,25.8721849 30.4737544,25.6496691" id="Path-4" stroke="#646C75" transform="translate(27.775688, 25.857829) rotate(159.000000) translate(-27.775688, -25.857829) "></path>
                        <path d="M40.1349182,33.2671953 C40.9413778,33.5587724 42.6272141,34.0756378 45.0610013,33.8355352 C45.7767049,33.7649283 46.4893497,33.604243 47.3476687,33.3837675" id="Path-4" stroke="#646C75" transform="translate(43.741293, 33.582269) rotate(163.000000) translate(-43.741293, -33.582269) "></path>
                        <path d="M38.9268532,43.5143849 C39.7333128,43.805962 41.4191491,44.3228274 43.8529362,44.0827248 C44.5686398,44.0121179 45.2812847,43.8514327 46.1396037,43.6309572" id="Path-4" stroke="#646C75" transform="translate(42.533228, 43.829458) rotate(163.000000) translate(-42.533228, -43.829458) "></path>
                        <path d="M73.9290945,42.4215614 C74.7325214,42.694102 76.414182,43.1715581 78.8649871,42.8786558 C79.5856958,42.792522 80.3054354,42.6167515 81.1729292,42.378219" id="Path-4" stroke="#646C75" transform="translate(77.551012, 42.674360) rotate(-174.000000) translate(-77.551012, -42.674360) "></path>
                        <path d="M41.9153707,48.0942084 C42.7187973,48.3667491 44.4004581,48.8442051 46.8512635,48.5513028 C47.5719717,48.465169 48.2917115,48.2893985 49.1592055,48.050866" id="Path-4" stroke="#646C75" transform="translate(45.537288, 48.347007) scale(-1, 1) rotate(6.000000) translate(-45.537288, -48.347007) "></path>
                        <path d="M42.0936438,59.4197311 C42.858435,59.7225148 44.4575167,60.2578959 46.7697816,59.9922624 C47.4497492,59.9141472 48.1271518,59.7411969 48.9431263,59.5045215" id="Path-4" stroke="#646C75" transform="translate(45.518385, 59.741873) rotate(-78.000000) translate(-45.518385, -59.741873) "></path>
                        <path d="M22.1434272,52.8137074 C22.6489312,53.0923733 23.708867,53.5781349 25.2733606,53.2493366 C25.7334311,53.1526469 26.1946785,52.9619774 26.7511479,52.7041922" id="Path-4" stroke="#646C75" transform="translate(24.447288, 53.031823) rotate(-116.000000) translate(-24.447288, -53.031823) "></path>
                        <path d="M29.5568024,63.5527661 C30.188603,63.8440865 31.5109627,64.3552648 33.437401,64.0521398 C34.0039085,63.9629995 34.5695885,63.7788374 35.2513762,63.5285888" id="Path-4" stroke="#646C75" transform="translate(32.404089, 63.836800) rotate(-94.000000) translate(-32.404089, -63.836800) "></path>
                        <path d="M36.8047875,82.8863706 C37.4389423,83.1830658 38.7654404,83.7054904 40.6895168,83.4187133 C41.2553298,83.3343805 41.8195543,83.1550156 42.4993612,82.9105479" id="Path-4" stroke="#646C75" transform="translate(39.652074, 83.194175) rotate(-86.000000) translate(-39.652074, -83.194175) "></path>
                        <path d="M30.7792514,78.3675497 C31.4105686,78.6567172 32.7322077,79.1634471 34.6606908,78.8544568 C35.2277997,78.7635918 35.7943612,78.5777633 36.4772948,78.3255228" id="Path-4" stroke="#646C75" transform="translate(33.628273, 78.638237) scale(-1, 1) rotate(-97.000000) translate(-33.628273, -78.638237) "></path>
                        <path d="M31.0999705,93.4525919 C31.6679514,93.7422258 32.8570669,94.2499339 34.5929069,93.9423644 C35.1033653,93.8519172 35.6133971,93.6665056 36.2282096,93.4147676" id="Path-4" stroke="#646C75" transform="translate(33.664090, 93.726377) scale(-1, 1) rotate(-97.000000) translate(-33.664090, -93.726377) "></path>
                        <path d="M4.78902686,82.8850086 C5.42357873,83.1823233 6.75080998,83.7060596 8.67491453,83.4213537 C9.24073582,83.33763 9.8048742,83.1588878 10.4845492,82.9151749" id="Path-4" stroke="#646C75" transform="translate(7.636788, 83.194230) rotate(-85.000000) translate(-7.636788, -83.194230) "></path>
                        <path d="M-1.23920022,78.3346621 C-0.605773397,78.6300786 0.719397848,79.149807 2.64363474,78.858891 C3.20949495,78.7733411 3.77395671,78.5927416 4.45410608,78.3467803" id="Path-4" stroke="#646C75" transform="translate(1.607453, 78.639593) scale(-1, 1) rotate(-88.000000) translate(-1.607453, -78.639593) "></path>
                        <path d="M-0.914446212,93.4486008 C-0.346314173,93.7388923 0.843021471,94.2479538 2.57815791,93.9421155 C3.08840936,93.8521773 3.59814157,93.6672522 4.2125652,93.4160941" id="Path-4" stroke="#646C75" transform="translate(1.649059, 93.726378) scale(-1, 1) rotate(-96.000000) translate(-1.649059, -93.726378) "></path>
                        <path d="M24.6621281,119.268376 C25.2371055,119.569228 26.4389353,120.10061 28.1727825,119.829607 C28.6826548,119.749913 29.1902384,119.575428 29.8015463,119.336915" id="Path-4" stroke="#273039" transform="translate(27.231837, 119.586328) rotate(-77.000000) translate(-27.231837, -119.586328) "></path>
                        <path d="M7.18091254,109.021186 C7.75588998,109.322039 8.95771976,109.853421 10.6915669,109.582418 C11.2014392,109.502724 11.7090229,109.328238 12.3203308,109.089725" id="Path-4" stroke="#273039" transform="translate(9.750622, 109.339138) scale(-1, 1) rotate(-77.000000) translate(-9.750622, -109.339138) "></path>
                        <path d="M9.53210608,108.887366 C9.91811504,109.089554 10.7245791,109.447449 11.8839989,109.274734 C12.2249494,109.223944 12.5639987,109.110198 12.9722218,108.954366" id="Path-4" stroke="#273039" transform="translate(11.252164, 109.103911) scale(-1, 1) rotate(-70.000000) translate(-11.252164, -109.103911) "></path>
                        <path d="M11.907266,108.300642 C12.3053447,108.501996 13.1363996,108.859789 14.3245083,108.704394 C14.6738954,108.658697 15.020721,108.551623 15.4381238,108.404304" id="Path-4" stroke="#273039" transform="translate(13.672695, 108.521542) scale(-1, 1) rotate(-42.000000) translate(-13.672695, -108.521542) "></path>
                        <path d="M93.5575631,101.05115 C94.1325406,101.352002 95.3343703,101.883384 97.0682177,101.612381 C97.5780899,101.532687 98.0856736,101.358202 98.6969813,101.119689" id="Path-4" stroke="#273039" transform="translate(96.127272, 101.369102) scale(-1, 1) rotate(-77.000000) translate(-96.127272, -101.369102) "></path>
                        <path d="M96.5127891,100.348041 C96.8987979,100.550229 97.7052619,100.908124 98.8646819,100.73541 C99.2056324,100.68462 99.5446815,100.570873 99.9529048,100.415041" id="Path-4" stroke="#273039" transform="translate(98.232847, 100.564586) scale(-1, 1) rotate(-70.000000) translate(-98.232847, -100.564586) "></path>
                        <path d="M98.2839164,98.6227408 C98.681995,98.824095 99.5130498,99.1818874 100.701159,99.0264928 C101.050546,98.980796 101.397371,98.8737211 101.814774,98.7264024" id="Path-4" stroke="#273039" transform="translate(100.049345, 98.843641) scale(-1, 1) rotate(-42.000000) translate(-100.049345, -98.843641) "></path>
                        <path d="M20.9693771,119.805763 C21.5602693,120.110304 22.7938935,120.651263 24.557949,120.413951 C25.0767047,120.344164 25.5916958,120.181364 26.2114966,119.957468" id="Path-4" stroke="#273039" transform="translate(23.590437, 120.139129) rotate(-52.000000) translate(-23.590437, -120.139129) "></path>
                        <path d="M19.1572795,117.52861 C19.7481717,117.833151 20.9817959,118.374109 22.7458514,118.136798 C23.2646071,118.067011 23.7795982,117.904211 24.3993991,117.680315" id="Path-4" stroke="#273039" transform="translate(21.778339, 117.861975) rotate(-52.000000) translate(-21.778339, -117.861975) "></path>
                        <path d="M110.434746,114.144781 C111.009724,114.445633 112.211553,114.977015 113.945401,114.706013 C114.455273,114.626319 114.962857,114.451833 115.574164,114.21332" id="Path-4" stroke="#273039" transform="translate(113.004455, 114.462733) rotate(-77.000000) translate(-113.004455, -114.462733) "></path>
                        <path d="M106.741995,114.682168 C107.332887,114.986709 108.566511,115.527668 110.330567,115.290356 C110.849323,115.220569 111.364314,115.05777 111.984115,114.833873" id="Path-4" stroke="#273039" transform="translate(109.363055, 115.015534) rotate(-52.000000) translate(-109.363055, -115.015534) "></path>
                        <path d="M104.929898,112.405015 C105.52079,112.709556 106.754414,113.250515 108.51847,113.013203 C109.037225,112.943416 109.552216,112.780616 110.172017,112.55672" id="Path-4" stroke="#273039" transform="translate(107.550957, 112.738381) rotate(-52.000000) translate(-107.550957, -112.738381) "></path>
                        <path d="M34.0798388,99.0977804 C34.6564724,99.3997941 35.8615086,99.9337513 37.5972613,99.6680182 C38.107694,99.5898738 38.6155861,99.4170737 39.2271911,99.1806327" id="Path-4" stroke="#646C75" transform="translate(36.653515, 99.418868) rotate(-74.000000) translate(-36.653515, -99.418868) "></path>
                        <path d="M79.4252546,79.7419776 C80.0018878,80.0439913 81.2069244,80.5779485 82.9426768,80.3122154 C83.4531094,80.234071 83.9610016,80.0612709 84.5726069,79.8248299" id="Path-4" stroke="#646C75" transform="translate(81.998931, 80.063066) scale(-1, 1) rotate(-74.000000) translate(-81.998931, -80.063066) "></path>
                        <path d="M87.2705254,81.4778766 C87.839488,81.7707333 89.0301721,82.2851072 90.7631096,81.986407 C91.2727144,81.8985679 91.7814231,81.7156843 92.394501,81.4669703" id="Path-4" stroke="#646C75" transform="translate(89.832513, 81.771790) scale(-1, 1) rotate(-92.000000) translate(-89.832513, -81.771790) "></path>
                        <path d="M90.2853919,90.0172013 C90.8543546,90.310058 92.0450387,90.8244319 93.7779761,90.5257317 C94.287581,90.4378926 94.7962897,90.2550089 95.4093676,90.006295" id="Path-4" stroke="#646C75" transform="translate(92.847380, 90.311115) rotate(-92.000000) translate(-92.847380, -90.311115) "></path>
                        <path d="M85.8354587,88.3150683 C86.2864839,88.6156866 87.2284581,89.1468941 88.5792296,88.8789702 C88.9764508,88.8001824 89.3711381,88.626904 89.8462558,88.3899356" id="Path-4" stroke="#646C75" transform="translate(87.840857, 88.633637) scale(-1, 1) rotate(-71.000000) translate(-87.840857, -88.633637) "></path>
                        <path d="M111.808857,86.6072033 C112.259882,86.9078217 113.201857,87.4390291 114.552628,87.1711053 C114.949849,87.0923174 115.344536,86.919039 115.819654,86.6820707" id="Path-4" stroke="#646C75" transform="translate(113.814256, 86.925772) scale(-1, 1) rotate(-71.000000) translate(-113.814256, -86.925772) "></path>
                        <path d="M117.815042,98.0622428 C118.255576,98.3473278 119.178923,98.8459174 120.537976,98.5293437 C120.937633,98.4362494 121.337969,98.2485828 121.82085,97.9942423" id="Path-4" stroke="#646C75" transform="translate(119.817946, 98.312596) scale(-1, 1) rotate(73.000000) translate(-119.817946, -98.312596) "></path>
                        <path d="M72.7194755,50.9127071 C73.5900008,51.1848463 75.4120579,51.6614623 78.0669502,51.3673389 C78.8476741,51.2808461 79.6273014,51.1047172 80.5669632,50.8657529" id="Path-4" stroke="#646C75" transform="translate(76.643219, 51.162846) scale(-1, 1) rotate(6.000000) translate(-76.643219, -51.162846) "></path>
                        <path d="M56.4105974,52.0512838 C57.2811228,52.3234229 59.1031796,52.8000389 61.7580721,52.5059155 C62.5387959,52.4194227 63.3184233,52.2432938 64.2580851,52.0043295" id="Path-4" stroke="#646C75" transform="translate(60.334341, 52.301423) scale(-1, 1) rotate(6.000000) translate(-60.334341, -52.301423) "></path>
                        <path d="M38.3663362,23.267898 C38.9718005,23.5588727 40.2367673,24.0742349 42.0554484,23.8293619 C42.5902678,23.757352 43.1221133,23.5950317 43.7624699,23.3725158" id="Path-4" stroke="#646C75" transform="translate(41.064403, 23.580676) rotate(159.000000) translate(-41.064403, -23.580676) "></path>
                        <path d="M54.0244497,12.7129434 C54.8295132,13.0085873 56.5120449,13.5336516 58.9369512,13.3021658 C59.6500432,13.2340927 60.359711,13.0756355 61.2143321,12.8577555" id="Path-4" stroke="#646C75" transform="translate(57.619391, 13.036214) rotate(158.000000) translate(-57.619391, -13.036214) "></path>
                        <path d="M70.8928392,13.8589852 C71.6996471,14.1403109 73.3873035,14.6361676 75.835341,14.3702139 C76.555235,14.2920049 77.2731178,14.1241605 78.1380624,13.8951848" id="Path-4" stroke="#646C75" transform="translate(74.515451, 14.152582) rotate(175.000000) translate(-74.515451, -14.152582) "></path>
                        <path d="M70.8928392,5.8889488 C71.6996471,6.17027455 73.3873035,6.66613125 75.835341,6.40017752 C76.555235,6.32196849 77.2731178,6.15412408 78.1380624,5.92514841" id="Path-4" stroke="#646C75" transform="translate(74.515451, 6.182546) rotate(175.000000) translate(-74.515451, -6.182546) "></path>
                        <path d="M89.6182012,9.97743669 C90.4158893,10.2436162 92.0864547,10.7073942 94.5308234,10.3906931 C95.2496386,10.2975608 95.9683719,10.1144504 96.8349148,9.86696694" id="Path-4" stroke="#646C75" transform="translate(93.226558, 10.182171) rotate(-164.000000) translate(-93.226558, -10.182171) "></path>
                        <path d="M89.0209182,17.4074009 C89.8142305,17.6708518 91.4761063,18.1285561 93.9128016,17.7991522 C94.6293603,17.7022844 95.3462931,17.5150939 96.2108006,17.2625888" id="Path-4" stroke="#646C75" transform="translate(92.615859, 17.588278) rotate(-158.000000) translate(-92.615859, -17.588278) "></path>
                        <path d="M102.778048,20.1400804 C103.364279,20.4063953 104.593483,20.8692078 106.40781,20.5378209 C106.94135,20.44037 107.476253,20.2517413 108.121584,19.9972485" id="Path-4" stroke="#646C75" transform="translate(105.449816, 20.325098) rotate(-147.000000) translate(-105.449816, -20.325098) "></path>
                        <path d="M104.603577,27.5452185 C105.185154,27.8122665 106.404823,28.2759531 108.207435,27.9388215 C108.737528,27.8396813 109.269189,27.6487283 109.91067,27.3912448" id="Path-4" stroke="#646C75" transform="translate(107.257124, 27.724174) rotate(-140.000000) translate(-107.257124, -27.724174) "></path>
                        <path d="M99.7713169,33.8073899 C100.352894,34.0744379 101.572563,34.5381245 103.375174,34.2009929 C103.905268,34.1018527 104.436929,33.9108998 105.07841,33.6534162" id="Path-4" stroke="#646C75" transform="translate(102.424864, 33.986345) rotate(-140.000000) translate(-102.424864, -33.986345) "></path>
                        <path d="M69.5309774,23.2590413 C70.4721936,23.5430062 72.4408902,24.0443438 75.2954065,23.7859205 C76.1348345,23.709926 76.971808,23.5442516 77.9802083,23.317879" id="Path-4" stroke="#646C75" transform="translate(73.755593, 23.558358) rotate(173.000000) translate(-73.755593, -23.558358) "></path>
                        <path d="M54.4365606,21.5504531 C55.3777964,21.8373829 57.3462501,22.3448375 60.1974008,22.0943853 C61.0358385,22.0207347 61.8715504,21.8573155 62.8783486,21.6336357" id="Path-4" stroke="#646C75" transform="translate(58.657455, 21.856116) rotate(170.000000) translate(-58.657455, -21.856116) "></path>
                        <path d="M55.6522396,28.4808256 C56.4594264,28.7664345 58.1473989,29.2711253 60.5908277,29.0166555 C61.3093666,28.9418236 62.0254356,28.7772255 62.8880577,28.5521249" id="Path-4" stroke="#646C75" transform="translate(59.270149, 28.783512) rotate(170.000000) translate(-59.270149, -28.783512) "></path>
                        <path d="M53.8404551,35.9812419 C54.5130401,36.261897 55.9198508,36.7563505 57.9596362,36.488357 C58.5594758,36.4095482 59.1575598,36.2411052 59.8781411,36.0114082" id="Path-4" stroke="#646C75" transform="translate(56.859298, 36.273358) rotate(175.000000) translate(-56.859298, -36.273358) "></path>
                        <path d="M53.8404551,55.9063328 C54.5130401,56.1869879 55.9198508,56.6814415 57.9596362,56.413448 C58.5594758,56.3346391 59.1575598,56.1661961 59.8781411,55.9364992" id="Path-4" stroke="#646C75" transform="translate(56.859298, 56.198449) rotate(175.000000) translate(-56.859298, -56.198449) "></path>
                        <path d="M89.475054,45.7209954 C90.1418894,45.9915511 91.5382204,46.4647099 93.5792736,46.164027 C94.1794859,46.0756052 94.7794437,45.8974119 95.5027295,45.6559183" id="Path-4" stroke="#646C75" transform="translate(92.488892, 45.958253) rotate(-169.000000) translate(-92.488892, -45.958253) "></path>
                        <path d="M102.790289,48.644594 C103.441781,48.9091533 104.80757,49.3682014 106.820858,49.0303754 C107.412905,48.9310309 108.006229,48.7404247 108.721971,48.4835226" id="Path-4" stroke="#646C75" transform="translate(105.756130, 48.816673) rotate(-146.000000) translate(-105.756130, -48.816673) "></path>
                        <path d="M24.870094,46.3674406 C25.5215851,46.6319999 26.8873749,47.091048 28.9006624,46.753222 C29.4927097,46.6538775 30.0860334,46.4632713 30.8017752,46.2063693" id="Path-4" stroke="#646C75" transform="translate(27.835935, 46.539520) rotate(-146.000000) translate(-27.835935, -46.539520) "></path>
                        <path d="M26.0661639,33.1334261 C26.7393442,33.4191849 28.1467412,33.9241155 30.1803633,33.6692072 C30.7783905,33.5942464 31.3740275,33.4294479 32.0914701,33.2040848" id="Path-4" stroke="#646C75" transform="translate(29.078817, 33.436179) rotate(168.000000) translate(-29.078817, -33.436179) "></path>
                        <path d="M28.4668615,39.4373917 C29.1356513,39.7101449 30.5356973,40.1880237 32.5781565,39.8954995 C33.1787824,39.8094769 33.7787893,39.6337958 34.5020265,39.3953648" id="Path-4" stroke="#646C75" transform="translate(31.484444, 39.691228) rotate(-173.000000) translate(-31.484444, -39.691228) "></path>
                        <path d="M105.729827,63.9991444 C106.48916,64.2763605 108.079789,64.7586638 110.411355,64.4203116 C111.096999,64.3208128 111.78294,64.1269279 112.610059,63.8651455" id="Path-4" stroke="#646C75" transform="translate(109.169943, 64.200729) rotate(-110.000000) translate(-109.169943, -64.200729) "></path>
                        <path d="M111.802459,60.5306319 C112.560312,60.8162861 114.146993,61.3157536 116.463769,60.9971258 C117.145063,60.9034274 117.82584,60.7148548 118.646491,60.4593326" id="Path-4" stroke="#646C75" transform="translate(115.224475, 60.779524) rotate(-100.000000) translate(-115.224475, -60.779524) "></path>
                        <path d="M113.010524,75.332128 C113.768377,75.6177822 115.355059,76.1172497 117.671834,75.7986219 C118.353128,75.7049235 119.033905,75.5163509 119.854556,75.2608287" id="Path-4" stroke="#646C75" transform="translate(116.432540, 75.581020) rotate(-100.000000) translate(-116.432540, -75.581020) "></path>
                        <path d="M72.5431618,33.5228693 C73.482479,33.7981777 75.4480841,34.2814797 78.3074873,33.9976599 C79.1483523,33.914197 79.9876135,33.7411448 80.9990246,33.5059039" id="Path-4" stroke="#646C75" transform="translate(76.771093, 33.794970) rotate(-178.000000) translate(-76.771093, -33.794970) "></path>
                        <path d="M113.37488,37.5028617 C114.204673,37.7690009 115.943498,38.2291435 118.498638,37.8693921 C119.250028,37.7636001 120.002317,37.5644199 120.909609,37.296549" id="Path-4" stroke="#646C75" transform="translate(117.142245, 37.649049) rotate(-123.000000) translate(-117.142245, -37.649049) "></path>
                        <path d="M109.750685,42.6264565 C110.580477,42.8925958 112.319303,43.3527384 114.874443,42.992987 C115.625833,42.8871949 116.378122,42.6880147 117.285414,42.4201439" id="Path-4" stroke="#646C75" transform="translate(113.518050, 42.772644) rotate(-123.000000) translate(-113.518050, -42.772644) "></path>
                        <path d="M87.3099167,25.5579888 C88.1646715,25.8180794 89.9554885,26.2682998 92.583663,25.923197 C93.3565299,25.8217126 94.1300185,25.6294766 95.0627887,25.3707611" id="Path-4" stroke="#646C75" transform="translate(91.186353, 25.709586) rotate(-152.000000) translate(-91.186353, -25.709586) "></path>
                        <path d="M50.3200053,5.67809393 C51.1214358,5.97956389 52.7958807,6.51619789 55.203874,6.29492868 C55.9119924,6.22986008 56.6162278,6.07380001 57.464163,5.85863013" id="Path-4" stroke="#646C75" transform="translate(53.892084, 6.012557) rotate(150.000000) translate(-53.892084, -6.012557) "></path>
                        <path d="M68.9692195,0.569361087 C69.7761629,0.851537137 71.4640058,1.34915409 73.9112832,1.08555871 C74.6309537,1.00804323 75.3485189,0.840872604 76.2130543,0.61270345" id="Path-4" stroke="#646C75" transform="translate(72.591137, 0.864775) rotate(174.000000) translate(-72.591137, -0.864775) "></path>
                        <path d="M84.6883096,2.78556849 C85.3534878,3.05466661 86.7466218,3.52465017 88.7858817,3.2180202 C89.3855667,3.12784954 89.9852582,2.94778997 90.7083003,2.7040114" id="Path-4" stroke="#646C75" transform="translate(87.698305, 3.011126) rotate(-166.000000) translate(-87.698305, -3.011126) "></path>
                        <path d="M99.6910268,10.4335213 C100.738118,10.6873384 102.931653,11.1239095 106.148192,10.7534099 C107.094079,10.6444571 108.040488,10.444263 109.181717,10.1758072" id="Path-4" stroke="#646C75" transform="translate(104.436372, 10.536182) rotate(-146.000000) translate(-104.436372, -10.536182) "></path>
                        <path d="M111.845064,21.610758 C112.751451,21.8688316 114.650781,22.3134464 117.441767,21.9454642 C118.262512,21.8372517 119.084239,21.6369613 120.075275,21.368141" id="Path-4" stroke="#646C75" transform="translate(115.960169, 21.726814) rotate(-137.000000) translate(-115.960169, -21.726814) "></path>
                        <path d="M117.712708,32.1436141 C118.475258,32.414765 120.073148,32.8849627 122.420873,32.5352392 C123.111268,32.432396 123.802461,32.2357408 124.636061,31.9707886" id="Path-4" stroke="#646C75" transform="translate(121.174384, 32.315261) rotate(-118.000000) translate(-121.174384, -32.315261) "></path>
                        <path d="M121.398166,50.8404207 C122.156018,51.1260751 123.7427,51.6255425 126.059476,51.306915 C126.74077,51.2132162 127.421547,51.0246437 128.242198,50.7691214" id="Path-4" stroke="#646C75" transform="translate(124.820182, 51.089313) rotate(-100.000000) translate(-124.820182, -51.089313) "></path>
                    </g>
                    <g id="Морда" transform="translate(86.023896, 48.017280)">
                        <path d="M1.80662429,9.95456266 C1.99969196,7.29558105 2.80263609,5.20986315 4.21545667,3.69740899 C6.33468755,1.42872774 8.43091335,0.853248228 10.8397457,0.284416076 C12.445634,-0.0948053589 14.8544664,-0.0948053589 18.0662429,0.284416076 C19.1779614,0.380893414 20.3823776,0.570504131 21.6794915,0.853248228 C22.9766053,1.13599232 24.3817575,1.51521376 25.8949481,1.99091253 C27.1672275,2.38554894 28.1709076,2.57515966 28.9059886,2.55974468 C29.4465544,2.54840877 32.0561229,1.97957662 36.7346939,0.853248228 C42.7567748,-0.663637512 47.9759117,0.0948053587 52.3921044,3.12857683 C54.8678624,4.8293369 56.2481194,6.42812345 57.2097692,8.2480662 C57.7122465,9.19901533 57.9129825,10.7159011 57.8119772,12.7987234 C57.3681548,18.3364915 55.1600584,22.1287058 51.1876882,24.1753665 C47.2153179,26.2220271 40.7917649,27.1700806 31.9170291,27.0195272 C24.2890599,27.0195272 17.8655069,26.0714736 12.64637,24.1753665 C4.81766477,21.3312057 3.01104048,16.7805485 2.40883239,14.5052199 C2.00736032,12.9883341 1.80662429,11.4714484 1.80662429,9.95456266 Z" id="Path-2" stroke="#38444F" stroke-width="0.819672131" fill="#FFFFF6" fill-rule="nonzero"></path>
                        <path d="M23.4861158,16.2117163 C24.9587553,17.5085139 28.0400746,19.788006 32.5192372,18.4870449 C33.8364242,18.1044714 35.1508008,17.3027553 36.7346939,16.2117163" id="Path-4" stroke="#38444F" stroke-width="1.2295082" stroke-linecap="round"></path>
                        <path d="M6.86883689,20.2433086 C10.1815861,16.8069303 12.9031607,14.3774266 15.0335609,12.9547976 C18.2291609,10.8208542 22.6056142,9.94773984 23.7309083,8.60679537 C24.8562024,7.2658509 23.7739897,5.65828012 22.0630068,4.57823495 C20.9223516,3.85820484 19.3925159,3.51153394 17.4734998,3.53822224 C13.6300902,3.95962039 10.5489098,4.73836477 8.22995874,5.87445538 C4.75153212,7.57859129 3.58399072,8.69866889 2.40031762,10.9228112 C1.21664451,13.1469534 2.46389282,15.4253741 3.46300293,16.9791537 C4.12907633,18.0150067 5.26435432,19.1030584 6.86883689,20.2433086 Z" id="Path-7" fill="#BAABA2" fill-rule="nonzero" transform="translate(13.055090, 11.890050) rotate(15.000000) translate(-13.055090, -11.890050) "></path>
                        <path d="M38.3079728,21.5966486 C42.7422507,17.6081215 46.0348815,14.9038598 48.1858653,13.4838639 C51.412341,11.35387 55.8427622,10.4986441 56.9755681,9.15550066 C58.1083741,7.81235729 57.0024207,6.18925922 55.2622358,5.09356515 C54.1021125,4.36310245 52.5496955,4.00620894 50.6049847,4.02288463 C47.5467904,4.07202595 44.5971528,4.62049684 41.7560719,5.6682973 C37.4944504,7.23999802 35.7286361,7.84469565 34.7938666,11.4643363 C34.1706869,13.87743 35.3420556,17.2548675 38.3079728,21.5966486 Z" id="Path-7" fill="#BAABA2" fill-rule="nonzero" transform="translate(46.033681, 12.809487) scale(-1, 1) rotate(9.000000) translate(-46.033681, -12.809487) "></path>
                        <path d="M12.0481203,9.10715528 C12.5809978,9.57635141 13.6967831,10.4002353 15.3272938,9.91910992 C15.8067779,9.77762543 16.286017,9.48366244 16.8637568,9.08397259" id="Path-4" stroke="#38444F" stroke-width="1.2295082" stroke-linecap="round" transform="translate(14.455939, 9.574470) rotate(5.000000) translate(-14.455939, -9.574470) "></path>
                        <path d="M42.1521254,9.07945357 C42.6905367,9.55501734 43.8159772,10.3921575 45.4400653,9.92958785 C45.9176607,9.79356004 46.3931533,9.50497705 46.9658245,9.11175105" id="Path-4" stroke="#38444F" stroke-width="1.2295082" stroke-linecap="round" transform="translate(44.558975, 9.571987) rotate(-7.000000) translate(-44.558975, -9.571987) "></path>
                        <path d="M26.4971562,12.0158769 C27.2757393,11.0257743 32.2442347,10.9088603 33.1214453,12.0158769 C33.9986559,13.1228934 31.4793199,15.074052 29.8219798,15.074052 C28.1646396,15.074052 25.7185732,13.0059795 26.4971562,12.0158769 Z" id="Path-5" fill="#38444F" fill-rule="nonzero"></path>
                    </g>
                    <path d="M149.771151,53.6663713 C150.82591,62.5022561 148.796369,69.5013492 143.682529,74.6636505 C138.56869,79.8259518 131.019054,82.8696885 121.03362,83.7948604" id="Path-15" stroke="#273039" stroke-width="0.819672131"></path>
                </g>
            </g>
        </g>
    </g>
</svg>