<?xml version="1.0" encoding="UTF-8"?>
<svg width="360px" height="170px" viewBox="0 0 360 170" version="1.1" xmlns="http://www.w3.org/2000/svg" xmlns:xlink="http://www.w3.org/1999/xlink">
    <defs>
        <path d="M140.0389,0.0538275863 C128.620105,0.0538275863 135.560316,0.0538275863 160.859532,0.0538275863 C177.483801,0.0538275863 221.279389,4.91330718 292.246298,14.6322664 C297.882977,15.4042301 302.083912,20.2196976 302.083912,25.9089931 L302.083912,32.9517136 C302.083902,34.5991621 300.861406,35.990781 299.227691,36.2030596 C223.844027,45.9981219 177.629453,50.895653 160.583968,50.895653 C135.165169,50.895653 128.316813,50.895653 140.0389,50.895653 C75.4671106,50.895653 0,28.9808917 0,25.4747403 C0,21.9685889 75.4671106,-1.26252284 140.0389,0.0538275863 Z" id="path-1"></path>
        <path d="M7.00194498,3.09796633e-11 L205.05696,3.09796633e-11 C200.694497,11.8272024 198.513265,22.1748993 198.513265,31.0430906 C198.513265,39.911282 200.694497,53.1014672 205.05696,70.6136464 L7.00194498,70.6136464 C2.33398166,53.3069458 -2.4158453e-13,40.1054985 -2.4158453e-13,31.0093045 C-2.4158453e-13,21.9131106 2.33398166,11.5766758 7.00194498,3.09796633e-11 Z" id="path-3"></path>
        <path d="M140.0389,16.9472751 C128.620105,16.9472751 135.560316,16.9472751 160.859532,16.9472751 C177.483801,16.9472751 221.279389,21.8067547 292.246298,31.5257139 C297.882977,32.2976777 302.083912,37.1131452 302.083912,42.8024407 L302.083912,49.8451612 C302.083902,51.4926097 300.861406,52.8842286 299.227691,53.0965072 C223.844027,62.8915694 177.629453,67.7891006 160.583968,67.7891006 C135.165169,67.7891006 128.316813,67.7891006 140.0389,67.7891006 C75.4671106,67.7891006 3.63797881e-12,45.8743393 3.63797881e-12,42.3681879 C3.63797881e-12,38.8620364 75.4671106,15.6309247 140.0389,16.9472751 Z" id="path-5"></path>
    </defs>
    <g id="Page-1" stroke="none" stroke-width="1" fill="none" fill-rule="evenodd">
        <g id="0010.-Home-#00" transform="translate(-40.000000, -293.000000)">
            <g id="Empystate/01" transform="translate(0.000000, 261.000000)">
                <g id="Illustration/sloth-rocket-2" transform="translate(40.000000, 32.000000)">
                    <g id="Group-3" transform="translate(124.615295, 79.593470)" stroke-width="0.819672131">
                        <g id="Group" transform="translate(0.000000, 7.990007)">
                            <path d="M0.422036707,0.918960273 C0.361665609,14.5460681 1.35281505,24.3439078 3.39548444,30.3124781 C6.45948853,39.2653343 14.0998963,47.2702768 16.4786545,47.8355367 C18.8574127,48.4007967 19.885016,47.3723797 20.6414813,46.1397569 C21.1457911,45.3180091 21.1457911,43.6222292 20.6414813,41.0524172 C19.2301129,31.3494067 18.6354234,24.0010273 18.8574127,19.0072789 C19.0794019,14.0135311 20.268781,7.98409134 22.4255499,0.918960273 L0.422036707,0.918960273 Z" id="Path-8" stroke="#273039" fill="#444F5A" fill-rule="nonzero"></path>
                            <path d="M12.210409,21.66396 C12.8449608,21.9612747 14.1721921,22.485011 16.0962967,22.2003051 C16.6621179,22.1165814 17.2262563,21.9378392 17.9059313,21.6941263" id="Path-4" stroke="#646C75" transform="translate(15.058170, 21.973182) rotate(-85.000000) translate(-15.058170, -21.973182) "></path>
                            <path d="M6.1821819,17.1136135 C6.81560872,17.4090301 8.14077997,17.9287584 10.0650169,17.6378424 C10.6308771,17.5522925 11.1953388,17.371693 11.8754882,17.1257317" id="Path-4" stroke="#646C75" transform="translate(9.028835, 17.418544) scale(-1, 1) rotate(-88.000000) translate(-9.028835, -17.418544) "></path>
                            <path d="M6.50693591,32.2275523 C7.07506795,32.5178437 8.26440359,33.0269052 9.99954003,32.7210669 C10.5097915,32.6311287 11.0195237,32.4462037 11.6339473,32.1950455" id="Path-4" stroke="#646C75" transform="translate(9.070442, 32.505329) scale(-1, 1) rotate(-96.000000) translate(-9.070442, -32.505329) "></path>
                            <path d="M14.6022947,47.8001374 C15.1772721,48.10099 16.3791019,48.632372 18.112949,48.3613692 C18.6228214,48.2816751 19.130405,48.1071896 19.7417129,47.8686763" id="Path-4" stroke="#273039" transform="translate(17.172004, 48.118089) scale(-1, 1) rotate(-77.000000) translate(-17.172004, -48.118089) "></path>
                            <path d="M16.9534882,47.6663177 C17.3394972,47.8685057 18.1459612,48.2264001 19.305381,48.0536858 C19.6463315,48.0028958 19.9853808,47.889149 20.3936039,47.7333171" id="Path-4" stroke="#273039" transform="translate(18.673546, 47.882863) scale(-1, 1) rotate(-70.000000) translate(-18.673546, -47.882863) "></path>
                            <path d="M19.3286481,47.0795936 C19.7267268,47.2809478 20.5577817,47.6387402 21.7458905,47.4833456 C22.0952775,47.4376488 22.4421031,47.3305739 22.8595059,47.1832552" id="Path-4" stroke="#273039" transform="translate(21.094077, 47.300494) scale(-1, 1) rotate(-42.000000) translate(-21.094077, -47.300494) "></path>
                        </g>
                        <g id="Group-2" transform="translate(82.676702, 0.000000)">
                            <path d="M1.93234677,0.919227411 C1.92833925,14.6637841 2.97613654,24.5502034 5.07574957,30.5784842 C8.2251691,39.6209062 16.0183628,47.7255165 18.4365875,48.3051645 C20.8548121,48.8848126 21.8941141,47.8516203 22.657192,46.611375 C23.1659101,45.7845456 23.1587804,44.0741202 22.6358029,41.4800988 C21.1616333,31.6876483 20.526776,24.2734282 20.731231,19.2374386 C20.935686,14.2014496 22.1182601,8.1246899 24.2789532,1.00716016 L1.93234677,0.919227411 Z" id="Path-8" stroke="#273039" fill="#444F5A" fill-rule="nonzero" transform="translate(13.105650, 24.694967) rotate(-4.000000) translate(-13.105650, -24.694967) "></path>
                            <path d="M18.3022427,47.8201081 C18.8772202,48.1209607 20.0790499,48.6523427 21.8128973,48.3813399 C22.3227695,48.3016458 22.8303533,48.1271603 23.4416609,47.888647" id="Path-4" stroke="#273039" transform="translate(20.871952, 48.138060) scale(-1, 1) rotate(-77.000000) translate(-20.871952, -48.138060) "></path>
                            <path d="M23.7693066,48.8758078 C23.4472893,48.5822305 22.8351516,47.9468093 22.6009049,46.7982392 C22.53202,46.4604794 22.5229455,46.1029737 22.5297589,45.6660717" id="Path-4" stroke="#273039"></path>
                            <path d="M26.2538052,46.6297411 C25.8232429,46.5130099 24.966239,46.2228172 24.1872813,45.3123365 C23.9582132,45.0445916 23.7721188,44.732948 23.5605034,44.3441717" id="Path-4" stroke="#273039"></path>
                            <path d="M4.16993421,26.5109361 C4.7465674,26.8129498 5.95160402,27.346907 7.68735644,27.0811739 C8.19778907,27.0030295 8.70568121,26.8302293 9.31728654,26.5937884" id="Path-4" stroke="#646C75" transform="translate(6.743610, 26.832024) scale(-1, 1) rotate(-74.000000) translate(-6.743610, -26.832024) "></path>
                            <path d="M12.015205,28.2468351 C12.5841677,28.5396918 13.7748517,29.0540657 15.5077892,28.7553655 C16.017394,28.6675264 16.5261027,28.4846427 17.1391807,28.2359288" id="Path-4" stroke="#646C75" transform="translate(14.577193, 28.540749) scale(-1, 1) rotate(-92.000000) translate(-14.577193, -28.540749) "></path>
                            <path d="M15.0300716,36.7861598 C15.5990342,37.0790165 16.7897183,37.5933904 18.5226558,37.2946902 C19.0322606,37.2068511 19.5409693,37.0239674 20.1540472,36.7752535" id="Path-4" stroke="#646C75" transform="translate(17.592059, 37.080073) rotate(-92.000000) translate(-17.592059, -37.080073) "></path>
                            <path d="M10.5801384,35.0840267 C11.0311635,35.3846451 11.9731377,35.9158525 13.3239092,35.6479287 C13.7211304,35.5691408 14.1158177,35.3958624 14.5909354,35.1588941" id="Path-4" stroke="#646C75" transform="translate(12.585537, 35.402596) scale(-1, 1) rotate(-71.000000) translate(-12.585537, -35.402596) "></path>
                        </g>
                    </g>
                    <g id="Group-7" transform="translate(173.974306, 98.546328) rotate(-354.000000) translate(-173.974306, -98.546328) translate(14.109899, 57.769301)">
                        <path d="M198.828949,27.2964206 C228.771023,-2.39327799 280.95922,-5.0366341 308.667856,6.91977521 C308.710862,6.93833274 308.75471,6.95739046 308.7994,6.97694836 L308.799414,6.9769163 C309.274932,7.18502245 309.491712,7.73920962 309.283606,8.21472799 C309.132973,8.55892107 308.791826,8.78033247 308.416124,8.77774195 C308.416124,8.77774195 308.416124,8.77774195 308.416124,8.77774195 C274.81761,8.54607577 262.434025,19.9884662 255.775785,32.6077105 C233.062355,36.2828099 167.354833,58.5052473 198.828949,27.2964206 Z" id="Path-9" stroke="#434442" stroke-width="0.5" fill="#D6D6CA"></path>
                        <path d="M203.056405,67.6286973 C226.811883,49.1375666 262.172137,36.920374 312.596083,46.9172824 C312.660639,46.9300812 312.726799,46.9432695 312.794562,46.9568474 L312.794562,46.9568479 C313.391236,47.0764047 313.778016,47.6570243 313.658459,48.253698 C313.568765,48.701336 313.212309,49.0472976 312.762191,49.1235792 C312.762191,49.1235792 312.762191,49.1235792 312.762191,49.1235792 C286.875862,53.5105453 267.511225,63.31297 260.00324,72.9399872 C251.929201,83.2928207 178.349691,86.8602646 203.056405,67.6286973 Z" id="Path-9" stroke="#434442" stroke-width="0.5" fill="#D6D6CA" transform="translate(258.366956, 62.361664) scale(1, -1) translate(-258.366956, -62.361664) "></path>
                        <g id="Rectangle-2" transform="translate(0.000000, 16.893448)">
                            <rect id="Rectangle" stroke="#434442" stroke-width="0.5" fill="#565F67" x="299.083079" y="18.8841333" width="6.00166713" height="15.0642446" rx="2.86885246"></rect>
                            <mask id="mask-2" fill="white">
                                <use xlink:href="#path-1"></use>
                            </mask>
                            <use id="Rectangle" stroke="#434442" stroke-width="0.5" fill="#E7E7DF" xlink:href="#path-1"></use>
                            <g id="Group-5" mask="url(#mask-2)">
                                <g transform="translate(50.013893, -5.595264)">
                                    <mask id="mask-4" fill="white">
                                        <use xlink:href="#path-3"></use>
                                    </mask>
                                    <use id="Rectangle" stroke="#434442" stroke-width="0.5" fill="#78797D" fill-rule="evenodd" xlink:href="#path-3"></use>
                                    <g id="Group-6" stroke="none" stroke-width="1" fill="none" fill-rule="evenodd" mask="url(#mask-4)">
                                        <g transform="translate(113.437504, 42.357156) rotate(-30.000000) translate(-113.437504, -42.357156) translate(-0.054021, -59.872573)" fill="#17BCF4" id="Rectangle" stroke="#434442" stroke-width="0.5">
                                            <polygon points="57.0158377 120.153232 44.1606341 131.81214 6.71772847e-15 11.6589077 12.8552037 -4.57315227e-16"></polygon>
                                            <polygon points="87.0241734 120.153232 74.1689697 131.81214 30.0083356 11.6589077 42.8635393 -4.57315227e-16"></polygon>
                                            <polygon points="117.032509 120.153232 104.177305 131.81214 60.0166713 11.6589077 72.871875 -4.57315227e-16"></polygon>
                                            <polygon points="158.024658 158.737246 145.169454 170.396154 90.0250069 11.6589077 102.880211 3.65083896e-13"></polygon>
                                            <polygon points="188.032994 158.737246 178.839061 183.257492 120.033343 11.6589077 132.888546 1.28095068e-11"></polygon>
                                            <polygon points="226.247274 179.504152 217.053342 204.024397 158.247623 32.4258131 171.102827 20.7669054"></polygon>
                                        </g>
                                    </g>
                                </g>
                            </g>
                        </g>
                        <mask id="mask-6" fill="white">
                            <use xlink:href="#path-5"></use>
                        </mask>
                        <use id="Rectangle" stroke="#434442" stroke-width="0.819672131" xlink:href="#path-5"></use>
                    </g>
                    <path d="M219.134487,106.913844 C276.690619,107.555291 311.34377,107.981512 323.093938,108.192509 L331.881026,108.378711 C332.544163,108.392763 333.077078,108.929427 333.086482,109.592646 C333.095873,110.254927 332.57734,110.804825 331.915649,110.834301 L322.885414,111.236568 C311.125875,111.712178 276.521596,112.872157 219.072578,114.716505 C216.956945,114.784446 215.186825,113.124447 215.118904,111.008814 C215.11728,110.958202 215.116658,110.907562 215.11704,110.856926 C215.133591,108.662605 216.925856,106.897174 219.120176,106.913725 C219.124946,106.913761 219.129717,106.913805 219.134487,106.913844 Z" id="Rectangle" stroke="#434442" stroke-width="0.5" fill="#D6D6CA" transform="translate(274.095152, 110.856926) rotate(7.000000) translate(-274.095152, -110.856926) "></path>
                    <g id="Group-4" transform="translate(82.022784, 22.596367)" stroke-width="0.819672131">
                        <path d="M67.5201845,26.0473116 C70.2854803,25.2794284 73.5007269,23.3791033 77.1659251,20.3463364 C82.6637218,15.7971861 86.1717414,10.6185362 86.8116658,10.0845812 C87.4515901,9.55062612 87.4145245,11.2247762 87.4145245,11.7948737 C87.4145245,12.3649712 87.7642954,12.6043053 88.0173833,12.3649712 C89.8743011,10.608964 89.4708475,9.57748341 91.6345361,7.8041911 C93.798224,6.03089879 96.4132994,5.10665544 97.0602652,4.95370352 C97.7072309,4.8007516 96.5757633,6.10437142 96.4574064,6.66399607 C96.3390495,7.22362072 96.2227177,8.13709327 96.4574064,7.8041911 C97.663124,6.09389855 98.2659828,5.52380103 100.677418,4.38360601 C103.088853,3.24341098 105.32005,2.10321595 106.103147,2.10321595 C106.491157,2.10321595 106.13304,2.40365277 105.500288,3.24341098 C105.354547,3.436832 105.153594,3.81689701 104.897429,4.38360601 C111.115445,0.586261655 119.153562,-0.743965883 129.011781,0.392923402 C138.87,1.52981269 147.310024,4.76036527 154.33185,10.0845812 L165.786167,19.7762389 C171.412849,26.2373441 175.030002,32.3183842 176.637625,38.0193594 C178.245249,43.7203345 179.049736,49.8013747 179.049736,56.2624799 C179.068541,69.2524599 178.666635,79.1341506 177.843343,85.9075504 C176.608405,96.067651 176.152401,98.9502624 173.020473,105.860963 C169.888545,112.771665 164.58045,117.262914 163.374732,117.833011 C162.169015,118.403109 160.84698,118.176411 159.757579,117.833011 C159.277503,117.681682 158.551862,116.692816 158.551862,116.692816 C158.551862,116.692816 158.181909,116.414144 157.949003,114.982524 C157.671397,113.276143 157.87235,111.185786 158.551862,108.711451 C159.170797,103.075088 159.170797,97.1840804 158.551862,91.038428 C157.932927,84.8927762 156.727209,78.8117359 154.934709,72.7953076 C154.146366,68.8164824 151.333025,65.7759619 146.494686,63.6737473 C144.129594,62.6461369 140.160312,62.7118799 130.217499,63.1036498 C120.274685,63.4954202 113.083719,62.8463534 108.514582,63.6737473 C103.945445,64.5011418 102.485994,65.9541374 99.4717003,71.6551125 C96.4574064,77.3560877 98.2659828,75.6457951 95.2516888,88.1879404 C92.2373949,100.730086 89.6775998,109.506152 88.0173833,113.842329 C86.3571663,118.178506 84.8228527,119.143648 82.5916542,121.253596 C81.1041888,122.660229 79.2956124,123.610391 77.1659251,124.104084 C74.8721873,124.542172 73.2645636,124.162107 72.3430548,122.963889 C71.421546,121.765672 71.421546,120.055379 72.3430548,117.833011 C75.471104,108.883661 76.6768216,99.7621007 75.9602075,90.4683305 C74.8852868,76.5276761 72.3430548,66.5242349 68.1230433,63.6737473 C63.9030317,60.8232597 53.6544323,62.5335523 50.0372796,62.1400088 C47.6258444,61.8776465 44.4105977,61.4387302 40.3915389,60.8232597 C34.3509373,61.5807683 28.7242552,61.3907359 23.5114928,60.2531622 C18.2987303,59.1155891 13.47586,57.0252313 9.04288185,53.9820898 C3.01429395,48.6611797 0,42.770172 0,36.3090668 C0,29.8479617 1.6076234,24.9071165 4.82287032,21.4865315 C8.20890189,17.885692 11.6251017,15.225237 15.0714697,13.5051662 C18.5178378,11.7850955 22.3359434,10.834933 26.5257868,10.6546787 C28.9242894,10.0825114 30.9338187,9.13234888 32.5543747,7.8041911 C34.9852086,5.81195438 35.5686686,3.81350849 35.5686686,3.24341098 C35.5686686,2.67331346 36.0484832,4.13920074 36.1715274,4.95370352 C36.2535568,5.49670538 36.2535568,6.25683539 36.1715274,7.23409358 C37.1025668,6.46476443 38.1073317,5.89466692 39.1858213,5.52380103 C40.8035561,4.96750217 40.9943977,4.95370352 42.8029741,4.95370352 C44.6115505,4.95370352 42.8029741,5.52380103 41.5972565,6.66399607 C40.793445,7.42412607 40.5924917,8.37428861 40.9943977,9.51448364 C41.7496478,8.67081805 42.7544126,8.10072054 44.0086917,7.8041911 C45.8901109,7.35939691 47.9582788,7.54846269 48.2287032,7.8041911 C48.4991276,8.05991951 46.2795745,8.08100269 45.2144092,8.94438613 C44.5042989,9.51997511 44.1023934,10.2801051 44.0086917,11.2247762 C49.2720432,11.3643309 54.0949135,12.8845909 58.4773026,15.7855563 C62.8596918,18.6865216 66.074939,22.4871717 68.1230433,27.1875066 L67.5201845,26.0473116 Z" id="Path" stroke="#262F37" fill="#444F5A" fill-rule="nonzero"></path>
                        <g id="Шерсть" transform="translate(69.019172, 3.766061)">
                            <path d="M15.6363618,15.3494391 C16.434086,15.6544947 18.1005355,16.1980908 20.4943469,15.981194 C21.1982949,15.9174112 21.8981358,15.7621111 22.7407061,15.5477013" id="Path-4" stroke="#646C75" transform="translate(19.188534, 15.690215) rotate(144.000000) translate(-19.188534, -15.690215) "></path>
                            <path d="M6.07234153,25.5450512 C6.67780581,25.836026 7.9427726,26.3513881 9.76145367,26.1065151 C10.2962731,26.0345053 10.8281186,25.8721849 11.4684752,25.6496691" id="Path-4" stroke="#646C75" transform="translate(8.770408, 25.857829) rotate(159.000000) translate(-8.770408, -25.857829) "></path>
                            <path d="M21.129639,33.2671953 C21.9360986,33.5587724 23.6219348,34.0756378 26.055722,33.8355352 C26.7714256,33.7649283 27.4840705,33.604243 28.3423895,33.3837675" id="Path-4" stroke="#646C75" transform="translate(24.736014, 33.582269) rotate(163.000000) translate(-24.736014, -33.582269) "></path>
                            <path d="M19.9215739,43.5143849 C20.7280335,43.805962 22.4138698,44.3228274 24.847657,44.0827248 C25.5633606,44.0121179 26.2760054,43.8514327 27.1343245,43.6309572" id="Path-4" stroke="#646C75" transform="translate(23.527949, 43.829458) rotate(163.000000) translate(-23.527949, -43.829458) "></path>
                            <path d="M54.9238152,42.4215614 C55.7272421,42.694102 57.4089028,43.1715581 59.8597079,42.8786558 C60.5804166,42.792522 61.3001562,42.6167515 62.16765,42.378219" id="Path-4" stroke="#646C75" transform="translate(58.545733, 42.674360) rotate(-174.000000) translate(-58.545733, -42.674360) "></path>
                            <path d="M22.9100915,48.0942084 C23.713518,48.3667491 25.3951788,48.8442051 27.8459843,48.5513028 C28.5666924,48.465169 29.2864323,48.2893985 30.1539263,48.050866" id="Path-4" stroke="#646C75" transform="translate(26.532009, 48.347007) scale(-1, 1) rotate(6.000000) translate(-26.532009, -48.347007) "></path>
                            <path d="M23.0883646,59.4197311 C23.8531558,59.7225148 25.4522375,60.2578959 27.7645024,59.9922624 C28.4444699,59.9141472 29.1218726,59.7411969 29.9378471,59.5045215" id="Path-4" stroke="#646C75" transform="translate(26.513106, 59.741873) rotate(-78.000000) translate(-26.513106, -59.741873) "></path>
                            <path d="M3.13814797,52.8137074 C3.64365197,53.0923733 4.70358774,53.5781349 6.26808136,53.2493366 C6.72815184,53.1526469 7.18939921,52.9619774 7.74586862,52.7041922" id="Path-4" stroke="#646C75" transform="translate(5.442008, 53.031823) rotate(-116.000000) translate(-5.442008, -53.031823) "></path>
                            <path d="M10.5515232,63.5527661 C11.1833238,63.8440865 12.5056835,64.3552648 14.4321217,64.0521398 C14.9986293,63.9629995 15.5643093,63.7788374 16.2460969,63.5285888" id="Path-4" stroke="#646C75" transform="translate(13.398810, 63.836800) rotate(-94.000000) translate(-13.398810, -63.836800) "></path>
                            <path d="M17.7995082,82.8863706 C18.4336631,83.1830658 19.7601611,83.7054904 21.6842375,83.4187133 C22.2500505,83.3343805 22.8142751,83.1550156 23.494082,82.9105479" id="Path-4" stroke="#646C75" transform="translate(20.646795, 83.194175) rotate(-86.000000) translate(-20.646795, -83.194175) "></path>
                            <path d="M11.7739722,78.3675497 C12.4052894,78.6567172 13.7269284,79.1634471 15.6554115,78.8544568 C16.2225204,78.7635918 16.7890819,78.5777633 17.4720155,78.3255228" id="Path-4" stroke="#646C75" transform="translate(14.622994, 78.638237) scale(-1, 1) rotate(-97.000000) translate(-14.622994, -78.638237) "></path>
                            <path d="M12.0946913,93.4525919 C12.6626721,93.7422258 13.8517876,94.2499339 15.5876277,93.9423644 C16.098086,93.8519172 16.6081179,93.6665056 17.2229303,93.4147676" id="Path-4" stroke="#646C75" transform="translate(14.658811, 93.726377) scale(-1, 1) rotate(-97.000000) translate(-14.658811, -93.726377) "></path>
                            <path d="M5.65684885,119.268376 C6.23182627,119.569228 7.43365605,120.10061 9.16750322,119.829607 C9.67737553,119.749913 10.1849592,119.575428 10.7962671,119.336915" id="Path-4" stroke="#273039" transform="translate(8.226558, 119.586328) rotate(-77.000000) translate(-8.226558, -119.586328) "></path>
                            <path d="M1.96409786,119.805763 C2.55499006,120.110304 3.78861421,120.651263 5.55266976,120.413951 C6.07142544,120.344164 6.58641654,120.181364 7.20621737,119.957468" id="Path-4" stroke="#273039" transform="translate(4.585158, 120.139129) rotate(-52.000000) translate(-4.585158, -120.139129) "></path>
                            <path d="M0.152000292,117.52861 C0.742892495,117.833151 1.97651664,118.374109 3.74057219,118.136798 C4.25932788,118.067011 4.77431898,117.904211 5.39411981,117.680315" id="Path-4" stroke="#273039" transform="translate(2.773060, 117.861975) rotate(-52.000000) translate(-2.773060, -117.861975) "></path>
                            <path d="M91.4294668,114.144781 C92.0044444,114.445633 93.2062741,114.977015 94.9401214,114.706013 C95.4499937,114.626319 95.9575774,114.451833 96.5688851,114.21332" id="Path-4" stroke="#273039" transform="translate(93.999176, 114.462733) rotate(-77.000000) translate(-93.999176, -114.462733) "></path>
                            <path d="M87.7367159,114.682168 C88.3276082,114.986709 89.5612322,115.527668 91.325288,115.290356 C91.8440436,115.220569 92.3590348,115.05777 92.9788354,114.833873" id="Path-4" stroke="#273039" transform="translate(90.357776, 115.015534) rotate(-52.000000) translate(-90.357776, -115.015534) "></path>
                            <path d="M85.9246183,112.405015 C86.5155106,112.709556 87.7491346,113.250515 89.5131904,113.013203 C90.0319461,112.943416 90.5469372,112.780616 91.1667378,112.55672" id="Path-4" stroke="#273039" transform="translate(88.545678, 112.738381) rotate(-52.000000) translate(-88.545678, -112.738381) "></path>
                            <path d="M15.0745595,99.0977804 C15.6511932,99.3997941 16.8562293,99.9337513 18.5919821,99.6680182 C19.1024148,99.5898738 19.6103069,99.4170737 20.2219119,99.1806327" id="Path-4" stroke="#646C75" transform="translate(17.648236, 99.418868) rotate(-74.000000) translate(-17.648236, -99.418868) "></path>
                            <path d="M92.8035779,86.6072033 C93.2546031,86.9078217 94.1965773,87.4390291 95.5473487,87.1711053 C95.94457,87.0923174 96.3392572,86.919039 96.814375,86.6820707" id="Path-4" stroke="#646C75" transform="translate(94.808976, 86.925772) scale(-1, 1) rotate(-71.000000) translate(-94.808976, -86.925772) "></path>
                            <path d="M98.8097632,98.0622428 C99.2502968,98.3473278 100.173644,98.8459174 101.532697,98.5293437 C101.932354,98.4362494 102.33269,98.2485828 102.815571,97.9942423" id="Path-4" stroke="#646C75" transform="translate(100.812667, 98.312596) scale(-1, 1) rotate(73.000000) translate(-100.812667, -98.312596) "></path>
                            <path d="M53.7141963,50.9127071 C54.5847216,51.1848463 56.4067786,51.6614623 59.0616709,51.3673389 C59.8423948,51.2808461 60.6220222,51.1047172 61.5616839,50.8657529" id="Path-4" stroke="#646C75" transform="translate(57.637940, 51.162846) scale(-1, 1) rotate(6.000000) translate(-57.637940, -51.162846) "></path>
                            <path d="M37.4053182,52.0512838 C38.2758435,52.3234229 40.0979004,52.8000389 42.7527928,52.5059155 C43.5335167,52.4194227 44.3131441,52.2432938 45.2528058,52.0043295" id="Path-4" stroke="#646C75" transform="translate(41.329062, 52.301423) scale(-1, 1) rotate(6.000000) translate(-41.329062, -52.301423) "></path>
                            <path d="M19.361057,23.267898 C19.9665213,23.5588727 21.2314881,24.0742349 23.0501691,23.8293619 C23.5849885,23.757352 24.116834,23.5950317 24.7571906,23.3725158" id="Path-4" stroke="#646C75" transform="translate(22.059124, 23.580676) rotate(159.000000) translate(-22.059124, -23.580676) "></path>
                            <path d="M35.0191705,12.7129434 C35.824234,13.0085873 37.5067657,13.5336516 39.931672,13.3021658 C40.644764,13.2340927 41.3544317,13.0756355 42.2090528,12.8577555" id="Path-4" stroke="#646C75" transform="translate(38.614112, 13.036214) rotate(158.000000) translate(-38.614112, -13.036214) "></path>
                            <path d="M51.8875599,13.8589852 C52.6943678,14.1403109 54.3820242,14.6361676 56.8300617,14.3702139 C57.5499558,14.2920049 58.2678385,14.1241605 59.1327831,13.8951848" id="Path-4" stroke="#646C75" transform="translate(55.510172, 14.152582) rotate(175.000000) translate(-55.510172, -14.152582) "></path>
                            <path d="M51.8875599,5.8889488 C52.6943678,6.17027455 54.3820242,6.66613125 56.8300617,6.40017752 C57.5499558,6.32196849 58.2678385,6.15412408 59.1327831,5.92514841" id="Path-4" stroke="#646C75" transform="translate(55.510172, 6.182546) rotate(175.000000) translate(-55.510172, -6.182546) "></path>
                            <path d="M70.612922,9.97743669 C71.4106101,10.2436162 73.0811755,10.7073942 75.5255442,10.3906931 C76.2443594,10.2975608 76.9630927,10.1144504 77.8296355,9.86696694" id="Path-4" stroke="#646C75" transform="translate(74.221279, 10.182171) rotate(-164.000000) translate(-74.221279, -10.182171) "></path>
                            <path d="M70.015639,17.4074009 C70.8089513,17.6708518 72.4708271,18.1285561 74.9075224,17.7991522 C75.624081,17.7022844 76.3410139,17.5150939 77.2055213,17.2625888" id="Path-4" stroke="#646C75" transform="translate(73.610580, 17.588278) rotate(-158.000000) translate(-73.610580, -17.588278) "></path>
                            <path d="M83.7727685,20.1400804 C84.3589995,20.4063953 85.5882034,20.8692078 87.4025312,20.5378209 C87.9360704,20.44037 88.4709737,20.2517413 89.116305,19.9972485" id="Path-4" stroke="#646C75" transform="translate(86.444537, 20.325098) rotate(-147.000000) translate(-86.444537, -20.325098) "></path>
                            <path d="M85.5982978,27.5452185 C86.1798752,27.8122665 87.3995438,28.2759531 89.2021553,27.9388215 C89.7322492,27.8396813 90.2639097,27.6487283 90.9053912,27.3912448" id="Path-4" stroke="#646C75" transform="translate(88.251845, 27.724174) rotate(-140.000000) translate(-88.251845, -27.724174) "></path>
                            <path d="M80.7660376,33.8073899 C81.3476151,34.0744379 82.5672837,34.5381245 84.3698952,34.2009929 C84.8999891,34.1018527 85.4316495,33.9108998 86.0731311,33.6534162" id="Path-4" stroke="#646C75" transform="translate(83.419584, 33.986345) rotate(-140.000000) translate(-83.419584, -33.986345) "></path>
                            <path d="M50.5256982,23.2590413 C51.4669144,23.5430062 53.435611,24.0443438 56.2901273,23.7859205 C57.1295552,23.709926 57.9665288,23.5442516 58.9749291,23.317879" id="Path-4" stroke="#646C75" transform="translate(54.750314, 23.558358) rotate(173.000000) translate(-54.750314, -23.558358) "></path>
                            <path d="M35.4312813,21.5504531 C36.3725172,21.8373829 38.3409709,22.3448375 41.1921216,22.0943853 C42.0305592,22.0207347 42.8662712,21.8573155 43.8730694,21.6336357" id="Path-4" stroke="#646C75" transform="translate(39.652175, 21.856116) rotate(170.000000) translate(-39.652175, -21.856116) "></path>
                            <path d="M36.6469603,28.4808256 C37.4541471,28.7664345 39.1421196,29.2711253 41.5855485,29.0166555 C42.3040874,28.9418236 43.0201563,28.7772255 43.8827784,28.5521249" id="Path-4" stroke="#646C75" transform="translate(40.264869, 28.783512) rotate(170.000000) translate(-40.264869, -28.783512) "></path>
                            <path d="M34.8351759,35.9812419 C35.5077608,36.261897 36.9145716,36.7563505 38.954357,36.488357 C39.5541966,36.4095482 40.1522806,36.2411052 40.8728619,36.0114082" id="Path-4" stroke="#646C75" transform="translate(37.854019, 36.273358) rotate(175.000000) translate(-37.854019, -36.273358) "></path>
                            <path d="M34.8351759,55.9063328 C35.5077608,56.1869879 36.9145716,56.6814415 38.954357,56.413448 C39.5541966,56.3346391 40.1522806,56.1661961 40.8728619,55.9364992" id="Path-4" stroke="#646C75" transform="translate(37.854019, 56.198449) rotate(175.000000) translate(-37.854019, -56.198449) "></path>
                            <path d="M70.4697748,45.7209954 C71.1366102,45.9915511 72.5329412,46.4647099 74.5739943,46.164027 C75.1742066,46.0756052 75.7741645,45.8974119 76.4974503,45.6559183" id="Path-4" stroke="#646C75" transform="translate(73.483613, 45.958253) rotate(-169.000000) translate(-73.483613, -45.958253) "></path>
                            <path d="M83.7850102,48.644594 C84.4365016,48.9091533 85.8022911,49.3682014 87.8155787,49.0303754 C88.4076259,48.9310309 89.0009497,48.7404247 89.7166914,48.4835226" id="Path-4" stroke="#646C75" transform="translate(86.750851, 48.816673) rotate(-146.000000) translate(-86.750851, -48.816673) "></path>
                            <path d="M5.86481474,46.3674406 C6.51630584,46.6319999 7.8820957,47.091048 9.89538311,46.753222 C10.4874305,46.6538775 11.0807541,46.4632713 11.796496,46.2063693" id="Path-4" stroke="#646C75" transform="translate(8.830655, 46.539520) rotate(-146.000000) translate(-8.830655, -46.539520) "></path>
                            <path d="M7.06088461,33.1334261 C7.73406496,33.4191849 9.14146194,33.9241155 11.1750841,33.6692072 C11.7731112,33.5942464 12.3687482,33.4294479 13.0861908,33.2040848" id="Path-4" stroke="#646C75" transform="translate(10.073538, 33.436179) rotate(168.000000) translate(-10.073538, -33.436179) "></path>
                            <path d="M9.46158229,39.4373917 C10.1303721,39.7101449 11.530418,40.1880237 13.5728773,39.8954995 C14.1735032,39.8094769 14.7735101,39.6337958 15.4967472,39.3953648" id="Path-4" stroke="#646C75" transform="translate(12.479165, 39.691228) rotate(-173.000000) translate(-12.479165, -39.691228) "></path>
                            <path d="M86.7245479,63.9991444 C87.4838804,64.2763605 89.0745096,64.7586638 91.4060755,64.4203116 C92.0917194,64.3208128 92.7776603,64.1269279 93.6047793,63.8651455" id="Path-4" stroke="#646C75" transform="translate(90.164664, 64.200729) rotate(-110.000000) translate(-90.164664, -64.200729) "></path>
                            <path d="M92.7971799,60.5306319 C93.5550326,60.8162861 95.1417142,61.3157536 97.4584894,60.9971258 C98.1397839,60.9034274 98.8205607,60.7148548 99.6412117,60.4593326" id="Path-4" stroke="#646C75" transform="translate(96.219196, 60.779524) rotate(-100.000000) translate(-96.219196, -60.779524) "></path>
                            <path d="M94.005245,75.332128 C94.7630976,75.6177822 96.3497793,76.1172497 98.6665544,75.7986219 C99.3478489,75.7049235 100.028626,75.5163509 100.849277,75.2608287" id="Path-4" stroke="#646C75" transform="translate(97.427261, 75.581020) rotate(-100.000000) translate(-97.427261, -75.581020) "></path>
                            <path d="M53.5378825,33.5228693 C54.4771997,33.7981777 56.4428049,34.2814797 59.302208,33.9976599 C60.143073,33.914197 60.9823343,33.7411448 61.9937454,33.5059039" id="Path-4" stroke="#646C75" transform="translate(57.765814, 33.794970) rotate(-178.000000) translate(-57.765814, -33.794970) "></path>
                            <path d="M94.3696009,37.5028617 C95.1993934,37.7690009 96.9382188,38.2291435 99.4933592,37.8693921 C100.244749,37.7636001 100.997038,37.5644199 101.90433,37.296549" id="Path-4" stroke="#646C75" transform="translate(98.136965, 37.649049) rotate(-123.000000) translate(-98.136965, -37.649049) "></path>
                            <path d="M90.7454057,42.6264565 C91.5751982,42.8925958 93.3140237,43.3527384 95.8691641,42.992987 C96.6205539,42.8871949 97.3728426,42.6880147 98.2801348,42.4201439" id="Path-4" stroke="#646C75" transform="translate(94.512770, 42.772644) rotate(-123.000000) translate(-94.512770, -42.772644) "></path>
                            <path d="M68.3046374,25.5579888 C69.1593923,25.8180794 70.9502093,26.2682998 73.5783837,25.923197 C74.3512507,25.8217126 75.1247392,25.6294766 76.0575095,25.3707611" id="Path-4" stroke="#646C75" transform="translate(72.181073, 25.709586) rotate(-152.000000) translate(-72.181073, -25.709586) "></path>
                            <path d="M31.3147261,5.67809393 C32.1161565,5.97956389 33.7906014,6.51619789 36.1985947,6.29492868 C36.9067132,6.22986008 37.6109486,6.07380001 38.4588837,5.85863013" id="Path-4" stroke="#646C75" transform="translate(34.886805, 6.012557) rotate(150.000000) translate(-34.886805, -6.012557) "></path>
                            <path d="M49.9639403,0.569361087 C50.7708837,0.851537137 52.4587266,1.34915409 54.9060039,1.08555871 C55.6256744,1.00804323 56.3432397,0.840872604 57.2077751,0.61270345" id="Path-4" stroke="#646C75" transform="translate(53.585858, 0.864775) rotate(174.000000) translate(-53.585858, -0.864775) "></path>
                            <path d="M65.6830304,2.78556849 C66.3482086,3.05466661 67.7413425,3.52465017 69.7806025,3.2180202 C70.3802874,3.12784954 70.979979,2.94778997 71.7030211,2.7040114" id="Path-4" stroke="#646C75" transform="translate(68.693026, 3.011126) rotate(-166.000000) translate(-68.693026, -3.011126) "></path>
                            <path d="M80.6857475,10.4335213 C81.7328388,10.6873384 83.9263737,11.1239095 87.1429128,10.7534099 C88.0888002,10.6444571 89.0352092,10.444263 90.1764375,10.1758072" id="Path-4" stroke="#646C75" transform="translate(85.431092, 10.536182) rotate(-146.000000) translate(-85.431092, -10.536182) "></path>
                            <path d="M92.8397845,21.610758 C93.746172,21.8688316 95.6455015,22.3134464 98.4364876,21.9454642 C99.2572327,21.8372517 100.078959,21.6369613 101.069996,21.368141" id="Path-4" stroke="#646C75" transform="translate(96.954890, 21.726814) rotate(-137.000000) translate(-96.954890, -21.726814) "></path>
                            <path d="M98.7074289,32.1436141 C99.4699792,32.414765 101.067868,32.8849627 103.415594,32.5352392 C104.105989,32.432396 104.797182,32.2357408 105.630782,31.9707886" id="Path-4" stroke="#646C75" transform="translate(102.169105, 32.315261) rotate(-118.000000) translate(-102.169105, -32.315261) "></path>
                            <path d="M102.392887,50.8404207 C103.150739,51.1260751 104.737421,51.6255425 107.054197,51.306915 C107.73549,51.2132162 108.416267,51.0246437 109.236918,50.7691214" id="Path-4" stroke="#646C75" transform="translate(105.814902, 51.089313) rotate(-100.000000) translate(-105.814902, -51.089313) "></path>
                        </g>
                    </g>
                    <g id="Морда" transform="translate(86.023896, 48.017280)">
                        <path d="M1.80662429,9.95456266 C1.99969196,7.29558105 2.80263609,5.20986315 4.21545667,3.69740899 C6.33468755,1.42872774 8.43091335,0.853248228 10.8397457,0.284416076 C12.445634,-0.0948053589 14.8544664,-0.0948053589 18.0662429,0.284416076 C19.1779614,0.380893414 20.3823776,0.570504131 21.6794915,0.853248228 C22.9766053,1.13599232 24.3817575,1.51521376 25.8949481,1.99091253 C27.1672275,2.38554894 28.1709076,2.57515966 28.9059886,2.55974468 C29.4465544,2.54840877 32.0561229,1.97957662 36.7346939,0.853248228 C42.7567748,-0.663637512 47.9759117,0.0948053587 52.3921044,3.12857683 C54.8678624,4.8293369 56.2481194,6.42812345 57.2097692,8.2480662 C57.7122465,9.19901533 57.9129825,10.7159011 57.8119772,12.7987234 C57.3681548,18.3364915 55.1600584,22.1287058 51.1876882,24.1753665 C47.2153179,26.2220271 40.7917649,27.1700806 31.9170291,27.0195272 C24.2890599,27.0195272 17.8655069,26.0714736 12.64637,24.1753665 C4.81766477,21.3312057 3.01104048,16.7805485 2.40883239,14.5052199 C2.00736032,12.9883341 1.80662429,11.4714484 1.80662429,9.95456266 Z" id="Path-2" stroke="#38444F" stroke-width="0.819672131" fill="#FFFFF6" fill-rule="nonzero"></path>
                        <path d="M23.4861158,16.2117163 C24.9587553,17.5085139 28.0400746,19.788006 32.5192372,18.4870449 C33.8364242,18.1044714 35.1508008,17.3027553 36.7346939,16.2117163" id="Path-4" stroke="#38444F" stroke-width="1.2295082" stroke-linecap="round"></path>
                        <path d="M6.86883689,20.2433086 C10.1815861,16.8069303 12.9031607,14.3774266 15.0335609,12.9547976 C18.2291609,10.8208542 22.6056142,9.94773984 23.7309083,8.60679537 C24.8562024,7.2658509 23.7739897,5.65828012 22.0630068,4.57823495 C20.9223516,3.85820484 19.3925159,3.51153394 17.4734998,3.53822224 C13.6300902,3.95962039 10.5489098,4.73836477 8.22995874,5.87445538 C4.75153212,7.57859129 3.58399072,8.69866889 2.40031762,10.9228112 C1.21664451,13.1469534 2.46389282,15.4253741 3.46300293,16.9791537 C4.12907633,18.0150067 5.26435432,19.1030584 6.86883689,20.2433086 Z" id="Path-7" fill="#BAABA2" fill-rule="nonzero" transform="translate(13.055090, 11.890050) rotate(15.000000) translate(-13.055090, -11.890050) "></path>
                        <path d="M38.3079728,21.5966486 C42.7422507,17.6081215 46.0348815,14.9038598 48.1858653,13.4838639 C51.412341,11.35387 55.8427622,10.4986441 56.9755681,9.15550066 C58.1083741,7.81235729 57.0024207,6.18925922 55.2622358,5.09356515 C54.1021125,4.36310245 52.5496955,4.00620894 50.6049847,4.02288463 C47.5467904,4.07202595 44.5971528,4.62049684 41.7560719,5.6682973 C37.4944504,7.23999802 35.7286361,7.84469565 34.7938666,11.4643363 C34.1706869,13.87743 35.3420556,17.2548675 38.3079728,21.5966486 Z" id="Path-7" fill="#BAABA2" fill-rule="nonzero" transform="translate(46.033681, 12.809487) scale(-1, 1) rotate(9.000000) translate(-46.033681, -12.809487) "></path>
                        <ellipse id="Oval" fill="#262F37" cx="43.0119478" cy="9.41515286" rx="3.00083356" ry="2.82454586"></ellipse>
                        <ellipse id="Oval" fill="#262F37" cx="16.0044457" cy="9.41515286" rx="3.00083356" ry="2.82454586"></ellipse>
                        <ellipse id="Oval" fill="#FFFFFF" transform="translate(42.011670, 8.473638) scale(-1, 1) translate(-42.011670, -8.473638) " cx="42.0116699" cy="8.47363757" rx="1.00027785" ry="1"></ellipse>
                        <ellipse id="Oval" fill="#FFFFFF" transform="translate(15.004168, 8.473638) scale(-1, 1) translate(-15.004168, -8.473638) " cx="15.0041678" cy="8.47363757" rx="1.00027785" ry="1"></ellipse>
                        <path d="M26.4971562,12.0158769 C27.2757393,11.0257743 32.2442347,10.9088603 33.1214453,12.0158769 C33.9986559,13.1228934 31.4793199,15.074052 29.8219798,15.074052 C28.1646396,15.074052 25.7185732,13.0059795 26.4971562,12.0158769 Z" id="Path-5" fill="#38444F" fill-rule="nonzero"></path>
                    </g>
                    <path d="M149.771151,53.6663713 C150.82591,62.5022561 148.796369,69.5013492 143.682529,74.6636505 C138.56869,79.8259518 131.019054,82.8696885 121.03362,83.7948604" id="Path-15" stroke="#273039" stroke-width="0.819672131"></path>
                    <path d="M142.238568,67.3398795 C142.604086,70.758547 142.604086,72.9434378 142.238568,73.8945518 C141.87305,74.8456658 140.625204,76.439001 138.49503,78.6745573 C140.695415,80.6528743 142.139878,81.6420329 142.828419,81.6420329 C143.861231,81.6420329 146.055877,78.7298058 146.055877,77.1369393 C146.055877,75.5440727 145.569805,66.3419443 145.569805,65.560746 C145.569805,65.0399471 144.459392,65.6329916 142.238568,67.3398795 Z" id="Path-4" stroke="#262F37" stroke-width="0.5" fill="#656D75"></path>
                    <path d="M82.0216315,52.8484208 C82.0216315,47.1730533 77.0457601,19.771821 119.325763,19.771821 C152.042234,19.771821 149.985765,45.9871439 149.985765,52.2353861 C149.985765,53.8602824 148.063854,55.1138647 147.826582,51.3311647 C147.585307,47.4846537 142.521114,42.2374526 133.114495,42.2374526 C118.988153,42.2374526 118.194237,44.5817487 116.499806,44.5817487 C114.805375,44.5817487 112.54856,41.4005709 100.615397,42.2374526 C88.6822337,43.0743344 83.2215175,48.320591 83.2215175,52.8484208 C83.2215175,54.4634678 82.0216315,55.0343511 82.0216315,52.8484208 Z" id="Path-5" stroke="#262F37" stroke-width="0.819672131" fill="#828388"></path>
                    <path d="M85.0236177,59.8887691 C85.0236177,60.2569783 87.4513575,67.0811974 87.4513575,70.5638803 C87.4513575,74.0465633 85.5851306,76.5940166 85.5851306,79.2477651 C85.5851306,81.9015136 86.0723819,83.32127 87.8305198,86.5893925 C89.5886577,89.8575149 93.1880393,94.8142356 93.1880393,98.4773063 C93.1880393,102.140377 87.7647279,109.506691 84.0233398,108.323224 C85.3832721,110.621481 89.0229396,113.429755 91.7328151,111.559386 C94.4426907,109.689016 97.8555023,104.23998 98.5273687,99.4043131 C99.1992352,94.5686465 95.2114478,89.0562757 93.1880393,87.0901639 C91.1646308,85.1240521 88.2096821,83.3327669 87.8305198,80.6322243 C87.4513575,77.9316817 91.4221905,74.5371947 92.0561745,72.1457557 C92.6901584,69.7543166 92.3009995,66.2611711 91.7328151,64.6762514 C91.1646308,63.0913316 85.0236177,59.52056 85.0236177,59.8887691 Z" id="Path-7" stroke="#262F37" stroke-width="0.5" fill="#656D75"></path>
                    <rect id="Rectangle" stroke="#262F37" stroke-width="0.5" fill="#17BCF4" x="108.030008" y="37.6606114" width="17.0047235" height="1.88303057" rx="0.941515286"></rect>
                    <path d="M83.5188558,53.7061139 C84.279123,48.2326255 89.4278618,47.043993 94.1347181,47.043993 C99.4583824,47.043993 103.135039,47.043993 106.949744,47.043993 C109.811791,47.043993 114.799969,49.353441 114.969965,52.1982339 C115.023996,53.1024073 115.544797,53.5545792 116.53237,53.5547494 L117.000632,53.5547494 C118.025199,53.5547494 118.537482,53.1025776 118.537482,52.1982339 C118.537482,49.353441 125.317924,47.043993 128.035565,47.043993 C130.753207,47.043993 131.888403,47.043993 139.464624,47.043993 C145.89014,47.043993 148.636301,49.4992038 149.322267,53.6785802 C150.847884,53.8118719 152.042234,55.0201107 152.042234,56.4909171 C152.042234,58.0508707 150.698715,59.315463 149.0414,59.315463 C148.99842,59.315463 148.95565,59.3146125 148.91311,59.3129283 C147.26525,63.874923 142.282232,68.0075613 135.537649,68.0177967 C127.214068,68.0302428 118.537482,62.9887931 118.537482,57.4324324 C118.537482,56.1770787 118.065951,55.5494019 117.122888,55.5494019 L115.845875,55.5494019 C115.095374,55.5494019 114.720124,56.1770787 114.720124,57.4324324 C114.720124,63.0332321 105.029175,68.0177967 97.3303963,68.0177967 C90.8097671,68.0177967 85.7661073,64.853479 84.0501957,59.3153522 C84.041253,59.315426 84.032301,59.315463 84.0233398,59.315463 C82.3660252,59.315463 81.0225063,58.0508707 81.0225063,56.4909171 C81.0225063,55.092785 82.1017433,53.9319141 83.5188558,53.7061139 Z M87.0194382,56.650942 C87.9591151,59.9681878 92.8675465,64.2289959 99.883328,64.2289959 C107.707808,64.2289959 112.083545,60.3415743 112.083545,56.9616748 C112.083545,53.5817753 111.108565,50.8418254 104.990371,50.8418254 L94.9778306,50.8418254 C91.3310922,50.8418254 86.8555401,52.1695024 86.8555401,55.5494019 C86.8555401,55.5512938 86.8555417,55.5531864 86.855545,55.5550796 C86.964773,55.8479598 87.0241734,56.1629091 87.0241734,56.4909171 C87.0241734,56.544622 87.022581,56.5979768 87.0194382,56.650942 Z M149.0414,57.4324324 C149.593839,57.4324324 150.041678,57.0109017 150.041678,56.4909171 C150.041678,55.9709326 149.593839,55.5494019 149.0414,55.5494019 C148.488962,55.5494019 148.041123,55.9709326 148.041123,56.4909171 C148.041123,57.0109017 148.488962,57.4324324 149.0414,57.4324324 Z M84.0233398,57.4324324 C84.575778,57.4324324 85.0236177,57.0109017 85.0236177,56.4909171 C85.0236177,55.9709326 84.575778,55.5494019 84.0233398,55.5494019 C83.4709016,55.5494019 83.023062,55.9709326 83.023062,56.4909171 C83.023062,57.0109017 83.4709016,57.4324324 84.0233398,57.4324324 Z M128.126794,50.8418254 C122.0086,50.8418254 121.03362,53.5817753 121.03362,56.9616748 C121.03362,60.3415743 125.910729,64.2289959 133.233837,64.2289959 C142.848145,64.2289959 146.261625,58.9293013 146.261625,55.5494019 C146.261625,52.1695024 141.786073,50.8418254 138.139335,50.8418254 L128.126794,50.8418254 Z" id="Combined-Shape" stroke="#262F37" stroke-width="0.5" fill="#A09893"></path>
                    <path d="M86.3775745,82.901873 L88.2048758,82.233298 C88.4850091,82.1308025 88.7987086,82.1885827 89.0239399,82.3841612 L93.1460865,85.9636069 C93.4878971,86.2604164 93.5243777,86.7781204 93.2275681,87.119931 C93.1814542,87.1730365 93.1286971,87.2199859 93.0705969,87.2596223 L89.7889315,89.4984013 C89.4149725,89.7535192 88.905005,89.6571794 88.6498872,89.2832205 C88.6312963,89.2559695 88.6143675,89.227621 88.5991932,89.1983298 L85.9314107,84.0486801 C85.7231766,83.6467237 85.8802197,83.1520665 86.2821762,82.9438325 C86.3130533,82.9278365 86.3449172,82.9138217 86.3775745,82.901873 Z" id="Path-8" stroke="#262F37" stroke-width="0.5" fill="#FFFFF6"></path>
                </g>
            </g>
        </g>
    </g>
</svg>