<?xml version="1.0" encoding="UTF-8"?>
<svg width="96px" height="96px" viewBox="0 0 96 96" version="1.1" xmlns="http://www.w3.org/2000/svg" xmlns:xlink="http://www.w3.org/1999/xlink">
    <g id="Page-1" stroke="none" stroke-width="1" fill="none" fill-rule="evenodd">
        <g id="0280.-Others-#06" transform="translate(-172.000000, -248.000000)">
            <g id="Group-2" transform="translate(8.000000, 196.000000)">
                <g id="Icon/s/close-s/gray" transform="translate(164.000000, 52.000000)">
                    <path d="M74.6666667,64.2 L88,64.2 C88,68.5082 84.4186667,72 80,72 L16,72 C11.5813333,72 8,68.5082 8,64.2 C8,61.3278667 8,61.3278667 8,64.2 L21.3333333,64.2 C18.3866667,64.2 16,61.873 16,59 L16,25.2 C16,22.327 18.3866667,20 21.3333333,20 L74.6666667,20 C77.6133333,20 80,22.327 80,25.2 L80,59 C80,61.873 77.6133333,64.2 74.6666667,64.2 Z M74.6666667,59 L74.6666667,25.2 L21.3328231,25.2 L21.3328231,59 L74.6666667,59 Z M50.6051588,39.3959709 C45.2190606,39.3959709 41.6177439,41.9839231 39.5799141,47.3543724 C39.3186685,48.0428531 38.5487631,48.3891956 37.8602824,48.12795 C37.1718017,47.8667043 36.8254592,47.096799 37.0867048,46.4083182 C39.4982724,40.0529291 44.0440378,36.7628106 50.5060607,36.7295589 C50.5252852,36.7283174 52.1480447,36.7273814 55.3743394,36.7267511 L53.8792456,35.2316573 C53.3585466,34.7109582 53.3585466,33.8667382 53.8792456,33.3460392 C54.3999447,32.8253401 55.2441647,32.8253401 55.7648637,33.3460392 L59.5360999,37.1172753 C59.7773858,37.3585612 59.9266242,37.6918946 59.9266242,38.0600844 C59.9266242,38.4282742 59.7773858,38.7616076 59.5360999,39.0028934 L55.7648637,42.7741296 C55.2441647,43.2948287 54.3999447,43.2948287 53.8792456,42.7741296 C53.3585466,42.2534305 53.3585466,41.4092106 53.8792456,40.8885115 L55.3743394,39.3934177 C52.2135125,39.3951199 50.6237856,39.3959709 50.6051588,39.3959709 Z" id="Combined-Shape" fill="#858E9B" fill-rule="nonzero"></path>
                    <g transform="translate(36.000000, 32.000000)"></g>
                </g>
            </g>
        </g>
    </g>
</svg>