<?xml version="1.0" encoding="UTF-8"?>
<svg width="257px" height="54px" viewBox="0 0 257 54" version="1.1" xmlns="http://www.w3.org/2000/svg" xmlns:xlink="http://www.w3.org/1999/xlink">
    <g id="Page-1" stroke="none" stroke-width="1" fill="none" fill-rule="evenodd">
        <g id="logo-copy">
            <g id="logo_big">
                <g id="logo">
                    <path d="M64,16.3540039 L71.8022461,16.3540039 C77.9335938,16.3540039 81.5444336,20.0073242 81.5444336,26.4926758 C81.5444336,32.9780273 77.9335938,36.7871094 71.8022461,36.7871094 L64,36.7871094 L64,16.3540039 Z M68.2763672,19.8798828 L68.2763672,33.2470703 L71.2924805,33.2470703 C75.1157227,33.2470703 77.1831055,30.9248047 77.1831055,26.5068359 C77.1831055,22.2304688 75.059082,19.8798828 71.2924805,19.8798828 L68.2763672,19.8798828 Z M88.5678711,16.3540039 L88.5678711,29.140625 C88.5678711,31.7602539 90.1113281,33.4736328 92.8583984,33.4736328 C95.5913086,33.4736328 97.1347656,31.7602539 97.1347656,29.140625 L97.1347656,16.3540039 L101.411133,16.3540039 L101.411133,29.5654297 C101.411133,34.0683594 98.0834961,37.1411133 92.8583984,37.1411133 C87.6191406,37.1411133 84.2915039,34.0683594 84.2915039,29.5654297 L84.2915039,16.3540039 L88.5678711,16.3540039 Z M118.34668,33.2470703 L118.34668,36.7871094 L104.80957,36.7871094 L104.80957,16.3540039 L118.34668,16.3540039 L118.34668,19.8798828 L109.085938,19.8798828 L109.085938,24.8076172 L117.822754,24.8076172 L117.822754,28.0927734 L109.085938,28.0927734 L109.085938,33.2470703 L118.34668,33.2470703 Z M125.709961,36.7871094 L121.433594,36.7871094 L121.433594,16.3540039 L134.814941,16.3540039 L134.814941,19.8798828 L125.709961,19.8798828 L125.709961,25.3598633 L134.021973,25.3598633 L134.021973,28.7441406 L125.709961,28.7441406 L125.709961,36.7871094 Z M146.553711,16 C152.600098,16 156.40918,20.0639648 156.40918,26.5776367 C156.40918,33.0771484 152.600098,37.1411133 146.553711,37.1411133 C140.493164,37.1411133 136.698242,33.0771484 136.698242,26.5776367 C136.698242,20.0639648 140.493164,16 146.553711,16 Z M146.553711,19.5683594 C143.211914,19.5683594 141.05957,22.2871094 141.05957,26.5776367 C141.05957,30.8540039 143.197754,33.5585938 146.553711,33.5585938 C149.895508,33.5585938 152.033691,30.8540039 152.033691,26.5776367 C152.033691,22.2871094 149.895508,19.5683594 146.553711,19.5683594 Z M168.19043,37.1411133 C162.243164,37.1411133 158.519043,33.1621094 158.519043,26.5634766 C158.519043,19.9790039 162.271484,16 168.19043,16 C173.104004,16 176.842285,19.1152344 177.167969,23.6889648 L173.004883,23.6889648 C172.608398,21.1826172 170.682617,19.5400391 168.19043,19.5400391 C164.961914,19.5400391 162.880371,22.2446289 162.880371,26.5493164 C162.880371,30.9106445 164.933594,33.6010742 168.20459,33.6010742 C170.739258,33.6010742 172.565918,32.1142578 173.019043,29.6928711 L177.182129,29.6928711 C176.700684,34.2524414 173.203125,37.1411133 168.19043,37.1411133 Z M184.092285,16.3540039 L184.092285,29.140625 C184.092285,31.7602539 185.635742,33.4736328 188.382812,33.4736328 C191.115723,33.4736328 192.65918,31.7602539 192.65918,29.140625 L192.65918,16.3540039 L196.935547,16.3540039 L196.935547,29.5654297 C196.935547,34.0683594 193.60791,37.1411133 188.382812,37.1411133 C183.143555,37.1411133 179.815918,34.0683594 179.815918,29.5654297 L179.815918,16.3540039 L184.092285,16.3540039 Z M199.569336,30.9672852 L203.689941,30.9672852 C203.888184,32.6523438 205.644043,33.7568359 207.909668,33.7568359 C210.189453,33.7568359 211.74707,32.6665039 211.74707,31.1655273 C211.74707,29.8344727 210.77002,29.0981445 208.306152,28.5458984 L205.644043,27.965332 C201.877441,27.1582031 200.022461,25.246582 200.022461,22.2587891 C200.022461,18.4921875 203.279297,16 207.838867,16 C212.59668,16 215.584473,18.449707 215.655273,22.1455078 L211.647949,22.1455078 C211.506348,20.4179688 209.991211,19.3701172 207.853027,19.3701172 C205.743164,19.3701172 204.327148,20.3754883 204.327148,21.890625 C204.327148,23.1508789 205.318359,23.8588867 207.668945,24.3969727 L210.146973,24.9208984 C214.239258,25.7988281 216.023438,27.5546875 216.023438,30.6699219 C216.023438,34.6347656 212.809082,37.1411133 207.739746,37.1411133 C202.826172,37.1411133 199.696777,34.8046875 199.569336,30.9672852 Z" id="timetracker" fill="#FFFFFF"></path>
                    <path d="M24,42 C24,43.6499976 25.3499994,45 27,45 C28.6500003,45 30,43.6499976 30,42 C30,40.3500021 28.6500003,39 27,39 C25.3499994,39 24,40.3500021 24,42 Z M24,0 L24,12 L30,12 L30,6.23999976 C40.1699979,7.70999907 48,16.4100008 48,27 C48,38.6099994 38.6099994,48 27,48 C15.3900003,48 6,38.6099994 6,27 C6,21.9599988 7.77000045,17.3399992 10.7399998,13.7399998 L27,30 L31.2299994,25.7700003 L10.8299989,5.36999988 L10.8299989,5.42999982 C4.26000021,10.3499994 0,18.1500006 0,27 C0,41.9100036 12.0599999,54 27,54 C41.9100036,54 54,41.9099979 54,27 C54,12.090002 41.9099979,0 27,0 L24,0 Z M45,27 C45,25.3499994 43.6499976,24 42,24 C40.3500021,24 39,25.3499994 39,27 C39,28.6500003 40.3500021,30 42,30 C43.6499976,30 45,28.6500003 45,27 Z M9,27 C9,28.6500003 10.3499994,30 12,30 C13.6500006,30 15,28.6500003 15,27 C15,25.3499994 13.6500006,24 12,24 C10.3499994,24 9,25.3499994 9,27 Z" id="Fill-2" fill="#1991EB"></path>
                </g>
            </g>
            <rect id="Rectangle-9" fill="#1991EB" x="222" y="7" width="35" height="18" rx="9"></rect>
            <text id="Beta" font-family="NunitoSans-Bold, Nunito Sans" font-size="10" font-weight="bold" fill="#FFFFFF">
                <tspan x="229" y="19">Beta</tspan>
            </text>
        </g>
    </g>
</svg>