<?xml version="1.0" encoding="UTF-8"?>
<svg width="25px" height="25px" viewBox="-1 -1 25 25" version="1.1" xmlns="http://www.w3.org/2000/svg" xmlns:xlink="http://www.w3.org/1999/xlink">
    <g id="Page-1" stroke="none" stroke-width="1" fill="none" fill-rule="evenodd">
        <g id="New-skin-w1440---GUI" transform="translate(-59.000000, -900.000000)">
            <g id="menu/full" transform="translate(-1.000000, 865.000000)">
                <g id="logo" transform="translate(60.000000, 35.000000)">
                    <path d="M10.2222222,17.8888889 C10.2222222,18.5916656 10.797222,19.1666667 11.5,19.1666667 C12.2027779,19.1666667 12.7777778,18.5916656 12.7777778,17.8888889 C12.7777778,17.186112 12.2027779,16.6111111 11.5,16.6111111 C10.797222,16.6111111 10.2222222,17.186112 10.2222222,17.8888889 Z M10.2222222,0 L10.2222222,5.11111111 L12.7777778,5.11111111 L12.7777778,2.65777768 C17.1094435,3.28388849 20.4444444,6.98944478 20.4444444,11.5 C20.4444444,16.4449997 16.4449997,20.4444444 11.5,20.4444444 C6.55500014,20.4444444 2.55555556,16.4449997 2.55555556,11.5 C2.55555556,9.35333282 3.30944464,7.38555521 4.57444434,5.85222212 L11.5,12.7777778 L13.3016664,10.9761112 L4.61277733,2.28722217 L4.61277733,2.3127777 C1.81444453,4.40833308 0,7.7305558 0,11.5 C0,17.8505571 5.13666664,23 11.5,23 C17.8505571,23 23,17.8505547 23,11.5 C23,5.14944531 17.8505547,0 11.5,0 L10.2222222,0 Z M19.1666667,11.5 C19.1666667,10.797222 18.5916656,10.2222222 17.8888889,10.2222222 C17.186112,10.2222222 16.6111111,10.797222 16.6111111,11.5 C16.6111111,12.2027779 17.186112,12.7777778 17.8888889,12.7777778 C18.5916656,12.7777778 19.1666667,12.2027779 19.1666667,11.5 Z M3.83333333,11.5 C3.83333333,12.2027779 4.40833308,12.7777778 5.11111111,12.7777778 C5.81388913,12.7777778 6.38888889,12.2027779 6.38888889,11.5 C6.38888889,10.797222 5.81388913,10.2222222 5.11111111,10.2222222 C4.40833308,10.2222222 3.83333333,10.797222 3.83333333,11.5 Z" id="Fill-2" fill="#7F8FA4"></path>
                </g>
            </g>
        </g>
    </g>
</svg>