<?xml version="1.0" encoding="UTF-8"?>
<svg width="24px" height="24px" viewBox="0 0 24 24" version="1.1" xmlns="http://www.w3.org/2000/svg" xmlns:xlink="http://www.w3.org/1999/xlink">
    <defs>
        <path d="M16,7 C15.4477153,7 15,6.55228475 15,6 C15,5.44771525 14.5522847,5 14,5 L10,5 C9.44771525,5 9,5.44771525 9,6 C9,6.55228475 8.55228475,7 8,7 L5,7 C4.44771525,7 4,7.44771525 4,8 L4,17 C4,17.5522847 4.44771525,18 5,18 L19,18 C19.5522847,18 20,17.5522847 20,17 L20,8 C20,7.44771525 19.5522847,7 19,7 L16,7 Z M19,5 C20.6568542,5 22,6.34314575 22,8 L22,17 C22,18.6568542 20.6568542,20 19,20 L5,20 C3.34314575,20 2,18.6568542 2,17 L2,8 C2,6.34314575 3.34314575,5 5,5 L7.17070571,5 C7.58254212,3.83480763 8.69378117,3 10,3 L14,3 C15.3062188,3 16.4174579,3.83480763 16.8292943,5 L19,5 Z M12,14 C13.1045695,14 14,13.1045695 14,12 C14,10.8954305 13.1045695,10 12,10 C10.8954305,10 10,10.8954305 10,12 C10,13.1045695 10.8954305,14 12,14 Z M12,16 C9.790861,16 8,14.209139 8,12 C8,9.790861 9.790861,8 12,8 C14.209139,8 16,9.790861 16,12 C16,14.209139 14.209139,16 12,16 Z" id="path-1"></path>
    </defs>
    <g id="Page-1" stroke="none" stroke-width="1" fill="none" fill-rule="evenodd">
        <g id="0002.-Settings-#02" transform="translate(-154.000000, -281.000000)">
            <g id="Dropdown/profile" transform="translate(142.000000, 105.000000)">
                <g id="01" transform="translate(0.000000, 166.000000)">
                    <g id="Icon/camera" transform="translate(12.000000, 10.000000)">
                        <mask id="mask-2" fill="white">
                            <use xlink:href="#path-1"></use>
                        </mask>
                        <use id="Shape" fill="#858E9B" xlink:href="#path-1"></use>
                    </g>
                </g>
            </g>
        </g>
    </g>
</svg>