<?xml version="1.0" encoding="UTF-8"?>
<svg width="24px" height="24px" viewBox="0 0 24 24" version="1.1" xmlns="http://www.w3.org/2000/svg" xmlns:xlink="http://www.w3.org/1999/xlink">
    <defs>
        <path d="M10.314602,15.1463458 L6.3173494,15.1463458 C5.80724512,15.1463458 5.31641871,14.9514342 4.94528221,14.6014855 C4.14163073,13.8437137 4.10443788,12.5779301 4.86220966,11.7742786 L12.3724843,3.80929032 C12.9185803,3.23013061 13.756138,3.0299541 14.5050977,3.29959517 C15.5443663,3.67375354 16.0835447,4.81956251 15.7093864,5.85883115 L14.6311876,8.85365422 L18.6370904,8.85365422 C19.1569252,8.85365422 19.6563355,9.05605369 20.0294963,9.41796414 C20.822406,10.1869686 20.841785,11.4531503 20.0727805,12.24606 L12.4967583,20.05759 C11.9319953,20.6399092 11.0714283,20.8234116 10.3182498,20.5221228 C9.29269097,20.1118755 8.7938824,18.9479246 9.20412968,17.9223658 L10.314602,15.1463458 Z M13.827624,5.1813575 L6.3173494,13.1463458 L13.2687314,13.1463458 L11.0610682,18.6651842 L18.6370904,10.8536542 L11.785479,10.8536542 L13.827624,5.1813575 Z" id="path-1"></path>
    </defs>
    <g id="Page-1" stroke="none" stroke-width="1" fill="none" fill-rule="evenodd">
        <g id="0002.-Settings-#02" transform="translate(-154.000000, -237.000000)">
            <g id="Dropdown/profile" transform="translate(142.000000, 105.000000)">
                <g id="04" transform="translate(0.000000, 122.000000)">
                    <g id="Icon/supercharge" transform="translate(12.000000, 10.000000)">
                        <mask id="mask-2" fill="white">
                            <use xlink:href="#path-1"></use>
                        </mask>
                        <use id="Path" fill="#858E9B" fill-rule="nonzero" xlink:href="#path-1"></use>
                    </g>
                </g>
            </g>
        </g>
    </g>
</svg>