<?xml version="1.0" encoding="UTF-8"?>
<svg width="24px" height="24px" viewBox="0 0 24 24" version="1.1" xmlns="http://www.w3.org/2000/svg" xmlns:xlink="http://www.w3.org/1999/xlink">
    <defs>
        <path d="M10,15 C11.3062188,15 12.4174579,15.8348076 12.8292943,17 L20,17 C20.5522847,17 21,17.4477153 21,18 C21,18.5522847 20.5522847,19 20,19 L12.8292943,19 C12.4174579,20.1651924 11.3062188,21 10,21 C8.69378117,21 7.58254212,20.1651924 7.17070571,19 L4,19 C3.44771525,19 3,18.5522847 3,18 C3,17.4477153 3.44771525,17 4,17 L7.17070571,17 C7.58254212,15.8348076 8.69378117,15 10,15 Z M16,9 C17.3062188,9 18.4174579,9.83480763 18.8292943,11 L20,11 C20.5522847,11 21,11.4477153 21,12 C21,12.5522847 20.5522847,13 20,13 L18.8292943,13 C18.4174579,14.1651924 17.3062188,15 16,15 C14.6937812,15 13.5825421,14.1651924 13.1707057,13 L4,13 C3.44771525,13 3,12.5522847 3,12 C3,11.4477153 3.44771525,11 4,11 L13.1707057,11 C13.5825421,9.83480763 14.6937812,9 16,9 Z M8,3 C9.30621883,3 10.4174579,3.83480763 10.8292943,5 L20,5 C20.5522847,5 21,5.44771525 21,6 C21,6.55228475 20.5522847,7 20,7 L10.8292943,7 C10.4174579,8.16519237 9.30621883,9 8,9 C6.69378117,9 5.58254212,8.16519237 5.17070571,7 L4,7 C3.44771525,7 3,6.55228475 3,6 C3,5.44771525 3.44771525,5 4,5 L5.17070571,5 C5.58254212,3.83480763 6.69378117,3 8,3 Z M8,7 C8.55228475,7 9,6.55228475 9,6 C9,5.44771525 8.55228475,5 8,5 C7.44771525,5 7,5.44771525 7,6 C7,6.55228475 7.44771525,7 8,7 Z M16,13 C16.5522847,13 17,12.5522847 17,12 C17,11.4477153 16.5522847,11 16,11 C15.4477153,11 15,11.4477153 15,12 C15,12.5522847 15.4477153,13 16,13 Z M10,19 C10.5522847,19 11,18.5522847 11,18 C11,17.4477153 10.5522847,17 10,17 C9.44771525,17 9,17.4477153 9,18 C9,18.5522847 9.44771525,19 10,19 Z" id="path-1"></path>
    </defs>
    <g id="Page-1" stroke="none" stroke-width="1" fill="none" fill-rule="evenodd">
        <g id="0002.-Settings-#02" transform="translate(-154.000000, -195.000000)">
            <g id="Dropdown/profile" transform="translate(142.000000, 105.000000)">
                <g id="01" transform="translate(0.000000, 80.000000)">
                    <g id="Icon/settings" transform="translate(12.000000, 10.000000)">
                        <mask id="mask-2" fill="white">
                            <use xlink:href="#path-1"></use>
                        </mask>
                        <use id="Mask" fill="#858E9B" fill-rule="nonzero" xlink:href="#path-1"></use>
                    </g>
                </g>
            </g>
        </g>
    </g>
</svg>