<?xml version="1.0" encoding="UTF-8"?>
<svg width="24px" height="24px" viewBox="0 0 24 24" version="1.1" xmlns="http://www.w3.org/2000/svg" xmlns:xlink="http://www.w3.org/1999/xlink">
    <g id="Page-1" stroke="none" stroke-width="1" fill="none" fill-rule="evenodd">
        <g id="0002.-Settings-#02" transform="translate(-154.000000, -413.000000)" fill="#858E9B" fill-rule="nonzero">
            <g id="Dropdown/profile" transform="translate(142.000000, 105.000000)">
                <g id="01" transform="translate(0.000000, 298.000000)">
                    <g id="Icon/logout" transform="translate(12.000000, 10.000000)">
                        <path d="M20.7071068,12.7071068 L17.8786797,15.5355339 C17.4881554,15.9260582 16.8549904,15.9260582 16.4644661,15.5355339 C16.0739418,15.1450096 16.0739418,14.5118446 16.4644661,14.1213203 L17.5857864,13 L10,13 C9.44771525,13 9,12.5522847 9,12 C9,11.4477153 9.44771525,11 10,11 L17.5857864,11 L16.4644661,9.87867966 C16.0739418,9.48815536 16.0739418,8.85499039 16.4644661,8.46446609 C16.8549904,8.0739418 17.4881554,8.0739418 17.8786797,8.46446609 L20.7071068,11.2928932 C20.8880712,11.4738576 21,11.7238576 21,12 C21,12.2761424 20.8880712,12.5261424 20.7071068,12.7071068 Z M15,22 L8,22 C6.34314575,22 5,20.6568542 5,19 L5,5 C5,3.34314575 6.34314575,2 8,2 L15,2 C15.5522847,2 16,2.44771525 16,3 C16,3.55228475 15.5522847,4 15,4 L8,4 C7.44771525,4 7,4.44771525 7,5 L7,19 C7,19.5522847 7.44771525,20 8,20 L15,20 C15.5522847,20 16,20.4477153 16,21 C16,21.5522847 15.5522847,22 15,22 Z" id="Combined-Shape"></path>
                    </g>
                </g>
            </g>
        </g>
    </g>
</svg>