<svg xmlns="http://www.w3.org/2000/svg" width="36" height="36" viewBox="0 0 36 36">
    <path fill="#7F8FA4" fill-rule="evenodd" d="M16.2 28.8h3.6v-3.6h-3.6v3.6zM18 0C8.064 0 0 8.064 0 18s8.064 18 18 18 18-8.064 18-18S27.936 0 18 0zm0 32.4c-7.938 0-14.4-6.462-14.4-14.4 0-7.938 6.462-14.4 14.4-14.4 7.938 0 14.4 6.462 14.4 14.4 0 7.938-6.462 14.4-14.4 14.4zm0-25.2a7.198 7.198 0 0 0-7.2 7.2h3.6c0-1.98 1.62-3.6 3.6-3.6s3.6 1.62 3.6 3.6c0 3.6-5.4 3.15-5.4 9h3.6c0-4.05 5.4-4.5 5.4-9 0-3.978-3.222-7.2-7.2-7.2z"/>
</svg>
