<?xml version="1.0" encoding="UTF-8"?>
<svg width="24px" height="24px" viewBox="0 0 24 24" version="1.1" xmlns="http://www.w3.org/2000/svg" xmlns:xlink="http://www.w3.org/1999/xlink">
    <g id="Page-1" stroke="none" stroke-width="1" fill="none" fill-rule="evenodd">
        <g id="0010.-Home-#02" transform="translate(-195.000000, -221.000000)" fill="#FFFFFF">
            <g id="Banner/task-active" transform="translate(0.000000, 213.000000)">
                <g id="Icon/reply" transform="translate(195.000000, 8.000000)">
                    <path d="M12.5,5.5 L12.5,3.71 C12.5,3.26 11.96,3.04 11.65,3.36 L8.85,6.15 C8.65,6.35 8.65,6.66 8.85,6.86 L11.64,9.65 C11.96,9.96 12.5,9.74 12.5,9.29 L12.5,7.5 C16.23,7.5 19.18,10.92 18.36,14.79 C17.89,17.06 16.05,18.89 13.79,19.36 C10.22,20.11 7.04,17.66 6.56,14.35 C6.49,13.87 6.07,13.5 5.58,13.5 C4.98,13.5 4.5,14.03 4.58,14.63 C5.2,19.02 9.38,22.27 14.11,21.35 C17.23,20.74 19.74,18.23 20.35,15.11 C21.34,9.98 17.44,5.5 12.5,5.5 Z" id="🔹Icon-Color" transform="translate(12.537918, 12.357515) rotate(-90.000000) translate(-12.537918, -12.357515) "></path>
                </g>
            </g>
        </g>
    </g>
</svg>