<?xml version="1.0" encoding="UTF-8"?>
<svg width="280px" height="80px" viewBox="0 0 280 80" version="1.1" xmlns="http://www.w3.org/2000/svg" xmlns:xlink="http://www.w3.org/1999/xlink">
    <g id="Logo/text/white" stroke="none" stroke-width="1" fill="none" fill-rule="evenodd">
        <g id="Group" transform="translate(20.000000, 20.000000)" fill="#FFFFFF" fill-rule="nonzero">
            <path d="M80.542408,32.7210884 C82.7131917,32.7210884 84.5834053,31.8707483 85.6520988,30.6802721 L92.0308631,34.4217687 C89.4259227,38.0952381 85.4851154,40 80.442218,40 C71.3583233,40 65.7142857,33.7755102 65.7142857,25.7142857 C65.7142857,17.6530612 71.4585133,11.4285714 79.8410779,11.4285714 C87.5891058,11.4285714 93.3333333,17.5510204 93.3333333,25.7142857 C93.3333333,26.8027211 93.2331433,27.8911565 92.9993666,28.9455782 L74.130247,28.9455782 C75.1655438,31.7346939 77.6035009,32.7210884 80.542408,32.7210884 Z M85.4183221,22.8571429 C84.5834053,19.7278912 82.1788449,18.5714286 79.7742846,18.5714286 C76.7351874,18.5714286 74.7313871,20.1020408 73.9632637,22.8571429 L85.4183221,22.8571429 Z" id="Shape"></path>
            <path d="M120.000134,25.7814456 C119.966282,17.8942089 126.330474,11.4625566 134.21801,11.4287058 C142.105546,11.394855 148.537442,17.7588057 148.571294,25.6460424 C148.605146,33.5332791 142.240954,39.9649314 134.353418,39.9987822 C134.319566,39.9987822 134.319566,39.9987822 134.285714,39.9987822 C126.499735,40.1003346 120.101691,33.8379363 120.000134,26.0184012 C120.000134,25.9506996 120.000134,25.8491472 120.000134,25.7814456 Z M140.480646,25.7814456 C140.480646,21.9563051 137.772479,19.417495 134.285714,19.417495 C130.79895,19.417495 128.090783,21.9563051 128.090783,25.7814456 C128.090783,29.6065862 130.79895,32.1453963 134.285714,32.1453963 C137.772479,32.1453963 140.480646,29.6065862 140.480646,25.7814456 L140.480646,25.7814456 Z" id="Shape"></path>
            <path d="M153.333333,25.6972991 C153.333333,17.6456599 159.471441,11.4285714 167.723785,11.4285714 C172.975277,11.4285714 177.647059,14.1803975 180,18.3590963 L172.907076,22.4698488 C171.98636,20.5673518 170.042626,19.4462375 167.621483,19.4462375 C164.109122,19.4462375 161.483376,21.9942246 161.483376,25.7312723 C161.483376,29.46832 164.075021,32.0163071 167.621483,32.0163071 C170.008525,32.0163071 172.02046,30.8951928 172.907076,28.9926958 L180,33.035502 C177.681159,37.2481739 173.043478,40 167.723785,40 C159.471441,39.9660268 153.333333,33.7489383 153.333333,25.6972991 Z" id="Shape"></path>
            <path d="M210.47619,12.3809524 L210.47619,40 L194.791822,40 C189.372974,40 184.761905,36.1171266 184.761905,28.8578414 L184.761905,12.3809524 L192.806033,12.3809524 L192.806033,27.7098615 C192.806033,31.052509 194.892795,32.6056584 197.45076,32.6056584 L202.432062,32.6056584 L202.432062,12.3809524 L210.47619,12.3809524 Z" id="Shape"></path>
            <path d="M60,12.3809524 L60,40 L44.315632,40 C38.8967838,40 34.2857143,36.1171266 34.2857143,28.8578414 L34.2857143,12.3809524 L42.3298429,12.3809524 L42.3298429,27.7098615 C42.3298429,31.052509 44.4166043,32.6056584 46.9745699,32.6056584 L51.9558714,32.6056584 L51.9558714,12.3809524 L60,12.3809524 Z" id="Shape"></path>
            <path d="M239.047619,31.122449 C239.047619,37.3469388 233.647492,40 227.805844,40 C222.405717,40 218.296186,37.9591837 216.190476,33.5714286 L223.220831,29.5578231 C223.934055,31.5986395 225.42843,32.755102 227.805844,32.755102 C229.741739,32.755102 230.726668,32.1428571 230.726668,31.0884354 C230.726668,28.0952381 217.413147,29.6938776 217.413147,20.3061224 C217.413147,14.4217687 222.371754,11.4285714 228.009623,11.4285714 C232.390858,11.4285714 236.262648,13.3673469 238.538173,17.2108844 L231.643671,20.952381 C230.896483,19.5578231 229.809665,18.5714286 228.009623,18.5714286 C226.617137,18.5714286 225.734098,19.1156463 225.734098,20.1020408 C225.734098,23.1632653 239.047619,21.0884354 239.047619,31.122449 Z" id="Shape"></path>
            <path d="M21.290215,2.85714286 L21.290215,11.1111111 L13.1255209,11.1111111 C5.92543202,11.1111111 0,17.4047619 0,25.5555556 C0,33.7063492 5.92543202,40 13.1255209,40 L29.5238095,40 L29.5238095,18.8835979 L21.290215,18.8835979 L29.4893593,10.6296296 L29.4893593,2.85714286 L21.290215,2.85714286 Z M21.290215,25.5555556 L21.290215,32.2275132 L14.7446797,32.2275132 C10.9551592,32.2275132 8.23359449,29.6481481 8.23359449,25.5555556 C8.23359449,21.462963 10.9896094,18.8835979 14.7446797,18.8835979 L21.290215,18.8835979 L21.290215,25.5555556 Z" id="Shape"></path>
            <polygon id="Rectangle-path" points="101.904762 27.6190476 110.47619 27.6190476 110.47619 39.047619 101.904762 39.047619"></polygon>
            <path d="M115.238095,7.84950915 L115.238095,0.0439499952 C106.07673,-0.501416583 101.808367,4.06602851 101.808367,11.6670752 L98.0952381,11.6670752 L98.0952381,19.4726344 L101.773665,19.4726344 L101.773665,19.4385489 L110.102179,27.6190476 L110.102179,19.4726344 L115.238095,19.4726344 L115.238095,11.6670752 L110.102179,11.6670752 C110.102179,8.53121737 112.149605,7.61091127 115.238095,7.84950915 Z" id="Shape"></path>
        </g>
    </g>
</svg>