<svg width="24" height="24" xmlns="http://www.w3.org/2000/svg">
 <!-- Created with Method Draw - http://github.com/duopixel/Method-Draw/ -->
 <g>
  <rect fill="none" id="canvas_background" height="26" width="26" y="-1" x="-1"/>
 </g>
 <g>
  <g fill-rule="evenodd" fill="none" id="Page-1">
   <g id="svg_4">
    <g id="svg_3">
     <g id="svg_2">
      <path fill="#b8e986" id="svg_1" d="m11.222219,18.888916c0,0.702759 0.575001,1.277771 1.277781,1.277771c0.70278,0 1.277781,-0.575012 1.277781,-1.277771c0,-0.70282 -0.575001,-1.277832 -1.277781,-1.277832c-0.70278,0 -1.277781,0.575012 -1.277781,1.277832zm0,-17.888916l0,5.111084l2.555561,0l0,-2.453308c4.331659,0.626099 7.66666,4.331665 7.66666,8.842224c0,4.945007 -3.999441,8.944458 -8.944441,8.944458c-4.945,0 -8.94444,-3.999451 -8.94444,-8.944458c0,-2.146667 0.75388,-4.114441 2.01888,-5.647766l6.92556,6.925537l1.80167,-1.801636l-8.68889,-8.688904l0,0.025574c-2.79834,2.09552 -4.61278,5.417725 -4.61278,9.187195c0,6.350586 5.136669,11.5 11.5,11.5c6.350559,0 11.5,-5.149414 11.5,-11.5c0,-6.350525 -5.149441,-11.5 -11.5,-11.5l-1.277781,0zm8.94445,11.5c0,-0.702759 -0.575001,-1.277771 -1.277781,-1.277771c-0.70278,0 -1.277779,0.575012 -1.277779,1.277771c0,0.702759 0.574999,1.277771 1.277779,1.277771c0.70278,0 1.277781,-0.575012 1.277781,-1.277771zm-15.33334,0c0,0.702759 0.575,1.277771 1.277781,1.277771c0.70278,0 1.277779,-0.575012 1.277779,-1.277771c0,-0.702759 -0.574999,-1.277771 -1.277779,-1.277771c-0.702781,0 -1.277781,0.575012 -1.277781,1.277771z"/>
     </g>
    </g>
   </g>
  </g>
 </g>
</svg>