<?xml version="1.0" encoding="UTF-8"?>
<svg width="18px" height="18px" viewBox="0 0 18 18" version="1.1" xmlns="http://www.w3.org/2000/svg" xmlns:xlink="http://www.w3.org/1999/xlink">
    <g id="Page-1" stroke="none" stroke-width="1" fill="none" fill-rule="evenodd">
        <g id="Timesheets" transform="translate(-21.000000, -66.000000)">
            <g id="Group-4" transform="translate(22.000000, 67.000000)">
                <path d="M6.38417346,9.44637058 C6.47156583,9.64806582 6.60904897,9.83137666 6.79422491,9.97658658 C6.9791344,10.12153 7.19015504,10.2110539 7.40677091,10.2475562 C8.02011624,10.350935 8.61481074,9.97232352 8.84794592,9.39574695 L10.1593645,6.15423557 C10.2734009,5.87180896 9.9470117,5.61629281 9.70028809,5.79454131 L6.86669664,7.84319994 C6.3625918,8.20769013 6.13718339,8.87565569 6.38417346,9.44637058 M8.00013322,0 C12.411317,0 16.0002664,3.58868296 16.0002664,8.00013322 C16.0002664,12.411317 12.411317,16 8.00013322,16 C3.5889494,16 0,12.411317 0,8.00013322 C0,3.58868296 3.5889494,0 8.00013322,0" id="Shape" stroke="#b8e986"></path>
                <path d="M9.14449384,12.5666517 C9.14449384,12.9721737 9.47328104,13.3006944 9.87853657,13.3006944 C10.2840585,13.3006944 10.6128457,12.9721737 10.6128457,12.5666517 C10.6128457,12.1611297 10.2840585,11.832609 9.87853657,11.832609 C9.47328104,11.832609 9.14449384,12.1611297 9.14449384,12.5666517" id="Path" fill="#b8e986"></path>
                <path d="M11.1633112,11.0985662 C11.1633112,11.5038218 11.4920984,11.832609 11.8973539,11.832609 C12.3028759,11.832609 12.6316631,11.5038218 12.6316631,11.0985662 C12.6316631,10.6930442 12.3028759,10.3642571 11.8973539,10.3642571 C11.4920984,10.3642571 11.1633112,10.6930442 11.1633112,11.0985662" id="Path" fill="#b8e986"></path>
                <path d="M12.9122246,9.26359261 C13.3177466,9.26359261 13.6462673,8.93480541 13.6462673,8.52954988 C13.6462673,8.12402791 13.3177466,7.79524071 12.9122246,7.79524071 C12.5067026,7.79524071 12.1781819,8.12402791 12.1781819,8.52954988 C12.1781819,8.93480541 12.5067026,9.26359261 12.9122246,9.26359261" id="Path" fill="#b8e986"></path>
                <path d="M13.1173836,5.85209238 C13.1173836,5.44657041 12.7885964,5.11804965 12.3833408,5.11804965 C11.9778189,5.11804965 11.6490317,5.44657041 11.6490317,5.85209238 C11.6490317,6.25761435 11.9778189,6.58613511 12.3833408,6.58613511 C12.7885964,6.58613511 13.1173836,6.25761435 13.1173836,5.85209238" id="Path" fill="#b8e986"></path>
                <path d="M10.6128457,4.58516928 C11.0181013,4.58516928 11.3468885,4.25638208 11.3468885,3.85112655 C11.3468885,3.44560458 11.0181013,3.11681738 10.6128457,3.11681738 C10.2073238,3.11681738 9.87853657,3.44560458 9.87853657,3.85112655 C9.87853657,4.25638208 10.2073238,4.58516928 10.6128457,4.58516928" id="Path" fill="#b8e986"></path>
                <path d="M4.81537359,3.78904598 C4.81537359,4.19456795 5.14416079,4.52308871 5.54941632,4.52308871 C5.95493831,4.52308871 6.28372549,4.19456795 6.28372549,3.78904598 C6.28372549,3.38352401 5.95493831,3.05500325 5.54941632,3.05500325 C5.14416079,3.05500325 4.81537359,3.38352401 4.81537359,3.78904598" id="Path" fill="#b8e986"></path>
                <path d="M8.73417595,3.11681738 C8.73417595,2.71156185 8.40565519,2.38277465 8.00013322,2.38277465 C7.59461125,2.38277465 7.26609049,2.71156185 7.26609049,3.11681738 C7.26609049,3.52233935 7.59461125,3.85112655 8.00013322,3.85112655 C8.40565519,3.85112655 8.73417595,3.52233935 8.73417595,3.11681738" id="Path" fill="#b8e986"></path>
            </g>
        </g>
    </g>
</svg>