<?xml version="1.0" encoding="UTF-8"?>
<svg width="41px" height="58px" viewBox="0 0 41 58" version="1.1" xmlns="http://www.w3.org/2000/svg" xmlns:xlink="http://www.w3.org/1999/xlink">
    <g id="Page-1" stroke="none" stroke-width="1" fill="none" fill-rule="evenodd">
        <g id="New-skin-w1440---GUI" transform="translate(-20.000000, -953.000000)">
            <g id="menu/short" transform="translate(0.000000, 930.000000)">
                <g id="Group-2" transform="translate(20.000000, 23.000000)">
                    <path d="M19.2222222,17.8888889 C19.2222222,18.5916656 19.797222,19.1666667 20.5,19.1666667 C21.2027779,19.1666667 21.7777778,18.5916656 21.7777778,17.8888889 C21.7777778,17.186112 21.2027779,16.6111111 20.5,16.6111111 C19.797222,16.6111111 19.2222222,17.186112 19.2222222,17.8888889 Z M19.2222222,0 L19.2222222,5.11111111 L21.7777778,5.11111111 L21.7777778,2.65777768 C26.1094435,3.28388849 29.4444444,6.98944478 29.4444444,11.5 C29.4444444,16.4449997 25.4449997,20.4444444 20.5,20.4444444 C15.5550001,20.4444444 11.5555556,16.4449997 11.5555556,11.5 C11.5555556,9.35333282 12.3094446,7.38555521 13.5744443,5.85222212 L20.5,12.7777778 L22.3016664,10.9761112 L13.6127773,2.28722217 L13.6127773,2.3127777 C10.8144445,4.40833308 9,7.7305558 9,11.5 C9,17.8505571 14.1366666,23 20.5,23 C26.8505571,23 32,17.8505547 32,11.5 C32,5.14944531 26.8505547,0 20.5,0 L19.2222222,0 Z M28.1666667,11.5 C28.1666667,10.797222 27.5916656,10.2222222 26.8888889,10.2222222 C26.186112,10.2222222 25.6111111,10.797222 25.6111111,11.5 C25.6111111,12.2027779 26.186112,12.7777778 26.8888889,12.7777778 C27.5916656,12.7777778 28.1666667,12.2027779 28.1666667,11.5 Z M12.8333333,11.5 C12.8333333,12.2027779 13.4083331,12.7777778 14.1111111,12.7777778 C14.8138891,12.7777778 15.3888889,12.2027779 15.3888889,11.5 C15.3888889,10.797222 14.8138891,10.2222222 14.1111111,10.2222222 C13.4083331,10.2222222 12.8333333,10.797222 12.8333333,11.5 Z" id="Fill-2" fill="#b8e986"></path>
                </g>
            </g>
        </g>
    </g>
</svg>